<?xml version="1.0" encoding="utf-8"?>
<!-- Generator: Adobe Illustrator 17.0.1, SVG Export Plug-In . SVG Version: 6.00 Build 0)  -->
<!DOCTYPE svg PUBLIC "-//W3C//DTD SVG 1.0//EN" "http://www.w3.org/TR/2001/REC-SVG-20010904/DTD/svg10.dtd">
<svg version="1.0" xmlns="http://www.w3.org/2000/svg" xmlns:xlink="http://www.w3.org/1999/xlink" x="0px" y="0px"
	 width="35px" height="35px" viewBox="0 0 37.923 37.923" enable-background="new 0 0 37.923 37.923" xml:space="preserve">
<g id="HP">
</g>
<g id="base_x5F_layer">
	<g id="balance">
	</g>
	<g id="balance_2_">
		<circle fill="#FFFFFF" stroke="#4D4D4D" stroke-width="0.4889" stroke-miterlimit="10" cx="18.961" cy="18.961" r="18.717"/>
		<path fill="#808080" d="M30.221,24.095L26.176,11.39l0.973-0.096l-0.083-0.843l-6.933,0.684c-0.298-1.087-1.172-3.098-1.172-3.098
			s-1.015,2.338-1.23,3.335l-6.957,0.686l0.083,0.843l0.904-0.089l-4.06,12.75H7.177c0.56,3.911,3.476,4.674,4.699,4.674
			c1.294,0,4.14-0.762,4.699-4.674H16.05l-4.067-12.772l5.834-0.575c0.205,0.426,0.64,0.721,1.144,0.721
			c0.592,0,1.089-0.406,1.23-0.955l5.719-0.564l-4.038,12.679h-0.525c0.56,3.911,3.476,4.674,4.699,4.674
			c1.294,0,4.14-0.762,4.699-4.674H30.221z M15.62,25.562H8.132l3.744-11.996L15.62,25.562z M18.961,12.052
			c-0.214,0-0.388-0.174-0.388-0.388c0-0.214,0.174-0.388,0.388-0.388c0.214,0,0.388,0.174,0.388,0.388
			C19.35,11.878,19.176,12.052,18.961,12.052z M22.303,24.095l3.744-11.996l3.744,11.996H22.303z"/>
	</g>
	<g id="balance_1_">
	</g>
</g>
</svg>
