<?xml version="1.0" encoding="utf-8"?>
<!-- Generator: Adobe Illustrator 17.0.1, SVG Export Plug-In . SVG Version: 6.00 Build 0)  -->
<!DOCTYPE svg PUBLIC "-//W3C//DTD SVG 1.0//EN" "http://www.w3.org/TR/2001/REC-SVG-20010904/DTD/svg10.dtd">
<svg version="1.0" xmlns="http://www.w3.org/2000/svg" xmlns:xlink="http://www.w3.org/1999/xlink" x="0px" y="0px"
	 width="35px" height="35px" viewBox="0 0 306.604 306.651" enable-background="new 0 0 306.604 306.651"
	 xml:space="preserve">
<symbol  id="balance_1_" viewBox="-153.13 -153.129 306.259 306.259">
	<g>
		<path fill="#B3B3B3" d="M-23.815-55.058L-57.969,52.195L-92.122-55.058h-4.294c4.579-32,28.442-38.238,38.447-38.238
			c10.584,0,33.868,6.238,38.447,38.238H-23.815z M-88.601-55.058l30.632,98.141l30.632-98.141H-88.601z"/>
		<path fill="#B3B3B3" d="M92.122-43.058L57.969,64.195L23.815-43.058h-4.294c4.579-32,28.442-38.238,38.447-38.238
			c10.584,0,33.868,6.238,38.447,38.238H92.122z M27.336-43.058l30.632,98.141l30.632-98.141H27.336z"/>
		<path fill="#B3B3B3" d="M57.394,76.201L8.298,71.359C6.184,79.058,0,93.296,0,93.296S-7.191,76.74-8.714,69.68l-49.269-4.86
			l0.589-5.971l49.291,4.862c1.454-3.016,4.531-5.103,8.103-5.103c4.196,0,7.711,2.876,8.708,6.761l49.276,4.86L57.394,76.201z
			 M0,64.859c-1.519,0-2.75,1.231-2.75,2.75c0,1.519,1.231,2.75,2.75,2.75s2.75-1.231,2.75-2.75C2.75,66.09,1.519,64.859,0,64.859z"
			/>
	</g>
	<g>
		<path fill="#333333" d="M0,146.713c39.188,0,76.031-15.261,103.741-42.971C131.452,76.032,146.713,39.189,146.713,0
			s-15.261-76.031-42.971-103.741C76.031-131.451,39.188-146.712,0-146.712c-39.188,0-76.031,15.261-103.741,42.971
			C-131.452-76.031-146.713-39.188-146.713,0c0,39.188,15.261,76.031,42.971,103.741C-76.031,131.452-39.188,146.713,0,146.713
			 M0,153.13c-84.571,0-153.13-68.558-153.13-153.13S-84.571-153.129,0-153.129S153.13-84.571,153.13,0S84.571,153.13,0,153.13
			L0,153.13z"/>
	</g>
</symbol>
<g id="Layer_1">
	<g id="balance_x5F_hover">
		
			<use xlink:href="#balance_1_"  width="306.259" height="306.259" id="XMLID_1_" x="-153.13" y="-153.129" transform="matrix(1 0 0 -1 153.2917 153.4167)" display="none" overflow="visible"/>
	</g>
</g>
<g id="Non_Editable_Symbol_Art">
	<g id="balance">
		<g id="balance_2_">
		</g>
	</g>
	
		<use xlink:href="#balance_1_"  width="306.259" height="306.259" x="-153.13" y="-153.129" transform="matrix(1 0 0 -1 153.2917 153.4169)" overflow="visible"/>
</g>
</svg>
