<?xml version="1.0" encoding="utf-8"?>
<!-- Generator: Adobe Illustrator 17.0.1, SVG Export Plug-In . SVG Version: 6.00 Build 0)  -->
<!DOCTYPE svg PUBLIC "-//W3C//DTD SVG 1.0//EN" "http://www.w3.org/TR/2001/REC-SVG-20010904/DTD/svg10.dtd">
<svg version="1.0" id="Layer_1" xmlns="http://www.w3.org/2000/svg" xmlns:xlink="http://www.w3.org/1999/xlink" x="0px" y="0px"
	 width="258.584px" height="62.103px" viewBox="0 0 258.584 62.103" enable-background="new 0 0 258.584 62.103"
	 xml:space="preserve">
<g>
	<g>
		<polygon fill="#808285" points="39.699,0 27.789,0 19.848,0 0,0 0,8 20,8 20,21.515 23.838,19.246 26,20.548 26,20 27,20 
			27,21.011 28,21.515 28,8 39,8 39,48 48,48 48,7.903 48,0 		"/>
		<polygon fill="#808285" points="28,39 28,29 20,29 20,39 8,39 8,8 0,8 0,39.097 0,48 7.938,48 19.848,48 27.789,48 48,48 48,39 		
			"/>
		<rect x="23.257" y="23.937" fill="#808285" width="1.329" height="1.329"/>
	</g>
	<g>
		<path fill="#808285" d="M79.102,14.007h-10.83v7.534h9.952v5.607h-9.952V39.07h-6.913V8.379h17.743V14.007z"/>
		<path fill="#808285" d="M91.066,39.07h-6.913V8.379h6.913V39.07z"/>
		<path fill="#808285" d="M125.653,39.07h-6.977l-12.649-19.284c-0.742-1.127-1.256-1.976-1.541-2.547H104.4
			c0.114,1.085,0.171,2.74,0.171,4.965V39.07h-6.528V8.379h7.448l12.178,18.684c0.557,0.842,1.07,1.677,1.541,2.504h0.086
			c-0.114-0.713-0.171-2.119-0.171-4.216V8.379h6.528V39.07z"/>
		<path fill="#808285" d="M132.673,39.07V8.379h10.873c10.901,0,16.352,4.987,16.352,14.96c0,4.78-1.487,8.597-4.462,11.45
			c-2.975,2.854-6.938,4.28-11.889,4.28H132.673z M139.586,14.007v19.455h3.424c2.996,0,5.347-0.899,7.052-2.697
			c1.705-1.798,2.558-4.245,2.558-7.341c0-2.925-0.845-5.226-2.536-6.902c-1.691-1.676-4.063-2.515-7.116-2.515H139.586z"/>
		<path fill="#808285" d="M177.96,39.605c-4.395,0-7.976-1.43-10.744-4.291c-2.768-2.861-4.152-6.588-4.152-11.183
			c0-4.851,1.405-8.775,4.216-11.771c2.811-2.996,6.535-4.495,11.172-4.495c4.38,0,7.922,1.434,10.626,4.302
			c2.704,2.868,4.056,6.649,4.056,11.343c0,4.823-1.402,8.711-4.205,11.664C186.126,38.128,182.469,39.605,177.96,39.605z
			 M178.26,13.815c-2.426,0-4.352,0.91-5.779,2.729c-1.427,1.819-2.14,4.227-2.14,7.223c0,3.039,0.713,5.444,2.14,7.213
			c1.427,1.769,3.296,2.654,5.607,2.654c2.383,0,4.273-0.86,5.672-2.579c1.398-1.719,2.098-4.106,2.098-7.159
			c0-3.182-0.678-5.657-2.033-7.427C182.469,14.7,180.614,13.815,178.26,13.815z"/>
		<path fill="#808285" d="M233.201,39.07h-6.827V20.707c0-1.983,0.086-4.174,0.257-6.571h-0.171
			c-0.357,1.884-0.678,3.239-0.963,4.066l-7.191,20.868h-5.65l-7.32-20.653c-0.2-0.557-0.521-1.983-0.963-4.281h-0.193
			c0.185,3.025,0.278,5.679,0.278,7.962V39.07h-6.228V8.379h10.123l6.271,18.192c0.499,1.455,0.863,2.918,1.092,4.388h0.128
			c0.385-1.698,0.792-3.175,1.22-4.43l6.271-18.149h9.867V39.07z"/>
		<path fill="#808285" d="M258.584,39.07h-18.406V8.379h17.7v5.629h-10.787v6.827h10.038v5.607h-10.038v7.02h11.493V39.07z"/>
	</g>
	<g>
		<g>
			<path fill="#808285" d="M103.024,53.362v3.53h3.426v0.791h-3.426v4.256h-0.869v-9.375h4.57v0.798H103.024z"/>
			<path fill="#808285" d="M109.405,61.94h-0.869v-9.375h0.869V61.94z"/>
			<path fill="#808285" d="M118.264,61.94l-5.204-7.525c-0.066-0.096-0.13-0.194-0.193-0.294c-0.063-0.1-0.114-0.198-0.154-0.294
				h-0.033c0.009,0.079,0.016,0.188,0.023,0.327c0.007,0.14,0.01,0.314,0.01,0.523v7.263h-0.869v-9.375h0.961l5.119,7.433
				c0.079,0.118,0.149,0.228,0.213,0.33c0.063,0.102,0.121,0.197,0.173,0.284h0.033c-0.017-0.144-0.031-0.305-0.039-0.484
				c-0.009-0.179-0.013-0.377-0.013-0.595v-6.969h0.876v9.375H118.264z"/>
			<path fill="#808285" d="M121.598,61.94v-9.375h2.465c1.604,0,2.816,0.385,3.635,1.154c0.819,0.769,1.229,1.906,1.229,3.409
				c0,0.724-0.114,1.382-0.343,1.975c-0.229,0.593-0.559,1.099-0.991,1.52c-0.431,0.421-0.954,0.745-1.569,0.974
				c-0.615,0.229-1.307,0.343-2.079,0.343H121.598z M122.467,53.362v7.786h1.438c0.645,0,1.221-0.087,1.729-0.262
				c0.508-0.174,0.938-0.43,1.291-0.768c0.353-0.338,0.622-0.755,0.807-1.252c0.185-0.497,0.278-1.068,0.278-1.713
				c0-2.528-1.336-3.792-4.008-3.792H122.467z"/>
			<path fill="#808285" d="M137.288,58.429v3.511h-0.87v-3.491l-2.942-5.884h0.987l2.144,4.38c0.026,0.052,0.061,0.131,0.105,0.235
				c0.044,0.105,0.096,0.238,0.157,0.399h0.02c0.026-0.078,0.063-0.17,0.111-0.275c0.048-0.105,0.107-0.222,0.177-0.353l2.242-4.387
				h0.928L137.288,58.429z"/>
			<path fill="#808285" d="M145.31,62.103c-0.676,0-1.284-0.123-1.824-0.369c-0.54-0.246-0.999-0.583-1.376-1.01
				c-0.377-0.427-0.667-0.929-0.869-1.507c-0.203-0.577-0.304-1.197-0.304-1.86c0-0.732,0.101-1.402,0.304-2.01
				c0.203-0.608,0.498-1.129,0.886-1.563c0.388-0.434,0.863-0.771,1.425-1.013c0.562-0.242,1.203-0.363,1.922-0.363
				c0.663,0,1.257,0.119,1.785,0.356c0.527,0.238,0.976,0.567,1.347,0.987c0.37,0.421,0.655,0.918,0.853,1.494
				c0.198,0.575,0.297,1.201,0.297,1.876c0,0.711-0.097,1.37-0.291,1.978c-0.194,0.608-0.48,1.134-0.856,1.579
				c-0.377,0.445-0.841,0.793-1.393,1.046C146.664,61.977,146.029,62.103,145.31,62.103z M145.382,53.199
				c-0.567,0-1.069,0.108-1.507,0.324c-0.438,0.216-0.807,0.508-1.108,0.876c-0.301,0.368-0.528,0.8-0.683,1.295
				c-0.155,0.495-0.234,1.021-0.239,1.579c-0.004,0.532,0.064,1.041,0.206,1.526c0.142,0.486,0.355,0.915,0.641,1.288
				c0.285,0.373,0.646,0.67,1.082,0.892c0.436,0.222,0.946,0.334,1.53,0.334c0.584,0,1.097-0.101,1.54-0.304
				c0.442-0.203,0.812-0.484,1.108-0.844c0.296-0.36,0.52-0.788,0.67-1.285c0.15-0.497,0.225-1.04,0.225-1.628
				c0-0.549-0.066-1.07-0.199-1.563c-0.133-0.492-0.34-0.923-0.621-1.291c-0.281-0.368-0.64-0.66-1.075-0.876
				C146.515,53.307,145.992,53.199,145.382,53.199z"/>
			<path fill="#808285" d="M158.255,58.174c0,2.62-1.151,3.929-3.452,3.929c-2.192,0-3.288-1.262-3.288-3.785v-5.753h0.869v5.675
				c0,1.029,0.207,1.798,0.621,2.308c0.414,0.51,1.055,0.765,1.922,0.765c1.639,0,2.458-0.994,2.458-2.981v-5.766h0.869V58.174z"/>
			<path fill="#808285" d="M165.675,61.94l-1.412-2.687c-0.139-0.266-0.275-0.488-0.405-0.667c-0.131-0.179-0.266-0.321-0.405-0.428
				c-0.139-0.107-0.289-0.183-0.448-0.229c-0.159-0.046-0.337-0.069-0.533-0.069h-1.033v4.08h-0.87v-9.375h2.7
				c0.353,0,0.694,0.052,1.023,0.157c0.329,0.105,0.622,0.259,0.879,0.464s0.463,0.462,0.618,0.771
				c0.155,0.31,0.232,0.669,0.232,1.079c0,0.331-0.05,0.636-0.15,0.915c-0.1,0.279-0.243,0.526-0.428,0.742
				c-0.185,0.216-0.41,0.399-0.673,0.549c-0.264,0.15-0.561,0.263-0.892,0.337v0.026c0.126,0.052,0.242,0.12,0.346,0.203
				c0.105,0.083,0.206,0.183,0.304,0.301s0.195,0.253,0.291,0.405c0.096,0.153,0.196,0.327,0.301,0.523l1.576,2.903H165.675z
				 M161.439,53.362v3.707h1.556c0.314,0,0.602-0.046,0.863-0.137c0.261-0.092,0.485-0.222,0.67-0.392
				c0.185-0.17,0.329-0.375,0.432-0.615c0.102-0.24,0.154-0.51,0.154-0.811c0-0.545-0.175-0.973-0.526-1.285
				c-0.351-0.311-0.858-0.467-1.52-0.467H161.439z"/>
			<path fill="#808285" d="M177.94,61.94v-4.387h-5.112v4.387h-0.87v-9.375h0.87v4.204h5.112v-4.204h0.87v9.375H177.94z"/>
			<path fill="#808285" d="M185.059,62.103c-0.676,0-1.284-0.123-1.824-0.369c-0.541-0.246-0.999-0.583-1.376-1.01
				c-0.377-0.427-0.667-0.929-0.869-1.507c-0.203-0.577-0.304-1.197-0.304-1.86c0-0.732,0.101-1.402,0.304-2.01
				c0.203-0.608,0.498-1.129,0.886-1.563c0.388-0.434,0.863-0.771,1.425-1.013c0.562-0.242,1.203-0.363,1.922-0.363
				c0.663,0,1.257,0.119,1.785,0.356c0.527,0.238,0.976,0.567,1.347,0.987c0.37,0.421,0.655,0.918,0.853,1.494
				c0.198,0.575,0.297,1.201,0.297,1.876c0,0.711-0.097,1.37-0.291,1.978c-0.194,0.608-0.48,1.134-0.856,1.579
				c-0.377,0.445-0.841,0.793-1.393,1.046C186.414,61.977,185.778,62.103,185.059,62.103z M185.131,53.199
				c-0.567,0-1.069,0.108-1.507,0.324c-0.438,0.216-0.807,0.508-1.108,0.876c-0.301,0.368-0.529,0.8-0.683,1.295
				c-0.155,0.495-0.234,1.021-0.239,1.579c-0.004,0.532,0.064,1.041,0.206,1.526c0.141,0.486,0.355,0.915,0.641,1.288
				c0.285,0.373,0.646,0.67,1.082,0.892c0.436,0.222,0.946,0.334,1.53,0.334c0.584,0,1.097-0.101,1.54-0.304
				c0.442-0.203,0.812-0.484,1.108-0.844c0.296-0.36,0.52-0.788,0.67-1.285c0.15-0.497,0.225-1.04,0.225-1.628
				c0-0.549-0.066-1.07-0.199-1.563c-0.133-0.492-0.34-0.923-0.621-1.291c-0.281-0.368-0.64-0.66-1.075-0.876
				S185.741,53.199,185.131,53.199z"/>
			<path fill="#808285" d="M199.677,61.94v-6.472c0-0.331,0.026-0.865,0.078-1.602h-0.026c-0.061,0.196-0.117,0.366-0.167,0.51
				c-0.05,0.144-0.097,0.262-0.14,0.353l-3.269,7.211h-0.373l-3.275-7.165c-0.096-0.218-0.194-0.525-0.294-0.922h-0.026
				c0.017,0.201,0.03,0.429,0.036,0.687c0.007,0.257,0.01,0.543,0.01,0.856v6.544h-0.85v-9.375h1.026l3.184,7.047
				c0.065,0.148,0.13,0.3,0.193,0.454c0.063,0.155,0.121,0.319,0.173,0.494h0.039c0.061-0.174,0.117-0.333,0.167-0.477
				c0.05-0.144,0.112-0.298,0.186-0.464l3.21-7.054h0.974v9.375H199.677z"/>
			<path fill="#808285" d="M202.966,61.94v-9.375h4.57v0.798h-3.7v3.439h3.426v0.785h-3.426v3.563h3.909v0.791H202.966z"/>
		</g>
	</g>
</g>
</svg>
