<?xml version="1.0" encoding="utf-8"?>
<!-- Generator: Adobe Illustrator 17.0.1, SVG Export Plug-In . SVG Version: 6.00 Build 0)  -->
<!DOCTYPE svg PUBLIC "-//W3C//DTD SVG 1.0//EN" "http://www.w3.org/TR/2001/REC-SVG-20010904/DTD/svg10.dtd">
<svg version="1.0" id="Layer_1" xmlns="http://www.w3.org/2000/svg" xmlns:xlink="http://www.w3.org/1999/xlink" x="0px" y="0px"
	 width="70px" height="70px" viewBox="0 0 53.722 53.723" enable-background="new 0 0 53.722 53.723" xml:space="preserve">
<circle fill="none" stroke="#4D4D4D" stroke-width="0.8364" stroke-miterlimit="10" cx="26.861" cy="26.861" r="23.861"/>
<g>
	<path fill="#BF4B4B" d="M26.861,52.222C12.877,52.222,1.5,40.845,1.5,26.861C1.5,12.877,12.877,1.5,26.861,1.5
		c13.984,0,25.361,11.377,25.361,25.361C52.222,40.845,40.845,52.222,26.861,52.222z M35.39,35.267v-14.13l-2.149-1.65l-6.269-4.814
		l-8.64,6.476v14.119H35.39z"/>
	<path fill="#FFFFFF" d="M26.861,3c13.178,0,23.861,10.683,23.861,23.861S40.039,50.723,26.861,50.723
		C13.683,50.723,3,40.039,3,26.861S13.683,3,26.861,3 M16.832,36.767H36.89V20.398l-3.689-2.833v-3.776h-1.46v2.655l-4.758-3.654
		l-10.151,7.608V36.767 M26.861,0C12.05,0,0,12.05,0,26.861c0,14.811,12.05,26.861,26.861,26.861
		c14.811,0,26.861-12.05,26.861-26.861C53.722,12.05,41.672,0,26.861,0L26.861,0z M19.832,21.899l7.129-5.343l2.953,2.267
		l0.689,0.529l0.771,0.592l2.516,1.932v11.89H19.832V21.899L19.832,21.899z"/>
</g>
<rect x="24.594" y="24.663" fill="#1A1A1A" width="4.534" height="4.534"/>
<g id="balance_1_">
</g>
<g id="balance">
</g>
</svg>
