<?xml version="1.0" encoding="utf-8"?>
<!-- Generator: Adobe Illustrator 17.0.1, SVG Export Plug-In . SVG Version: 6.00 Build 0)  -->
<!DOCTYPE svg PUBLIC "-//W3C//DTD SVG 1.0//EN" "http://www.w3.org/TR/2001/REC-SVG-20010904/DTD/svg10.dtd">
<svg version="1.0" id="Layer_1" xmlns="http://www.w3.org/2000/svg" xmlns:xlink="http://www.w3.org/1999/xlink" x="0px" y="0px"
	 width="60px" height="60px" viewBox="0 0 45.634 45.634" enable-background="new 0 0 45.634 45.634" xml:space="preserve">
<g id="balance_1_">
	<g>
		<g>
			<circle fill="none" stroke="#333333" stroke-width="0.9366" stroke-miterlimit="10" cx="22.817" cy="22.817" r="22.349"/>
		</g>
		<g>
			<path fill="#B3B3B3" d="M19.341,30.698l-4.985-15.653L9.372,30.698H8.745c0.668,4.67,4.151,5.581,5.611,5.581
				c1.545,0,4.943-0.91,5.611-5.581H19.341z M9.886,30.698l4.471-14.323l4.471,14.323H9.886z"/>
			<path fill="#B3B3B3" d="M36.262,28.947l-4.985-15.653l-4.985,15.653h-0.627c0.668,4.67,4.151,5.581,5.611,5.581
				c1.545,0,4.943-0.91,5.611-5.581H36.262z M26.807,28.947l4.471-14.323l4.471,14.323H26.807z"/>
			<path fill="#B3B3B3" d="M31.193,11.541l-7.165,0.707c-0.308-1.124-1.211-3.202-1.211-3.202s-1.05,2.416-1.272,3.447l-7.191,0.709
				l0.086,0.871l7.194-0.71c0.212,0.44,0.661,0.745,1.183,0.745c0.612,0,1.125-0.42,1.271-0.987l7.192-0.709L31.193,11.541z
				 M22.817,13.197c-0.222,0-0.401-0.18-0.401-0.401s0.18-0.401,0.401-0.401s0.401,0.18,0.401,0.401S23.039,13.197,22.817,13.197z"
				/>
		</g>
	</g>
</g>
<g id="balance">
</g>
</svg>
