<?xml version="1.0" encoding="utf-8"?>
<!-- Generator: Adobe Illustrator 17.0.1, SVG Export Plug-In . SVG Version: 6.00 Build 0)  -->
<!DOCTYPE svg PUBLIC "-//W3C//DTD SVG 1.0//EN" "http://www.w3.org/TR/2001/REC-SVG-20010904/DTD/svg10.dtd">
<svg version="1.0" id="Layer_1" xmlns="http://www.w3.org/2000/svg" xmlns:xlink="http://www.w3.org/1999/xlink" x="0px" y="0px"
	 width="60px" height="60px" viewBox="0 0 45.697 45.697" enable-background="new 0 0 45.697 45.697" xml:space="preserve">
<g id="balance_1_">
</g>
<g id="balance">
	<g>
		<g>
			<circle fill="#333333" stroke="#333333" stroke-miterlimit="10" cx="22.849" cy="22.849" r="22.349"/>
		</g>
		<g>
			<path fill="#FFFFFF" d="M18.199,16.861v11.958h-1.544V16.861H18.199z"/>
			<path fill="#FFFFFF" d="M20.898,17.021c0.94-0.142,2.058-0.248,3.282-0.248c2.218,0,3.797,0.514,4.843,1.49
				c1.065,0.976,1.686,2.36,1.686,4.294c0,1.952-0.603,3.549-1.721,4.649c-1.117,1.117-2.963,1.721-5.287,1.721
				c-1.1,0-2.023-0.053-2.803-0.142V17.021z M22.442,27.595c0.39,0.071,0.958,0.089,1.561,0.089c3.3,0,5.092-1.846,5.092-5.074
				c0.017-2.821-1.579-4.613-4.844-4.613c-0.798,0-1.401,0.071-1.809,0.16V27.595z"/>
		</g>
	</g>
</g>
</svg>
