<?xml version="1.0" encoding="utf-8"?>
<!-- Generator: Adobe Illustrator 17.0.1, SVG Export Plug-In . SVG Version: 6.00 Build 0)  -->
<!DOCTYPE svg PUBLIC "-//W3C//DTD SVG 1.0//EN" "http://www.w3.org/TR/2001/REC-SVG-20010904/DTD/svg10.dtd">
<svg version="1.0" id="Layer_1" xmlns="http://www.w3.org/2000/svg" xmlns:xlink="http://www.w3.org/1999/xlink" x="0px" y="0px"
	 width="60px" height="60px" viewBox="0 0 45.634 45.634" enable-background="new 0 0 45.634 45.634" xml:space="preserve">
<g>
	<circle fill="#333333" stroke="#333333" stroke-width="0.9366" stroke-miterlimit="10" cx="22.817" cy="22.817" r="22.349"/>
</g>
<g id="_x38_7_9_">
	<g>
		<path fill="#FFFFFF" d="M17.534,20.602c-0.615,0-0.615,0.955,0,0.955c2.45,0,4.899,0,7.348,0c0.616,0,0.616-0.955,0-0.955
			C22.433,20.602,19.983,20.602,17.534,20.602z"/>
		<path fill="#FFFFFF" d="M24.882,22.861c-2.45,0-4.899,0-7.348,0c-0.615,0-0.615,0.954,0,0.954c2.45,0,4.899,0,7.348,0
			C25.498,23.815,25.498,22.861,24.882,22.861z"/>
		<path fill="#FFFFFF" d="M24.882,24.953c-2.45,0-4.899,0-7.348,0c-0.615,0-0.615,0.954,0,0.954c2.45,0,4.899,0,7.348,0
			C25.498,25.907,25.498,24.953,24.882,24.953z"/>
		<path fill="#FFFFFF" d="M24.882,27.212c-2.45,0-4.899,0-7.348,0c-0.615,0-0.615,0.954,0,0.954c2.45,0,4.899,0,7.348,0
			C25.498,28.166,25.498,27.212,24.882,27.212z"/>
		<path fill="#FFFFFF" d="M24.741,29.343c-2.45,0-4.9,0-7.349,0c-0.615,0-0.615,0.954,0,0.954c2.449,0,4.899,0,7.349,0
			C25.356,30.297,25.356,29.343,24.741,29.343z"/>
		<path fill="#FFFFFF" d="M14.348,15.715v17.817h13.72V18.187l-2.549-2.472H14.348z M26.882,32.346H15.535V16.902h9.373v1.882h1.974
			L26.882,32.346L26.882,32.346z"/>
		<polygon fill="#FFFFFF" points="16.667,12.985 16.667,15.048 17.854,15.048 17.854,14.171 27.228,14.171 27.228,16.053 
			29.202,16.053 29.202,29.616 28.68,29.616 28.68,30.802 30.388,30.802 30.388,15.457 27.838,12.985 		"/>
		<polygon fill="#FFFFFF" points="30.276,10.502 19.105,10.502 19.105,12.565 20.291,12.565 20.291,11.689 29.665,11.689 
			29.665,13.571 31.639,13.571 31.639,27.133 31.118,27.133 31.118,28.319 32.826,28.319 32.826,12.974 		"/>
	</g>
</g>
<g id="balance_1_">
</g>
<g id="balance">
</g>
</svg>
