<?xml version="1.0" encoding="utf-8"?>
<!-- Generator: Adobe Illustrator 17.0.1, SVG Export Plug-In . SVG Version: 6.00 Build 0)  -->
<!DOCTYPE svg PUBLIC "-//W3C//DTD SVG 1.1//EN" "http://www.w3.org/Graphics/SVG/1.1/DTD/svg11.dtd">
<svg version="1.1" id="Layer_1" xmlns="http://www.w3.org/2000/svg" xmlns:xlink="http://www.w3.org/1999/xlink" x="0px" y="0px"
	 width="50px" height="50px" viewBox="0 0 68 68" enable-background="new 0 0 68 68" xml:space="preserve">
<g id="balance_2_" opacity="0.6">
</g>
<g id="balance_1_" opacity="0.6">
</g>
<g id="balance">
</g>
<g id="form">
</g>
<g id="New_Symbol">
</g>
<rect fill="#2FADE2" width="68" height="68"/>
<g>
	<path fill="#F2F2F2" d="M50.554,41.638l-4.761-4.761c-0.948-0.944-2.519-0.915-3.5,0.066l-2.398,2.398
		c-0.151-0.084-0.308-0.171-0.473-0.264c-1.514-0.839-3.588-1.989-5.769-4.172c-2.188-2.188-3.339-4.264-4.181-5.779
		c-0.089-0.161-0.174-0.315-0.258-0.462l1.61-1.608l0.791-0.792c0.983-0.983,1.01-2.553,0.064-3.5l-4.761-4.762
		c-0.946-0.946-2.517-0.917-3.5,0.066l-1.342,1.349l0.037,0.036c-0.45,0.574-0.826,1.236-1.105,1.95
		c-0.258,0.68-0.419,1.328-0.492,1.978c-0.628,5.211,1.753,9.974,8.216,16.438c8.934,8.933,16.133,8.258,16.444,8.225
		c0.677-0.081,1.325-0.242,1.984-0.498c0.708-0.277,1.37-0.652,1.943-1.101l0.029,0.026l1.359-1.331
		C51.471,44.157,51.499,42.587,50.554,41.638z M49.433,44.081l-0.599,0.598l-0.239,0.229c-0.376,0.363-1.026,0.873-1.976,1.245
		c-0.539,0.207-1.071,0.341-1.611,0.405c-0.068,0.007-6.84,0.584-15.221-7.796c-7.126-7.126-8.268-11.232-7.789-15.209
		c0.06-0.527,0.192-1.058,0.404-1.612c0.375-0.955,0.884-1.605,1.245-1.981l0.828-0.836c0.399-0.4,1.022-0.431,1.386-0.066
		l4.761,4.761c0.364,0.365,0.335,0.988-0.064,1.389l-3.215,3.212l0.297,0.499c0.165,0.278,0.339,0.59,0.526,0.929
		c0.884,1.595,2.094,3.778,4.431,6.113c2.331,2.332,4.511,3.541,6.101,4.423c0.344,0.19,0.657,0.365,0.939,0.533l0.5,0.297
		L43.349,38c0.401-0.399,1.025-0.429,1.39-0.065l4.758,4.759C49.861,43.059,49.833,43.682,49.433,44.081z"/>
</g>
</svg>
