<?xml version="1.0" encoding="utf-8"?>
<!-- Generator: Adobe Illustrator 17.0.1, SVG Export Plug-In . SVG Version: 6.00 Build 0)  -->
<!DOCTYPE svg PUBLIC "-//W3C//DTD SVG 1.1//EN" "http://www.w3.org/Graphics/SVG/1.1/DTD/svg11.dtd">
<svg version="1.1" id="Layer_1" xmlns="http://www.w3.org/2000/svg" xmlns:xlink="http://www.w3.org/1999/xlink" x="0px" y="0px"
	 width="60px" height="60px" viewBox="0 0 44.424 44.424" enable-background="new 0 0 44.424 44.424" xml:space="preserve">
<g id="balance_2_" opacity="0.6">
</g>
<g id="balance_1_" opacity="0.6">
</g>
<g id="balance">
</g>
<g>
	<g>
		<circle fill="#333333" cx="22.212" cy="22.212" r="22.212"/>
	</g>
</g>
<g>
	<g>
		<path fill="#FFFFFF" d="M17.787,30.476c0.175,0.422,0.462,0.711,0.866,0.879c0.414,0.172,0.818,0.164,1.224-0.011
			c0.406-0.176,0.697-0.456,0.865-0.86l-2.957-1.227C17.617,29.66,17.618,30.067,17.787,30.476z"/>
		<path fill="#FFFFFF" d="M28.569,32.136c-0.268-1.303-0.334-2.609-0.21-3.903c0.124-1.291,0.499-3.079,1.118-5.362
			c0.36-1.33,0.285-2.609-0.002-3.535c-0.143-0.46-0.339-0.905-0.599-1.332c-0.512-0.841-1.002-1.341-1.611-1.831
			c0.092-0.493,0.013-0.963-0.236-1.419c-0.245-0.449-0.602-0.78-1.084-0.98c-0.472-0.196-0.96-0.217-1.45-0.071
			c-0.49,0.147-0.877,0.426-1.161,0.839c-0.777-0.085-1.479-0.085-2.444,0.149c-0.478,0.116-0.933,0.29-1.366,0.517
			c-0.852,0.448-1.807,1.305-2.493,2.5c-1.179,2.051-2.187,3.573-3.015,4.575c-0.826,0.999-1.793,1.877-2.901,2.613
			c-0.106,0.07-0.186,0.149-0.23,0.255c-0.036,0.087-0.05,0.172-0.037,0.278c0.029,0.227,0.144,0.387,0.356,0.475l16.588,6.88
			c0.212,0.088,0.406,0.055,0.588-0.083c0.074-0.071,0.13-0.149,0.166-0.236C28.589,32.359,28.593,32.253,28.569,32.136z
			 M12.611,25.235c0.989-0.752,1.88-1.66,2.666-2.699c0.788-1.041,1.703-2.468,2.757-4.253c0.917-1.552,2.095-2.277,3.287-2.509
			c0.846-0.164,1.51-0.159,2.237-0.032c0.262,0.046,0.507-0.106,0.607-0.347l0.008-0.019c0.212-0.511,0.817-0.745,1.327-0.533
			c0.53,0.22,0.772,0.806,0.56,1.316l-0.008,0.019c-0.1,0.241-0.016,0.522,0.203,0.682c0.595,0.437,1.087,0.884,1.548,1.602
			c0.231,0.36,0.416,0.729,0.542,1.117c0.256,0.787,0.302,1.853,0.005,2.983c-0.528,2.005-0.883,3.653-1.058,4.946
			c-0.175,1.293-0.184,2.566-0.021,3.807L12.611,25.235z"/>
	</g>
</g>
</svg>
