<?xml version="1.0" encoding="utf-8"?>
<!-- Generator: Adobe Illustrator 17.0.1, SVG Export Plug-In . SVG Version: 6.00 Build 0)  -->
<!DOCTYPE svg PUBLIC "-//W3C//DTD SVG 1.1//EN" "http://www.w3.org/Graphics/SVG/1.1/DTD/svg11.dtd">
<svg version="1.1" id="Layer_1" xmlns="http://www.w3.org/2000/svg" xmlns:xlink="http://www.w3.org/1999/xlink" x="0px" y="0px"
	 width="15px" height="30px" viewBox="71.75 0 10 20" enable-background="new 71.75 0 10 20" xml:space="preserve">
<g>
	<g>
		<path fill="#227E93" d="M81.75,10h-10V0h10V10z M73.288,8.462h6.923V1.538h-6.923V8.462z"/>
	</g>
	<g>
		<path fill="#227E93" d="M81.75,20h-10V10h10V20z M73.288,18.462h6.923v-6.923h-6.923V18.462z"/>
	</g>
	<path fill="#333333" d="M76.503,17.968l-2.658-3.008c-0.098-0.111-0.088-0.28,0.023-0.379c0.111-0.098,0.28-0.087,0.378,0.023
		l2.178,2.465l2.978-4.862c0.077-0.127,0.243-0.165,0.368-0.089c0.126,0.077,0.166,0.243,0.089,0.369L76.503,17.968z"/>
</g>
</svg>
