<?xml version="1.0" encoding="utf-8"?>
<!-- Generator: Adobe Illustrator 17.0.1, SVG Export Plug-In . SVG Version: 6.00 Build 0)  -->
<!DOCTYPE svg PUBLIC "-//W3C//DTD SVG 1.1//EN" "http://www.w3.org/Graphics/SVG/1.1/DTD/svg11.dtd">
<svg version="1.1" xmlns="http://www.w3.org/2000/svg" xmlns:xlink="http://www.w3.org/1999/xlink" x="0px" y="0px"
	 width="27.117px" height="27.117px" viewBox="0 0 27.117 27.117" enable-background="new 0 0 27.117 27.117" xml:space="preserve">
<g id="HP">
</g>
<g id="base_x5F_layer">
	<g id="balance">
	</g>
	<g id="balance_3_">
	</g>
	<g id="balance_2_">
	</g>
	<g id="balance_1_">
	</g>
	<g>
		<g>
			<circle fill="#FFFFFF" stroke="#4D4D4D" stroke-width="0.3496" stroke-miterlimit="10" cx="13.558" cy="13.558" r="13.384"/>
		</g>
		<g>
			<path fill="#BA3636" d="M10.892,18.538c0.105,0.255,0.278,0.428,0.522,0.529c0.25,0.104,0.493,0.099,0.738-0.007
				c0.245-0.106,0.42-0.275,0.521-0.518l-1.782-0.739C10.79,18.046,10.79,18.291,10.892,18.538z"/>
			<path fill="#BA3636" d="M17.389,19.538c-0.161-0.785-0.201-1.572-0.126-2.352c0.075-0.778,0.301-1.855,0.673-3.231
				c0.217-0.801,0.172-1.572-0.001-2.13c-0.086-0.277-0.204-0.545-0.361-0.803c-0.308-0.507-0.604-0.808-0.971-1.103
				c0.055-0.297,0.008-0.58-0.142-0.855c-0.148-0.271-0.363-0.47-0.653-0.591c-0.284-0.118-0.578-0.131-0.873-0.043
				c-0.295,0.088-0.528,0.257-0.7,0.506c-0.468-0.051-0.891-0.051-1.473,0.09c-0.288,0.07-0.562,0.175-0.823,0.312
				c-0.513,0.27-1.089,0.787-1.502,1.506c-0.71,1.236-1.318,2.153-1.817,2.757c-0.498,0.602-1.08,1.131-1.748,1.574
				c-0.064,0.042-0.112,0.09-0.139,0.153c-0.022,0.052-0.03,0.104-0.022,0.168c0.017,0.137,0.087,0.233,0.215,0.286l9.995,4.146
				c0.128,0.053,0.245,0.033,0.354-0.05c0.045-0.043,0.078-0.09,0.1-0.142C17.401,19.673,17.403,19.608,17.389,19.538z M7.773,15.38
				c0.596-0.453,1.133-1,1.607-1.626c0.475-0.627,1.026-1.487,1.661-2.563c0.552-0.935,1.262-1.372,1.981-1.512
				c0.51-0.099,0.91-0.096,1.348-0.019c0.158,0.028,0.305-0.064,0.366-0.209l0.005-0.012c0.128-0.308,0.492-0.449,0.8-0.321
				c0.319,0.132,0.465,0.486,0.338,0.793l-0.005,0.012c-0.06,0.145-0.01,0.315,0.122,0.411c0.359,0.263,0.655,0.533,0.933,0.965
				c0.139,0.217,0.25,0.439,0.326,0.673c0.154,0.474,0.182,1.117,0.003,1.797c-0.318,1.208-0.532,2.201-0.638,2.98
				s-0.111,1.546-0.013,2.294L7.773,15.38z"/>
		</g>
	</g>
</g>
</svg>
