<?xml version="1.0" encoding="utf-8"?>
<!-- Generator: Adobe Illustrator 17.0.1, SVG Export Plug-In . SVG Version: 6.00 Build 0)  -->
<!DOCTYPE svg PUBLIC "-//W3C//DTD SVG 1.1//EN" "http://www.w3.org/Graphics/SVG/1.1/DTD/svg11.dtd">
<svg version="1.1" id="Layer_1" xmlns="http://www.w3.org/2000/svg" xmlns:xlink="http://www.w3.org/1999/xlink" x="0px" y="0px"
	 width="44.55px" height="60px" viewBox="0 0 39.493 51.284" enable-background="new 0 0 39.493 51.284" xml:space="preserve">
<g id="balance_2_" opacity="0.6">
</g>
<g id="balance_1_" opacity="0.6">
</g>
<g id="balance">
</g>
<g id="_x38_7_12_">
	<g>
		<path fill="#B2B2B2" d="M9.17,14.065c-1.77,0-1.77,2.75,0,2.75c7.051,0,14.1,0,21.151,0c1.772,0,1.772-2.75,0-2.75
			C23.271,14.065,16.221,14.065,9.17,14.065z"/>
		<path fill="#B2B2B2" d="M30.321,20.568c-7.051,0-14.1,0-21.151,0c-1.77,0-1.77,2.747,0,2.747c7.051,0,14.1,0,21.151,0
			C32.095,23.315,32.095,20.568,30.321,20.568z"/>
		<path fill="#B2B2B2" d="M30.321,26.59c-7.051,0-14.1,0-21.151,0c-1.77,0-1.77,2.747,0,2.747c7.051,0,14.1,0,21.151,0
			C32.095,29.337,32.095,26.59,30.321,26.59z"/>
		<path fill="#B2B2B2" d="M30.321,33.091c-7.051,0-14.1,0-21.151,0c-1.77,0-1.77,2.746,0,2.746c7.051,0,14.1,0,21.151,0
			C32.095,35.837,32.095,33.091,30.321,33.091z"/>
		<path fill="#B2B2B2" d="M29.916,39.226c-7.052,0-14.104,0-21.154,0c-1.769,0-1.769,2.747,0,2.747c7.049,0,14.102,0,21.154,0
			C31.685,41.973,31.685,39.226,29.916,39.226z"/>
		<path fill="#B2B2B2" d="M0,0v51.284h39.493V7.115L32.155,0L0,0z M36.079,47.87H3.416V3.415h26.981v5.417h5.681V47.87H36.079z"/>
	</g>
</g>
<g id="form">
</g>
<g id="New_Symbol">
</g>
</svg>
