<?xml version="1.0" encoding="utf-8"?>
<!-- Generator: Adobe Illustrator 17.0.1, SVG Export Plug-In . SVG Version: 6.00 Build 0)  -->
<!DOCTYPE svg PUBLIC "-//W3C//DTD SVG 1.1//EN" "http://www.w3.org/Graphics/SVG/1.1/DTD/svg11.dtd">
<svg version="1.1" id="Layer_1" xmlns="http://www.w3.org/2000/svg" xmlns:xlink="http://www.w3.org/1999/xlink" x="0px" y="0px"
	 width="267.093px" height="64.392px" viewBox="0 0 267.093 64.392" enable-background="new 0 0 267.093 64.392"
	 xml:space="preserve">
<g>
	<g>
		<path fill="#2DADE3" d="M204.692,24.512c0-4.603-0.004-9.205,0.006-13.808c0.001-0.53,0.071-1.061,0.147-1.587
			c0.016-0.11,0.184-0.242,0.308-0.283c0.213-0.069,0.448-0.102,0.673-0.102c2.762-0.007,5.523-0.007,8.285-0.004
			c0.229,0,0.474-0.009,0.682,0.067c0.198,0.072,0.427,0.213,0.521,0.389c0.215,0.403,0.375,0.838,0.525,1.272
			c1.951,5.653,3.898,11.306,5.839,16.962c0.347,1.012,0.652,2.038,1.001,3.049c0.038,0.109,0.237,0.167,0.37,0.23
			c0.016,0.007,0.105-0.094,0.128-0.156c0.105-0.286,0.202-0.575,0.294-0.866c0.302-0.95,0.579-1.908,0.903-2.851
			c1.817-5.293,3.643-10.584,5.474-15.873c0.2-0.578,0.435-1.145,0.68-1.706c0.129-0.296,0.385-0.478,0.716-0.491
			c0.613-0.023,1.227-0.031,1.84-0.031c2.148-0.003,4.296-0.006,6.444,0.003c1.221,0.005,1.39,0.055,1.39,1.487
			c0,0.23,0.001,0.46,0.001,0.69c0,9.129,0,18.257,0,27.386c0,0.384,0.003,0.767-0.01,1.151c-0.031,0.926-0.285,1.004-0.921,1.009
			c-1.839,0.012-3.679-0.018-5.519-0.04c-0.279-0.003-0.573-0.309-0.586-0.598c-0.028-0.612-0.06-1.224-0.059-1.836
			c0.007-6.52,0.02-13.041,0.031-19.561c0-0.23,0.014-0.462-0.008-0.69c-0.012-0.121-0.062-0.313-0.139-0.338
			c-0.173-0.057-0.266,0.07-0.322,0.236c-0.618,1.814-1.245,3.625-1.87,5.436c-1.775,5.146-3.55,10.292-5.326,15.437
			c-0.15,0.434-0.306,0.867-0.472,1.295c-0.149,0.383-0.414,0.637-0.848,0.652c-0.46,0.015-0.92,0.025-1.38,0.027
			c-0.767,0.004-1.534,0.009-2.301-0.001c-1.406-0.019-1.541,0.101-2.111-1.527c-1.494-4.27-3.03-8.525-4.536-12.79
			c-0.97-2.747-1.916-5.502-2.88-8.25c-0.017-0.048-0.128-0.068-0.198-0.092c-0.138-0.046-0.238,0.038-0.245,0.244
			c-0.017,0.458-0.024,0.918-0.023,1.377c0.011,6.444,0.026,12.887,0.034,19.331c0,0.381-0.006,0.773-0.094,1.14
			c-0.044,0.182-0.26,0.347-0.434,0.466c-0.115,0.079-0.294,0.085-0.444,0.086c-1.611,0.002-3.221,0.002-4.832-0.009
			c-0.404-0.003-0.682-0.306-0.698-0.745c-0.022-0.613-0.034-1.226-0.035-1.839C204.691,33.411,204.692,28.961,204.692,24.512z"/>
		<path fill="#2FADE2" d="M0.119,8.259c-0.19-2.524-0.112-5.049-0.045-7.574c0.008-0.293,0.3-0.599,0.57-0.616
			C1.101,0.04,1.559,0.003,2.017,0.003C17.113,0,32.208-0.001,47.304,0.003c1.918,0.001,1.933,0.014,1.934,1.887
			c0.005,12.414,0.004,24.827-0.001,37.241c0,0.457-0.06,0.915-0.092,1.372c-2.723-0.016-5.446-0.031-8.169-0.047
			c0.013-0.92,0.037-1.839,0.038-2.759c0.003-8.739,0.002-17.477,0.001-26.216c0-0.69,0.002-1.38-0.011-2.07
			C41,9.184,41.005,8.93,40.908,8.737c-0.089-0.178-0.289-0.342-0.478-0.419c-0.203-0.083-0.451-0.077-0.679-0.077
			c-3.219-0.003-6.439-0.002-9.658,0.003c-0.228,0-0.483-0.008-0.677,0.087c-0.18,0.087-0.397,0.295-0.419,0.471
			c-0.076,0.605-0.095,1.22-0.096,1.831c-0.008,3.219-0.001,6.439-0.007,9.659c-0.001,0.458-0.023,0.919-0.08,1.373
			c-0.013,0.105-0.201,0.248-0.322,0.262c-0.122,0.015-0.31-0.075-0.381-0.179c-0.125-0.183-0.183-0.412-0.269-0.622
			c-0.084-0.206-0.139-0.433-0.265-0.61c-0.053-0.074-0.346-0.096-0.377-0.046c-0.364,0.576-0.796,0.625-1.33,0.242
			c-0.186-0.133-0.397-0.232-0.599-0.342c-0.443-0.241-0.878-0.212-1.307,0.041c-0.659,0.39-1.314,0.79-1.982,1.164
			c-0.263,0.147-0.551,0.264-0.841,0.339c-0.096,0.024-0.33-0.116-0.342-0.204c-0.065-0.452-0.106-0.911-0.107-1.367
			c-0.008-3.219-0.001-6.439-0.007-9.659c-0.001-0.612-0.034-1.224-0.064-1.835c-0.013-0.274-0.317-0.537-0.62-0.565
			c-0.152-0.014-0.304-0.042-0.456-0.042c-3.756,0.011-7.511,0.026-11.267,0.04C5.558,8.276,2.839,8.268,0.119,8.259z"/>
		<path fill="#2793B0" d="M40.976,40.456c2.723,0.016,5.446,0.031,8.169,0.047c0.203,2.447,0.073,4.896,0.073,7.345
			c0,0.267-0.32,0.585-0.593,0.597c-0.459,0.02-0.917,0.051-1.376,0.051c-15.013-0.001-30.026-0.004-45.039-0.012
			c-0.535,0-1.069-0.042-1.604-0.076c-0.25-0.016-0.547-0.357-0.554-0.632c-0.016-0.689-0.029-1.378-0.029-2.067
			c-0.002-6.894-0.001-13.787-0.001-20.681c0-4.826-0.004-9.651,0.004-14.477c0.001-0.764,0.06-1.527,0.093-2.291
			c2.719,0.008,5.439,0.016,8.159,0.024c-0.011,1.38-0.033,2.76-0.033,4.139c-0.003,8.511-0.003,17.021,0.002,25.532
			c0,0.688,0.02,1.379,0.096,2.062c0.018,0.159,0.282,0.318,0.464,0.424c0.122,0.071,0.298,0.064,0.45,0.064
			c3.45,0.004,6.9,0.006,10.351,0.001c0.227,0,0.465-0.028,0.677-0.103c0.127-0.045,0.287-0.197,0.304-0.319
			c0.062-0.453,0.094-0.914,0.096-1.372c0.009-2.607,0.001-5.214,0.01-7.821c0.001-0.379,0.038-0.762,0.106-1.135
			c0.022-0.123,0.177-0.25,0.302-0.32c0.128-0.072,0.293-0.106,0.442-0.107c2.146-0.007,4.293-0.005,6.439-0.004
			c0.075,0,0.151,0.022,0.226,0.028c0.255,0.022,0.609,0.35,0.622,0.59c0.024,0.459,0.054,0.918,0.055,1.377
			c0.006,2.3,0,4.6,0.005,6.901c0.001,0.536,0.023,1.072,0.046,1.607c0.014,0.322,0.269,0.605,0.545,0.634
			c0.152,0.016,0.305,0.046,0.457,0.045C33.618,40.491,37.297,40.473,40.976,40.456z"/>
		<path fill="#2793B0" d="M129.809,24.527c0,4.524,0,9.049-0.001,13.573c0,0.46,0.001,0.92-0.014,1.38
			c-0.023,0.695-0.275,0.956-0.99,0.961c-1.84,0.012-3.681-0.004-5.521,0.006c-0.521,0.003-0.864-0.264-1.136-0.654
			c-0.351-0.503-0.683-1.019-1.02-1.532c-3.66-5.576-7.318-11.153-10.978-16.73c-0.168-0.256-0.338-0.512-0.507-0.768
			c-0.897-1.351-1.134-1.589-1.347-1.349c-0.469,0.53-0.215,1.156-0.216,1.731c-0.016,5.751-0.002,11.503-0.005,17.254
			c0,0.534-0.044,1.07-0.107,1.6c-0.014,0.121-0.184,0.233-0.298,0.33c-0.053,0.045-0.145,0.06-0.219,0.06
			c-1.837,0.008-3.675,0.015-5.512,0.013c-0.293,0-0.595-0.295-0.611-0.569c-0.027-0.458-0.061-0.917-0.061-1.375
			c-0.003-9.279-0.004-18.558,0.001-27.837c0-0.458,0.007-0.924,0.09-1.371c0.032-0.175,0.277-0.316,0.439-0.457
			c0.05-0.044,0.147-0.047,0.222-0.047c2.147-0.007,4.293-0.013,6.44-0.014c0.324,0,0.599,0.139,0.785,0.403
			c0.397,0.563,0.79,1.13,1.167,1.707c3.684,5.652,7.363,11.307,11.05,16.957c0.333,0.511,0.716,0.99,1.087,1.476
			c0.022,0.028,0.142-0.006,0.21-0.029c0.063-0.021,0.166-0.061,0.169-0.099c0.036-0.456,0.078-0.914,0.078-1.371
			c0.003-5.675-0.003-11.35,0.002-17.024c0.001-0.533,0.047-1.068,0.112-1.597c0.014-0.118,0.189-0.225,0.305-0.319
			c0.055-0.044,0.144-0.063,0.218-0.064c1.837-0.005,3.675-0.01,5.512-0.005c0.291,0.001,0.588,0.298,0.598,0.579
			c0.025,0.689,0.054,1.378,0.055,2.067C129.811,15.785,129.809,20.156,129.809,24.527z"/>
		<path fill="#2793B0" d="M144.586,8.737c1.762,0,3.524-0.014,5.286,0.004c1.927,0.02,3.816,0.331,5.656,0.887
			c0.876,0.265,1.744,0.59,2.565,0.993c2.647,1.297,4.558,3.318,5.734,6.026c0.615,1.416,0.965,2.901,1.176,4.426
			c0.361,2.608,0.313,5.209-0.333,7.76c-1.348,5.321-4.713,8.832-9.856,10.638c-1.738,0.611-3.557,0.953-5.408,0.965
			c-3.83,0.026-7.66,0.01-11.49,0.006c-0.149,0-0.312-0.023-0.444-0.087c-0.124-0.059-0.292-0.175-0.308-0.285
			c-0.075-0.525-0.144-1.056-0.145-1.585c-0.008-9.269-0.007-18.539-0.004-27.808c0-0.459,0.028-0.918,0.053-1.376
			c0.013-0.244,0.358-0.554,0.623-0.562c0.459-0.014,0.919-0.024,1.378-0.025c1.839-0.003,3.677-0.001,5.516-0.001
			C144.586,8.721,144.586,8.729,144.586,8.737z M144.152,24.584c0,2.449-0.002,4.898,0.001,7.347
			c0.001,0.612,0.009,1.224,0.028,1.836c0.014,0.45,0.28,0.769,0.677,0.77c1.453,0.006,2.918,0.11,4.356-0.036
			c3.865-0.395,6.506-2.433,7.798-6.141c0.645-1.851,0.651-3.761,0.487-5.675c-0.329-3.838-2.559-6.564-6.241-7.644
			c-0.654-0.192-1.343-0.33-2.022-0.364c-1.374-0.069-2.753-0.053-4.13-0.062c-0.149-0.001-0.326,0.016-0.44,0.096
			c-0.174,0.122-0.401,0.289-0.433,0.467c-0.079,0.448-0.077,0.913-0.078,1.371C144.15,19.227,144.153,21.906,144.152,24.584z"/>
		<path fill="#2DADE3" d="M168.476,25.058c-0.1-2.557,0.237-4.746,1.014-6.857c1.086-2.953,2.834-5.412,5.418-7.262
			c1.393-0.997,2.912-1.714,4.553-2.144c2.941-0.769,5.921-0.836,8.882-0.149c4.857,1.127,8.111,4.164,9.967,8.716
			c1.12,2.747,1.372,5.649,1.173,8.591c-0.13,1.923-0.451,3.819-1.206,5.599c-2.444,5.756-6.78,8.933-13.039,9.396
			c-1.067,0.079-2.152,0.067-3.219-0.02c-5.027-0.409-8.828-2.847-11.435-7.126c-1.341-2.2-2.019-4.629-2.105-7.211
			C168.459,25.978,168.476,25.364,168.476,25.058z M191.916,24.661c0-0.535,0.042-1.074-0.008-1.604
			c-0.164-1.765-0.565-3.467-1.454-5.026c-0.381-0.668-0.829-1.282-1.399-1.806c-2.835-2.605-7.245-2.317-9.697-0.232
			c-0.824,0.701-1.491,1.526-2.016,2.476c-0.754,1.364-1.104,2.848-1.303,4.368c-0.325,2.473-0.069,4.907,0.919,7.194
			c1.134,2.625,3.088,4.311,6.01,4.746c1.012,0.151,1.977,0.004,2.951-0.214c1.802-0.403,3.213-1.378,4.233-2.912
			c0.639-0.962,1.097-2.002,1.381-3.129C191.852,27.251,192.004,25.969,191.916,24.661z"/>
		<path fill="#2DADE3" d="M248.006,24.372c0-4.292-0.002-8.585,0.002-12.877c0.001-0.689,0.016-1.379,0.041-2.068
			c0.016-0.425,0.287-0.661,0.754-0.68c0.383-0.016,0.766-0.022,1.149-0.023c4.829-0.001,9.658-0.003,14.486,0.002
			c0.458,0,0.915,0.037,1.372,0.068c0.264,0.018,0.538,0.335,0.563,0.63c0.019,0.229,0.048,0.457,0.049,0.686
			c0.005,1.073,0.013,2.146-0.001,3.219c-0.014,1.093-0.209,1.279-1.393,1.284c-2.683,0.012-5.365,0.011-8.048,0.005
			c-1.612-0.003-1.698,0.212-1.709,1.693c-0.009,1.226-0.006,2.453,0.001,3.679c0.002,0.305,0.036,0.61,0.065,0.914
			c0.024,0.249,0.357,0.608,0.589,0.624c0.458,0.031,0.917,0.064,1.376,0.066c2.223,0.007,4.446-0.001,6.668,0.009
			c0.38,0.002,0.773,0.013,1.136,0.111c0.173,0.047,0.407,0.303,0.411,0.47c0.041,1.529,0.042,3.06,0.043,4.59
			c0,0.289-0.3,0.608-0.568,0.628c-0.457,0.034-0.916,0.069-1.374,0.071c-2.146,0.008-4.292-0.002-6.438,0.009
			c-0.457,0.002-0.921,0.029-1.369,0.115c-0.195,0.038-0.405,0.209-0.441,0.472c-0.01,0.075-0.056,0.148-0.056,0.222
			c-0.003,1.838-0.008,3.676,0.002,5.514c0.002,0.386,0.344,0.712,0.732,0.73c0.612,0.028,1.224,0.05,1.837,0.052
			c2.299,0.006,4.599,0,6.898,0.004c0.536,0.001,1.073,0.013,1.608,0.034c0.382,0.015,0.693,0.333,0.696,0.761
			c0.008,1.454,0.004,2.909-0.017,4.363c-0.006,0.428-0.298,0.673-0.749,0.693c-0.383,0.017-0.766,0.028-1.149,0.028
			c-5.059,0.002-10.118,0.002-15.176,0c-0.383,0-0.766-0.009-1.149-0.027c-0.523-0.024-0.786-0.304-0.811-0.896
			c-0.026-0.612-0.031-1.226-0.031-1.838C248.005,33.263,248.006,28.818,248.006,24.372z"/>
		<path fill="#2793B0" d="M63.365,24.427c0-4.526-0.002-9.052,0.003-13.578c0.001-0.536,0.014-1.074,0.07-1.606
			c0.023-0.215,0.179-0.421,0.44-0.458c0.226-0.032,0.454-0.066,0.682-0.066c5.293-0.004,10.587-0.006,15.88,0.001
			c0.302,0,0.611,0.046,0.903,0.122c0.124,0.032,0.221,0.19,0.314,0.305c0.044,0.054,0.065,0.141,0.065,0.213
			c0.002,1.531,0.004,3.062-0.006,4.593c-0.002,0.275-0.322,0.575-0.606,0.588c-0.535,0.025-1.071,0.05-1.606,0.051
			c-2.378,0.006-4.756-0.004-7.134,0.011c-0.453,0.003-0.908,0.075-1.355,0.154c-0.121,0.021-0.227,0.178-0.32,0.288
			c-0.045,0.053-0.064,0.144-0.065,0.218c-0.011,2.068-0.023,4.137-0.021,6.205c0,0.372,0.352,0.703,0.743,0.725
			c0.612,0.034,1.225,0.062,1.837,0.064c1.995,0.008,3.989-0.001,5.984,0.007c0.381,0.002,0.772,0.007,1.139,0.096
			c0.183,0.044,0.422,0.258,0.457,0.431c0.09,0.445,0.101,0.91,0.105,1.367c0.03,3.362,0.014,3.684-0.317,3.799
			c-1.192,0.413-2.428,0.145-3.643,0.184c-1.533,0.049-3.068,0.006-4.602,0.019c-0.38,0.003-0.771,0.028-1.135,0.126
			c-0.187,0.05-0.422,0.261-0.464,0.44c-0.104,0.442-0.146,0.907-0.148,1.363c-0.013,2.608-0.005,5.217-0.009,7.825
			c-0.001,0.613-0.015,1.227-0.039,1.839c-0.017,0.429-0.284,0.681-0.745,0.682c-1.918,0.006-3.835,0.001-5.753-0.006
			c-0.267-0.001-0.588-0.317-0.599-0.585c-0.025-0.612-0.051-1.225-0.051-1.838C63.363,33.48,63.365,28.954,63.365,24.427z"/>
		<path fill="#2793B0" d="M94.12,24.644c0,4.6,0.005,9.2-0.007,13.799c-0.001,0.529-0.084,1.06-0.166,1.584
			c-0.018,0.117-0.183,0.219-0.294,0.311c-0.055,0.046-0.142,0.076-0.214,0.076c-1.915,0.005-3.831,0.01-5.746,0.003
			c-0.399-0.002-0.701-0.325-0.718-0.734c-0.019-0.459-0.027-0.919-0.027-1.379c-0.001-9.123-0.002-18.246,0.001-27.369
			c0-0.535,0.033-1.071,0.06-1.605c0.014-0.276,0.312-0.548,0.607-0.57c0.229-0.017,0.458-0.043,0.687-0.044
			c1.073-0.005,2.147-0.011,3.22-0.003c2.803,0.02,2.594-0.304,2.596,2.591C94.123,15.751,94.12,20.198,94.12,24.644z"/>
		<path fill="#C1C0C0" d="M207.148,59.192c0,1.3,0.011,2.6-0.011,3.899c-0.004,0.21-0.146,0.421-0.245,0.621
			c-0.016,0.032-0.143,0.016-0.218,0.009c-0.069-0.006-0.185-0.013-0.196-0.047c-0.095-0.282-0.234-0.569-0.24-0.857
			c-0.031-1.682-0.034-3.364-0.035-5.046c0-0.219-0.061-0.305-0.271-0.243c-0.064,0.019-0.149,0.05-0.175,0.101
			c-0.31,0.611-0.617,1.224-0.914,1.841c-0.663,1.374-1.316,2.753-1.982,4.126c-0.121,0.25-0.639,0.269-0.79,0.036
			c-0.206-0.319-0.421-0.636-0.587-0.976c-0.739-1.511-1.457-3.031-2.2-4.539c-0.045-0.092-0.247-0.106-0.376-0.157
			c-0.022,0.073-0.062,0.146-0.063,0.219c-0.02,1.528-0.026,3.056-0.062,4.584c-0.007,0.293-0.121,0.585-0.201,0.873
			c-0.046,0.164-0.399,0.289-0.585,0.189c-0.124-0.067-0.271-0.162-0.32-0.281c-0.085-0.205-0.139-0.438-0.14-0.659
			c-0.01-2.524-0.008-5.047-0.004-7.571c0-0.151-0.003-0.328,0.07-0.446c0.114-0.182,0.267-0.4,0.45-0.46
			c0.189-0.062,0.463-0.005,0.647,0.096c0.188,0.103,0.36,0.3,0.455,0.496c0.668,1.374,1.316,2.758,1.966,4.14
			c0.324,0.69,0.63,1.389,0.969,2.072c0.05,0.101,0.239,0.198,0.352,0.186c0.13-0.014,0.299-0.124,0.361-0.24
			c0.248-0.471,0.46-0.961,0.687-1.444c0.748-1.59,1.491-3.182,2.254-4.764c0.093-0.193,0.289-0.341,0.451-0.496
			c0.154-0.148,0.754-0.011,0.807,0.179c0.061,0.218,0.154,0.439,0.156,0.66c0.015,1.3,0.007,2.6,0.007,3.9
			C207.159,59.192,207.154,59.192,207.148,59.192z"/>
		<path fill="#C1C0C0" d="M115.164,59.103c0.029-1.378,0.048-2.756,0.093-4.134c0.014-0.428,0.603-0.759,1.053-0.608
			c0.212,0.071,0.448,0.155,0.596,0.308c0.316,0.328,0.607,0.687,0.864,1.063c0.95,1.389,1.876,2.794,2.824,4.185
			c0.301,0.441,0.64,0.857,0.97,1.277c0.033,0.042,0.128,0.046,0.194,0.05c0.18,0.009,0.246-0.094,0.246-0.295
			c0.003-1.685,0.004-3.371,0.025-5.056c0.005-0.377,0.077-0.753,0.126-1.128c0.019-0.144,0.391-0.418,0.527-0.352
			c0.191,0.094,0.405,0.227,0.503,0.403c0.104,0.186,0.112,0.441,0.113,0.666c0.008,2.452,0.013,4.904,0.001,7.356
			c-0.001,0.297-0.054,0.616-0.176,0.882c-0.083,0.18-0.314,0.315-0.507,0.414c-0.228,0.116-0.447-0.006-0.627-0.156
			c-0.116-0.097-0.218-0.216-0.304-0.34c-1.218-1.76-2.433-3.523-3.648-5.285c-0.862-1.25-1.19-1.583-1.354-1.366
			c-0.409,0.544-0.174,1.165-0.191,1.745c-0.044,1.455-0.014,2.911-0.023,4.367c-0.001,0.227-0.02,0.464-0.091,0.676
			c-0.04,0.12-0.19,0.216-0.31,0.293c-0.169,0.109-0.514-0.013-0.588-0.203c-0.108-0.279-0.259-0.567-0.265-0.855
			c-0.028-1.302-0.012-2.605-0.012-3.908C115.189,59.103,115.177,59.103,115.164,59.103z"/>
		<path fill="#C1C0C0" d="M186.483,58.878c-0.138-1.677,0.686-3.035,2.054-4.024c1.07-0.774,2.303-1.134,3.689-0.802
			c1.735,0.415,2.812,1.471,3.364,3.122c0.121,0.363,0.23,0.732,0.311,1.106c0.064,0.297,0.133,0.612,0.1,0.907
			c-0.148,1.309-0.507,2.546-1.341,3.607c-1.195,1.52-4.399,2.388-6.38,0.459c-0.551-0.536-1.071-1.084-1.413-1.794
			C186.483,60.664,186.463,59.833,186.483,58.878z M187.76,59.197c0.031,0.456,0.013,0.921,0.101,1.365
			c0.223,1.121,0.845,1.963,1.944,2.349c0.882,0.31,1.801,0.261,2.702,0.044c0.212-0.051,0.414-0.193,0.591-0.331
			c1.093-0.85,1.606-1.964,1.634-3.36c0.03-1.478-0.451-2.678-1.608-3.605c-0.305-0.245-0.643-0.408-1.034-0.44
			c-0.303-0.025-0.61-0.015-0.912-0.043c-1.105-0.103-1.9,0.428-2.548,1.246C187.989,57.234,187.704,58.162,187.76,59.197z"/>
		<path fill="#C1C0C0" d="M154.671,59.262c0,0.305,0.004,0.61-0.001,0.914c-0.022,1.402-0.649,2.538-1.761,3.304
			c-1.157,0.798-2.502,1.157-3.908,0.729c-0.647-0.197-1.245-0.564-1.849-0.885c-0.194-0.103-0.389-0.274-0.493-0.463
			c-0.366-0.665-0.836-1.318-1.008-2.037c-0.463-1.933-0.198-3.784,1.021-5.426c0.09-0.121,0.195-0.242,0.319-0.324
			c0.768-0.503,1.558-1,2.481-1.114c1.926-0.237,4.072,0.631,4.872,2.609c0.174,0.43,0.316,0.857,0.323,1.321
			c0.007,0.457,0.001,0.914,0.001,1.372C154.669,59.262,154.67,59.262,154.671,59.262z M146.762,59.109
			c0.028,0.467,0.023,0.929,0.089,1.381c0.213,1.452,1.338,2.5,2.782,2.593c0.456,0.029,0.916,0.003,1.373-0.017
			c0.478-0.021,0.876-0.237,1.231-0.547c0.527-0.46,0.874-1.01,1.142-1.675c0.562-1.393,0.356-2.705-0.234-3.991
			c-0.325-0.708-0.875-1.296-1.633-1.523c-0.886-0.265-1.82-0.265-2.706,0.053c-1.102,0.396-1.717,1.241-1.938,2.365
			C146.781,58.195,146.794,58.661,146.762,59.109z"/>
		<path fill="#C1C0C0" d="M177.326,59.152c0-1.15-0.008-2.299,0.005-3.448c0.004-0.301,0.021-0.623,0.132-0.895
			c0.071-0.174,0.321-0.373,0.498-0.38c0.173-0.006,0.442,0.181,0.511,0.348c0.112,0.27,0.115,0.593,0.129,0.895
			c0.032,0.688,0.033,1.377,0.065,2.065c0.018,0.376,0.362,0.687,0.77,0.705c0.536,0.023,1.072,0.037,1.608,0.036
			c2.722-0.005,2.659,0.203,2.655-2.596c-0.001-0.376,0.075-0.753,0.123-1.129c0.019-0.147,0.399-0.411,0.533-0.339
			c0.189,0.101,0.397,0.24,0.494,0.419c0.102,0.188,0.109,0.443,0.11,0.668c0.006,2.452,0.011,4.905-0.009,7.357
			c-0.002,0.288-0.131,0.589-0.259,0.855c-0.045,0.095-0.267,0.152-0.402,0.143c-0.132-0.009-0.311-0.094-0.372-0.201
			c-0.109-0.19-0.19-0.42-0.202-0.638c-0.047-0.84-0.053-1.683-0.092-2.523c-0.017-0.363-0.384-0.702-0.77-0.715
			c-0.766-0.025-1.532-0.044-2.298-0.039c-1.864,0.013-1.906,0.066-1.951,1.934c-0.015,0.609-0.035,1.222-0.125,1.823
			c-0.022,0.149-0.315,0.335-0.504,0.361c-0.207,0.029-0.454-0.111-0.514-0.36c-0.071-0.293-0.127-0.597-0.131-0.898
			C177.318,61.451,177.326,60.301,177.326,59.152z"/>
		<path fill="#C1C0C0" d="M125.309,59.108c0-1.15-0.004-2.299,0.003-3.449c0.001-0.228,0.045-0.456,0.074-0.683
			c0.036-0.28,0.329-0.613,0.596-0.615c1.299-0.013,2.618-0.149,3.894,0.025c1.529,0.209,2.622,1.128,3.173,2.649
			c0.466,1.287,0.497,2.543-0.015,3.807c-0.717,1.771-1.987,2.862-3.91,3.126c-0.227,0.031-0.459,0.029-0.689,0.028
			c-3.331-0.01-3.136,0.371-3.131-3.049c0.001-0.613,0-1.226,0-1.839C125.306,59.108,125.307,59.108,125.309,59.108z
			 M126.611,59.059c0.004,0,0.008,0,0.012,0c0,1.066-0.009,2.132,0.005,3.198c0.005,0.416,0.323,0.709,0.702,0.764
			c1.099,0.161,2.132-0.088,3.097-0.568c0.39-0.194,0.752-0.537,1.006-0.898c0.852-1.212,0.883-2.574,0.49-3.939
			c-0.315-1.096-1.09-1.801-2.166-2.188c-0.741-0.267-1.501-0.207-2.26-0.177c-0.546,0.021-0.872,0.317-0.881,0.837
			C126.599,57.078,126.611,58.069,126.611,59.059z"/>
		<path fill="#C1C0C0" d="M165.771,59.041c0-1.298-0.011-2.597,0.005-3.895c0.006-0.498,0.362-0.822,0.9-0.834
			c0.84-0.019,1.682-0.047,2.519,0.001c1.84,0.105,2.967,1.977,2.198,3.648c-0.187,0.406-0.472,0.778-0.765,1.121
			c-0.596,0.696-0.644,0.777-0.156,1.512c0.593,0.893,1.148,1.801,1.487,2.822c0.035,0.104-0.054,0.3-0.148,0.383
			c-0.099,0.088-0.275,0.133-0.412,0.124c-0.323-0.023-0.587-0.209-0.74-0.478c-0.414-0.73-0.772-1.493-1.202-2.213
			c-0.23-0.385-0.535-0.738-0.857-1.052c-0.285-0.278-0.674-0.353-1.062-0.211c-0.13,0.048-0.281,0.151-0.335,0.269
			c-0.093,0.2-0.155,0.43-0.163,0.651c-0.028,0.687-0.011,1.375-0.041,2.062c-0.01,0.219-0.107,0.434-0.171,0.65
			c-0.053,0.179-0.347,0.319-0.57,0.242c-0.13-0.045-0.301-0.14-0.338-0.252c-0.094-0.282-0.165-0.586-0.169-0.882
			c-0.018-1.222-0.008-2.445-0.008-3.667C165.753,59.041,165.762,59.041,165.771,59.041z M166.675,56.948
			c0.032,0.433,0.06,0.887,0.1,1.34c0.023,0.26,0.344,0.556,0.63,0.564c0.454,0.012,0.914,0.043,1.363-0.011
			c0.908-0.109,1.56-0.941,1.58-1.929c0.017-0.836-0.337-1.449-1.537-1.629c-0.512-0.077-1.053,0.01-1.578,0.053
			c-0.253,0.02-0.397,0.243-0.439,0.46C166.723,56.166,166.713,56.548,166.675,56.948z"/>
		<path fill="#C1C0C0" d="M209.514,59.157c0-1.304-0.009-2.608,0.005-3.911c0.006-0.528,0.352-0.917,0.818-0.928
			c1.221-0.028,2.446-0.154,3.66,0.09c0.184,0.037,0.274,0.176,0.218,0.338c-0.044,0.127-0.122,0.309-0.221,0.336
			c-0.289,0.081-0.595,0.114-0.896,0.134c-0.534,0.036-1.071,0.041-1.606,0.073c-0.287,0.017-0.611,0.312-0.631,0.571
			c-0.035,0.457-0.08,0.915-0.076,1.372c0.009,0.949,0.26,1.186,1.233,1.251c0.531,0.035,1.062,0.083,1.592,0.134
			c0.151,0.014,0.418,0.392,0.346,0.528c-0.1,0.19-0.251,0.464-0.413,0.489c-0.677,0.107-1.367,0.129-2.052,0.192
			c-0.283,0.026-0.591,0.323-0.627,0.586c-0.031,0.227-0.076,0.454-0.082,0.682c-0.05,1.826,0.052,1.926,1.898,1.966
			c0.536,0.011,1.071,0.037,1.607,0.063c0.179,0.009,0.439,0.333,0.387,0.495c-0.044,0.138-0.111,0.284-0.211,0.383
			c-0.104,0.103-0.253,0.201-0.392,0.22c-1.22,0.163-2.444,0.144-3.666,0.02c-0.432-0.044-0.86-0.499-0.865-0.944
			c-0.016-1.38-0.006-2.76-0.006-4.14C209.527,59.157,209.521,59.157,209.514,59.157z"/>
		<path fill="#C1C0C0" d="M163.773,57.54c0.054,1.381-0.028,2.743-0.345,4.1c-0.187,0.802-0.602,1.41-1.21,1.889
			c-2.145,1.691-4.553,0.576-5.473-1.165c-0.137-0.26-0.206-0.586-0.208-0.883c-0.013-2.143-0.003-4.286,0.012-6.429
			c0.001-0.137,0.102-0.28,0.179-0.408c0.028-0.047,0.117-0.062,0.182-0.083c0.182-0.059,0.325-0.007,0.367,0.164
			c0.071,0.291,0.161,0.588,0.164,0.884c0.019,1.455,0.018,2.91,0.014,4.365c-0.001,0.544,0.094,1.059,0.316,1.56
			c0.559,1.26,1.373,1.72,2.742,1.525c0.483-0.069,0.857-0.324,1.154-0.688c0.551-0.675,0.829-1.451,0.825-2.33
			c-0.006-1.378-0.005-2.757,0.011-4.135c0.004-0.378,0.068-0.755,0.111-1.132c0.017-0.151,0.378-0.428,0.521-0.361
			c0.193,0.089,0.406,0.222,0.507,0.397c0.107,0.184,0.12,0.438,0.124,0.663C163.782,56.162,163.773,56.851,163.773,57.54z"/>
		<path fill="#C1C0C0" d="M144.797,54.746c-0.032,0.147-0.034,0.309-0.1,0.439c-0.659,1.295-1.288,2.608-2.013,3.865
			c-0.362,0.626-0.546,1.248-0.542,1.952c0.004,0.612,0.003,1.225-0.017,1.836c-0.007,0.224-0.059,0.451-0.125,0.667
			c-0.074,0.244-0.311,0.383-0.521,0.35c-0.191-0.03-0.487-0.209-0.509-0.355c-0.088-0.601-0.119-1.215-0.113-1.824
			c0.007-0.706-0.138-1.358-0.462-1.986c-0.562-1.087-1.101-2.187-1.646-3.282c-0.17-0.342-0.337-0.687-0.492-1.037
			c-0.189-0.425-0.062-0.865,0.264-0.964c0.34-0.103,0.7,0.073,0.91,0.511c0.363,0.757,0.681,1.535,1.042,2.293
			c0.163,0.341,0.379,0.657,0.579,0.98c0.097,0.156,0.51,0.151,0.601-0.01c0.411-0.73,0.809-1.468,1.223-2.197
			c0.264-0.463,0.52-0.936,0.837-1.361c0.115-0.153,0.394-0.197,0.608-0.259C144.51,54.309,144.836,54.59,144.797,54.746z"/>
		<path fill="#C1C0C0" d="M105.466,59.228c0-1.373-0.008-2.746,0.005-4.119c0.004-0.396,0.339-0.767,0.702-0.769
			c1.218-0.009,2.436-0.001,3.654,0.024c0.108,0.002,0.224,0.167,0.314,0.274c0.108,0.128-0.118,0.489-0.315,0.508
			c-0.303,0.029-0.606,0.059-0.91,0.073c-0.457,0.021-0.915,0.02-1.372,0.045c-0.396,0.022-0.759,0.343-0.777,0.701
			c-0.026,0.532-0.041,1.065-0.027,1.597c0.013,0.514,0.357,0.883,0.831,0.915c0.532,0.036,1.067,0.041,1.599,0.078
			c0.145,0.01,0.285,0.09,0.429,0.131c0.17,0.048,0.34,0.357,0.268,0.559c-0.047,0.132-0.138,0.317-0.244,0.346
			c-0.36,0.097-0.734,0.144-1.105,0.193c-0.451,0.06-0.908,0.084-1.354,0.167c-0.121,0.023-0.27,0.186-0.306,0.313
			c-0.082,0.29-0.13,0.595-0.143,0.897c-0.026,0.61-0.003,1.222-0.036,1.831c-0.012,0.217-0.119,0.431-0.194,0.642
			c-0.057,0.161-0.391,0.282-0.585,0.191c-0.125-0.058-0.285-0.16-0.319-0.275c-0.085-0.286-0.143-0.59-0.147-0.888
			c-0.016-1.145-0.006-2.289-0.006-3.434C105.441,59.228,105.453,59.228,105.466,59.228z"/>
		<path fill="#C1C0C0" d="M113.179,59.329c0,1.294,0.01,2.589-0.01,3.883c-0.003,0.21-0.116,0.436-0.232,0.621
			c-0.07,0.111-0.245,0.211-0.374,0.213c-0.128,0.002-0.284-0.101-0.381-0.202c-0.099-0.103-0.198-0.26-0.199-0.394
			c-0.014-2.815-0.016-5.63-0.008-8.444c0-0.136,0.089-0.299,0.187-0.401c0.096-0.101,0.256-0.19,0.389-0.192
			c0.133-0.002,0.322,0.076,0.389,0.181c0.118,0.183,0.225,0.413,0.228,0.625c0.02,1.37,0.01,2.741,0.01,4.112
			C113.178,59.329,113.179,59.329,113.179,59.329z"/>
		<path fill="#2793B0" d="M25.707,25.434c-0.005,0.632-0.279,0.854-1.044,0.846c-0.54-0.006-0.79-0.276-0.791-0.856
			c-0.001-0.736,0.23-0.979,0.919-0.97C25.482,24.463,25.712,24.709,25.707,25.434z"/>
	</g>
</g>
</svg>
