<?xml version="1.0" encoding="utf-8"?>
<!-- Generator: Adobe Illustrator 17.0.1, SVG Export Plug-In . SVG Version: 6.00 Build 0)  -->
<!DOCTYPE svg PUBLIC "-//W3C//DTD SVG 1.1//EN" "http://www.w3.org/Graphics/SVG/1.1/DTD/svg11.dtd">
<svg version="1.1" xmlns="http://www.w3.org/2000/svg" xmlns:xlink="http://www.w3.org/1999/xlink" x="0px" y="0px"
	 width="124.20px" height="20px" viewBox="0 0 175.598 28.26" enable-background="new 0 0 175.598 28.26" xml:space="preserve">
<g id="HP">
</g>
<g id="base_x5F_layer">
	<g opacity="0.7">
		<path fill="#E6E6E6" d="M15.797,5.469H6.155v6.708h8.861v4.993H6.155v10.614H0V0.457h15.797V5.469z"/>
		<path fill="#E6E6E6" d="M26.449,27.783h-6.155V0.457h6.155V27.783z"/>
		<path fill="#E6E6E6" d="M57.243,27.783h-6.212L39.769,10.614c-0.661-1.003-1.118-1.759-1.372-2.268h-0.076
			c0.102,0.966,0.153,2.439,0.153,4.421v15.016h-5.812V0.457h6.631l10.843,16.636c0.495,0.75,0.953,1.493,1.372,2.229h0.076
			c-0.102-0.635-0.152-1.887-0.152-3.754V0.457h5.812V27.783z"/>
		<path fill="#E6E6E6" d="M63.494,27.783V0.457h9.68c9.706,0,14.559,4.44,14.559,13.32c0,4.256-1.324,7.654-3.973,10.195
			c-2.649,2.541-6.177,3.811-10.585,3.811H63.494z M69.649,5.469v17.322h3.049c2.668,0,4.761-0.8,6.279-2.401
			c1.518-1.601,2.277-3.779,2.277-6.536c0-2.604-0.753-4.653-2.258-6.145c-1.505-1.493-3.618-2.239-6.336-2.239H69.649z"/>
		<path fill="#CCCCCC" d="M103.816,28.26c-3.913,0-7.102-1.274-9.566-3.821c-2.465-2.547-3.697-5.866-3.697-9.957
			c0-4.319,1.251-7.813,3.754-10.481C96.809,1.334,100.125,0,104.254,0c3.9,0,7.054,1.277,9.461,3.83
			c2.407,2.553,3.611,5.92,3.611,10.099c0,4.294-1.248,7.756-3.744,10.385C111.085,26.945,107.83,28.26,103.816,28.26z
			 M104.082,5.298c-2.16,0-3.875,0.81-5.145,2.43c-1.271,1.62-1.906,3.764-1.906,6.431c0,2.706,0.635,4.847,1.906,6.422
			c1.27,1.575,2.935,2.363,4.993,2.363c2.121,0,3.805-0.765,5.05-2.296c1.245-1.531,1.868-3.655,1.868-6.374
			c0-2.833-0.604-5.037-1.81-6.612C107.83,6.085,106.178,5.298,104.082,5.298z"/>
		<path fill="#CCCCCC" d="M152.998,27.783h-6.079v-16.35c0-1.766,0.076-3.716,0.229-5.85h-0.152
			c-0.318,1.677-0.604,2.884-0.858,3.621l-6.403,18.579h-5.031l-6.517-18.389c-0.178-0.495-0.464-1.766-0.858-3.811h-0.171
			c0.165,2.693,0.248,5.056,0.248,7.089v15.111h-5.545V0.457h9.013l5.583,16.197c0.445,1.296,0.769,2.598,0.972,3.906h0.114
			c0.343-1.512,0.705-2.826,1.086-3.945l5.583-16.159h8.785V27.783z"/>
		<path fill="#CCCCCC" d="M175.598,27.783H159.21V0.457h15.759v5.012h-9.604v6.079h8.937v4.993h-8.937v6.25h10.233V27.783z"/>
	</g>
</g>
<g id="help">
</g>
</svg>
