<?xml version="1.0" encoding="utf-8"?>
<!-- Generator: Adobe Illustrator 17.0.1, SVG Export Plug-In . SVG Version: 6.00 Build 0)  -->
<!DOCTYPE svg PUBLIC "-//W3C//DTD SVG 1.0//EN" "http://www.w3.org/TR/2001/REC-SVG-20010904/DTD/svg10.dtd">
<svg version="1.0" id="Layer_1" xmlns="http://www.w3.org/2000/svg" xmlns:xlink="http://www.w3.org/1999/xlink" x="0px" y="0px"
	 width="20px" height="20px" viewBox="0 0 15.293 15.683" enable-background="new 0 0 15.293 15.683" xml:space="preserve">
<g>
	<path fill="#8CC63F" d="M15.27,7.968c-0.127-0.825-0.73-1.524-1.651-1.81c-0.476-0.159-1.333-0.349-2-0.508
		c1.238-1.778,1.46-3.587,1.016-4.635C12.349,0.381,11.841,0,11.175,0C9.746,0,9.524,1.302,9.206,2.19
		C8.984,2.857,7.873,4.064,6.222,4.984C4.984,5.683,3.81,6.603,3.746,6.635c-0.159,0.127-0.254,0.317-0.254,0.54v6.667
		c0,0.222,0.095,0.413,0.286,0.54c0.984,0.698,4.508,1.302,6.254,1.302c0.921,0,1.27-0.159,1.46-0.254
		c0.794-0.444,1.841-2.952,2.603-5.079C14.984,9.683,15.397,8.825,15.27,7.968z M13.111,9.333c-0.127,0.095-0.19,0.222-0.254,0.349
		c-0.698,1.905-1.683,4.159-2.064,4.54c-0.063,0.032-0.254,0.095-0.762,0.095c-1.651,0-4.191-0.508-5.143-0.889V7.524
		c0.413-0.317,1.206-0.889,2-1.333c1.778-1.016,3.27-2.413,3.651-3.556c0.032-0.127,0.063-0.286,0.095-0.413
		c0.286-0.857,0.349-0.857,0.54-0.857c0.063,0,0.127,0,0.222,0.19c0.286,0.667,0.032,2.381-1.492,4.032
		C9.524,6,9.778,6.635,10.254,6.73c0.032,0,2.095,0.476,2.952,0.73c0.413,0.127,0.667,0.413,0.698,0.698
		C13.968,8.54,13.651,8.952,13.111,9.333z"/>
	<path fill="#8CC63F" d="M1.111,5.968C0.476,5.968,0,6.445,0,7.079v6.825c0,0.635,0.476,1.111,1.111,1.111s1.143-0.476,1.143-1.111
		V7.079C2.254,6.445,1.746,5.968,1.111,5.968z"/>
</g>
</svg>
