<?xml version="1.0" encoding="utf-8"?>
<!-- Generator: Adobe Illustrator 17.0.1, SVG Export Plug-In . SVG Version: 6.00 Build 0)  -->
<!DOCTYPE svg PUBLIC "-//W3C//DTD SVG 1.1//EN" "http://www.w3.org/Graphics/SVG/1.1/DTD/svg11.dtd">
<svg version="1.1" id="Слой_1" xmlns="http://www.w3.org/2000/svg" xmlns:xlink="http://www.w3.org/1999/xlink" x="0px" y="0px"
	 width="36.685px" height="36.685px" viewBox="3.95 -140.576 36.685 36.685" enable-background="new 3.95 -140.576 36.685 36.685"
	 xml:space="preserve">
<g>
	<g>
		<circle fill="#FFFFFF" cx="22.293" cy="-122.233" r="18.027"/>
		<path fill="#4D4D4D" d="M22.293-103.89c-10.114,0-18.343-8.228-18.343-18.343s8.228-18.343,18.343-18.343
			s18.343,8.228,18.343,18.343S32.407-103.89,22.293-103.89z M22.293-139.944c-9.766,0-17.712,7.945-17.712,17.712
			s7.945,17.712,17.712,17.712c9.766,0,17.712-7.945,17.712-17.712S32.058-139.944,22.293-139.944z"/>
	</g>
	<g>
		<path fill="#4D4D4D" d="M22.163-117.965v-7.465c-0.136,0.117-0.288,0.229-0.457,0.337s-0.342,0.211-0.518,0.306
			c-0.177,0.095-0.354,0.18-0.53,0.256c-0.177,0.076-0.341,0.139-0.492,0.189v-0.657c0.458-0.148,0.895-0.35,1.313-0.608
			c0.417-0.258,0.822-0.556,1.213-0.894h0.216v8.537H22.163z"/>
	</g>
</g>
</svg>
