<?xml version="1.0" encoding="utf-8"?>
<!-- Generator: Adobe Illustrator 17.0.1, SVG Export Plug-In . SVG Version: 6.00 Build 0)  -->
<!DOCTYPE svg PUBLIC "-//W3C//DTD SVG 1.1//EN" "http://www.w3.org/Graphics/SVG/1.1/DTD/svg11.dtd">
<svg version="1.1" id="Layer_2" xmlns="http://www.w3.org/2000/svg" xmlns:xlink="http://www.w3.org/1999/xlink" x="0px" y="0px"
	 width="88px" height="16px" viewBox="0 0 459.935 83.423" enable-background="new 0 0 459.935 83.423"
	 xml:space="preserve">
<symbol  id="New_Symbol_2_1_" viewBox="-229.968 -41.711 459.935 83.423">
	<path fill="#29ABE2" d="M-229.968,41.712v-83.423h459.935v83.423H-229.968z"/>
</symbol>
<g id="New_Symbol_1">
</g>
<g id="New_Symbol">
</g>
<g id="New_Symbol_2">
</g>
<g>
	
		<use xlink:href="#New_Symbol_2_1_"  width="459.935" height="83.423" id="XMLID_45_" x="-229.968" y="-41.711" transform="matrix(1 0 0 -1 229.9677 41.7116)" overflow="visible"/>
	<g>
		<rect x="9.968" y="23.614" fill="#FFFFFF" width="35" height="46"/>
		<rect x="54.968" y="23.614" fill="#FFFFFF" width="35" height="46"/>
		<rect x="99.968" y="23.614" fill="#FFFFFF" width="35" height="46"/>
		<rect x="144.968" y="23.614" fill="#FFFFFF" width="35" height="46"/>
		<rect x="189.968" y="23.614" fill="#FFFFFF" width="35" height="46"/>
		<rect x="234.968" y="23.614" fill="#FFFFFF" width="35" height="46"/>
		<rect x="279.968" y="23.614" fill="#FFFFFF" width="35" height="46"/>
		<rect x="324.968" y="23.614" fill="#FFFFFF" width="35" height="46"/>
		<rect x="369.968" y="23.614" fill="#FFFFFF" width="35" height="46"/>
		<rect x="414.968" y="23.614" fill="#FFFFFF" width="35" height="46"/>
	</g>
</g>
<g id="balance">
</g>
</svg>
