<?xml version="1.0" encoding="utf-8"?>
<!-- Generator: Adobe Illustrator 17.0.1, SVG Export Plug-In . SVG Version: 6.00 Build 0)  -->
<!DOCTYPE svg PUBLIC "-//W3C//DTD SVG 1.1//EN" "http://www.w3.org/Graphics/SVG/1.1/DTD/svg11.dtd">
<svg version="1.1" id="Layer_2" xmlns="http://www.w3.org/2000/svg" xmlns:xlink="http://www.w3.org/1999/xlink" x="0px" y="0px"
	 width="100px" height="16px" viewBox="0 0 100 16" enable-background="new 0 0 100 16" xml:space="preserve">
<symbol  id="New_Symbol_2_1_" viewBox="-229.968 -41.712 459.935 83.423">
	<path fill="#828282" d="M-229.968,41.711v-83.423h459.935v83.423H-229.968z"/>
</symbol>
<g>
	
		<use xlink:href="#New_Symbol_2_1_"  width="459.935" height="83.423" id="XMLID_45_" x="-229.968" y="-41.712" transform="matrix(0.2174 0 0 -0.1918 49.9999 8)" overflow="visible"/>
	<g>
		<rect x="2.167" y="4.529" fill="#FFFFFF" width="7.61" height="8.823"/>
		<rect x="11.951" y="4.529" fill="#FFFFFF" width="7.61" height="8.823"/>
		<rect x="21.735" y="4.529" fill="#FFFFFF" width="7.61" height="8.823"/>
		<rect x="31.519" y="4.529" fill="#FFFFFF" width="7.61" height="8.823"/>
		<rect x="41.303" y="4.529" fill="#FFFFFF" width="7.61" height="8.823"/>
		<rect x="51.087" y="4.529" fill="#FFFFFF" width="7.61" height="8.823"/>
		<rect x="60.871" y="4.529" fill="#FFFFFF" width="7.61" height="8.823"/>
		<rect x="70.655" y="4.529" fill="#FFFFFF" width="7.61" height="8.823"/>
		<rect x="80.439" y="4.529" fill="#FFFFFF" width="7.61" height="8.823"/>
		<rect x="90.223" y="4.529" fill="#FFFFFF" width="7.61" height="8.823"/>
	</g>
</g>
</svg>
