<?xml version="1.0" encoding="utf-8"?>
<!-- Generator: Adobe Illustrator 17.0.1, SVG Export Plug-In . SVG Version: 6.00 Build 0)  -->
<!DOCTYPE svg PUBLIC "-//W3C//DTD SVG 1.0//EN" "http://www.w3.org/TR/2001/REC-SVG-20010904/DTD/svg10.dtd">
<svg version="1.0" id="Layer_1" xmlns="http://www.w3.org/2000/svg" xmlns:xlink="http://www.w3.org/1999/xlink" x="0px" y="0px"
	 width="60px" height="60px" viewBox="0 0 48.063 48.167" enable-background="new 0 0 48.063 48.167" xml:space="preserve">
<g>
	<circle fill="none" stroke="#4D4D4D" stroke-width="0.8364" stroke-miterlimit="10" cx="24.045" cy="24.108" r="23.861"/>
	<g>
		<g>
			<g>
				<path fill="#2391AF" d="M24.045,49.47c-13.984,0-25.361-11.377-25.361-25.361S10.061-1.253,24.045-1.253
					c13.984,0,25.361,11.377,25.361,25.361S38.029,49.47,24.045,49.47z M32.574,32.514V18.385l-8.418-6.465l-8.64,6.476v14.118
					H32.574z"/>
			</g>
			<g>
				<path fill="#FFFFFF" d="M24.045,0.247c13.178,0,23.861,10.683,23.861,23.861S37.223,47.97,24.045,47.97
					c-13.179,0-23.861-10.683-23.861-23.861S10.866,0.247,24.045,0.247 M14.016,34.014h20.058V17.645l-3.689-2.833v-3.776h-1.46
					v2.655l-4.758-3.654l-10.151,7.608V34.014 M24.045-2.753c-14.811,0-26.861,12.05-26.861,26.861
					c0,14.811,12.05,26.861,26.861,26.861c14.811,0,26.861-12.05,26.861-26.861C50.906,9.297,38.856-2.753,24.045-2.753
					L24.045-2.753z M17.016,19.146l7.129-5.343l2.953,2.268l0.689,0.529l0.771,0.592l2.516,1.932v11.89H17.016V19.146L17.016,19.146
					z"/>
			</g>
		</g>
		<rect x="21.778" y="21.911" fill="#1A1A1A" width="4.534" height="4.534"/>
	</g>
</g>
</svg>
