<?xml version="1.0" encoding="utf-8"?>
<!-- Generator: Adobe Illustrator 17.0.0, SVG Export Plug-In . SVG Version: 6.00 Build 0)  -->
<!DOCTYPE svg PUBLIC "-//W3C//DTD SVG 1.1//EN" "http://www.w3.org/Graphics/SVG/1.1/DTD/svg11.dtd">
<svg version="1.1" id="Layer_1" xmlns="http://www.w3.org/2000/svg" xmlns:xlink="http://www.w3.org/1999/xlink" x="0px" y="0px"
	 width="1162.442px" height="641.968px" viewBox="0 0 1162.442 641.968" enable-background="new 0 0 1162.442 641.968"
	 xml:space="preserve">
<symbol  id="New_Symbol" viewBox="-35.563 -35.563 71.126 71.125">
	<path fill="#FFFFFF" stroke="#999999" stroke-miterlimit="10" d="M29.999,0c0-16.568-13.431-29.999-29.999-29.999
		S-29.998-16.568-29.998,0S-16.567,29.998,0,29.998S29.999,16.567,29.999,0z"/>
	<g>
		<path fill="#29ABE2" d="M0,32.562c17.984,0,32.563-14.579,32.563-32.562c0-17.984-14.579-32.562-32.563-32.562
			S-32.562-17.984-32.562,0C-32.562,17.983-17.983,32.562,0,32.562 M0,35.562c-19.609,0-35.563-15.953-35.563-35.562
			S-19.609-35.563,0-35.563S35.563-19.61,35.563,0S19.61,35.562,0,35.562L0,35.562z"/>
	</g>
</symbol>
<symbol  id="New_Symbol_1_2_" viewBox="-21.922 -21.922 43.845 43.845">
	<path fill="#FFFFFF" stroke="#999999" stroke-width="0.7188" stroke-miterlimit="10" d="M21.563,0
		c0-11.909-9.654-21.563-21.563-21.563S-21.563-11.909-21.563,0S-11.909,21.563,0,21.563S21.563,11.909,21.563,0z"/>
</symbol>
<symbol  id="New_Symbol_2" viewBox="-25.896 -25.896 51.793 51.793">
	<path fill="#FFFFFF" stroke="#C1272D" stroke-width="2" stroke-miterlimit="10" d="M24.897,0C24.897-13.75,13.75-24.896,0-24.896
		S-24.896-13.75-24.896,0S-13.75,24.897,0,24.897S24.897,13.75,24.897,0z"/>
	<path fill="none" stroke="#999999" stroke-width="0.7188" stroke-miterlimit="10" d="M21.563,0
		c0-11.909-9.654-21.563-21.563-21.563S-21.563-11.909-21.563,0S-11.909,21.563,0,21.563S21.563,11.909,21.563,0z"/>
</symbol>
<g id="HP">
</g>
<g id="base_x5F_layer">
	<g>
		<g>
			
				<line fill="none" stroke="#C1272D" stroke-width="1.248" stroke-miterlimit="10" x1="741.639" y1="277.845" x2="742.639" y2="277.842"/>
			
				<line fill="none" stroke="#C1272D" stroke-width="1.248" stroke-miterlimit="10" stroke-dasharray="2.0121,2.0121" x1="744.651" y1="277.836" x2="825.854" y2="277.982"/>
			
				<line fill="none" stroke="#C1272D" stroke-width="1.248" stroke-miterlimit="10" x1="826.862" y1="277.978" x2="827.86" y2="277.976"/>
			<g>
				<polygon fill="#C1272D" points="823.742,283.092 822.888,282.181 827.383,277.978 822.862,273.802 823.711,272.885 
					829.214,277.973 				"/>
			</g>
		</g>
	</g>
	<g>
		<g>
			
				<line fill="none" stroke="#C1272D" stroke-width="1.248" stroke-miterlimit="10" x1="856.709" y1="277.845" x2="857.709" y2="277.842"/>
			
				<line fill="none" stroke="#C1272D" stroke-width="1.248" stroke-miterlimit="10" stroke-dasharray="2.0121,2.0121" x1="859.721" y1="277.836" x2="940.924" y2="277.982"/>
			
				<line fill="none" stroke="#C1272D" stroke-width="1.248" stroke-miterlimit="10" x1="941.931" y1="277.978" x2="942.93" y2="277.976"/>
			<g>
				<polygon fill="#C1272D" points="938.811,283.092 937.957,282.181 942.452,277.978 937.931,273.802 938.78,272.885 
					944.284,277.973 				"/>
			</g>
		</g>
	</g>
	<g id="New_Symbol_1">
	</g>
	<g id="New_Symbol_1_1_">
	</g>
	<g>
		<path fill="#2391AF" d="M748.224,511.528h-14.931v10.388h13.721v7.732h-13.721v16.436h-9.531v-42.315h24.462L748.224,511.528
			L748.224,511.528z"/>
		<path fill="#2391AF" d="M764.719,546.082h-9.531v-42.315h9.531V546.082z"/>
		<path fill="#2391AF" d="M812.404,546.082h-9.619l-17.44-26.587c-1.024-1.553-1.731-2.724-2.125-3.512h-0.118
			c0.158,1.496,0.237,3.777,0.237,6.846v23.253h-9v-42.315h10.268l16.791,25.761c0.767,1.161,1.476,2.312,2.125,3.452h0.118
			c-0.158-0.983-0.235-2.922-0.235-5.813v-23.4h9v42.315L812.404,546.082L812.404,546.082z"/>
		<path fill="#2391AF" d="M822.084,546.082v-42.315h14.99c15.03,0,22.545,6.875,22.545,20.626c0,6.591-2.05,11.852-6.152,15.787
			c-4.102,3.935-9.565,5.901-16.391,5.901H822.084z M831.615,511.528v26.824h4.721c4.132,0,7.372-1.239,9.723-3.718
			s3.526-5.852,3.526-10.121c0-4.032-1.166-7.205-3.497-9.516c-2.331-2.312-5.603-3.467-9.811-3.467L831.615,511.528
			L831.615,511.528z"/>
		<path fill="#29ABE2" d="M884.522,546.82c-6.059,0-10.998-1.973-14.813-5.917c-3.817-3.944-5.725-9.084-5.725-15.419
			c0-6.688,1.937-12.099,5.813-16.23c3.876-4.132,9.009-6.197,15.403-6.197c6.039,0,10.923,1.977,14.651,5.931
			c3.727,3.953,5.592,9.167,5.592,15.638c0,6.649-1.932,12.01-5.798,16.081C895.78,544.784,890.739,546.82,884.522,546.82z
			 M884.935,511.262c-3.345,0-6,1.254-7.967,3.763c-1.968,2.509-2.951,5.829-2.951,9.959c0,4.19,0.983,7.506,2.951,9.945
			c1.967,2.439,4.545,3.659,7.732,3.659c3.284,0,5.892-1.185,7.82-3.555s2.891-5.66,2.891-9.87c0-4.387-0.935-7.8-2.803-10.239
			C890.739,512.482,888.181,511.262,884.935,511.262z"/>
		<path fill="#29ABE2" d="M960.683,546.082h-9.413v-25.318c0-2.735,0.118-5.754,0.355-9.059h-0.235
			c-0.492,2.597-0.935,4.466-1.329,5.607l-9.915,28.77h-7.791l-10.092-28.476c-0.276-0.766-0.719-2.735-1.329-5.901h-0.266
			c0.255,4.17,0.384,7.829,0.384,10.977v23.4h-8.586v-42.315h13.957l8.645,25.081c0.689,2.007,1.191,4.023,1.505,6.049h0.177
			c0.531-2.341,1.092-4.376,1.682-6.109l8.645-25.023h13.604v42.316L960.683,546.082L960.683,546.082z"/>
		<path fill="#29ABE2" d="M995.679,546.082h-25.377v-42.315h24.403v7.761h-14.872v9.413h13.839v7.732h-13.839v9.678h15.846
			L995.679,546.082L995.679,546.082z"/>
	</g>
	
		<use xlink:href="#New_Symbol_2"  width="51.793" height="51.793" id="XMLID_1_" x="-25.896" y="-25.896" transform="matrix(1.2478 0 0 -1.2478 747.9067 277.7838)" overflow="visible"/>
	<circle fill="#FFFFFF" stroke="#666666" stroke-width="2.4957" stroke-miterlimit="10" cx="456.23" cy="277.783" r="26.907"/>
	<polygon fill="#3FA9F5" points="409.257,262.477 406.703,265.219 418.206,275.912 340.446,275.912 340.446,279.655 
		418.214,279.655 406.703,290.353 409.257,293.094 425.721,277.788 	"/>
	<polygon fill="#666666" points="551.59,262.477 549.036,265.219 560.54,275.912 482.779,275.912 482.779,279.655 560.548,279.655 
		549.036,290.353 551.59,293.094 568.054,277.788 	"/>
	<circle fill="#FFFFFF" stroke="#666666" stroke-width="2.4957" stroke-miterlimit="10" cx="599.146" cy="277.783" r="26.907"/>
	<polygon fill="#666666" points="694.507,262.477 691.953,265.219 703.456,275.912 625.696,275.912 625.696,279.655 
		703.464,279.655 691.953,290.353 694.507,293.094 710.971,277.788 	"/>
	<g>
		<g>
			
				<line fill="none" stroke="#3FA9F5" stroke-width="1.2478" stroke-miterlimit="10" x1="329.739" y1="301.269" x2="391.983" y2="375.127"/>
			<g>
				<polygon fill="#3FA9F5" points="385.417,375.254 385.566,374.014 391.674,374.762 391.973,368.615 393.22,368.677 
					392.855,376.163 				"/>
			</g>
		</g>
	</g>
	<g>
		<g>
			
				<line fill="none" stroke="#3FA9F5" stroke-width="1.2478" stroke-miterlimit="10" x1="309.805" y1="308.778" x2="310.123" y2="404.549"/>
			<g>
				<polygon fill="#3FA9F5" points="305.005,400.431 305.917,399.577 310.12,404.07 314.294,399.549 315.211,400.397 
					310.126,405.902 				"/>
			</g>
		</g>
	</g>
	<g>
		<g>
			
				<line fill="none" stroke="#3FA9F5" stroke-width="1.2478" stroke-miterlimit="10" x1="291.655" y1="302.337" x2="234.784" y2="379.772"/>
			<g>
				<polygon fill="#3FA9F5" points="233.119,373.419 234.359,373.274 235.067,379.385 241.111,378.233 241.344,379.46 
					233.982,380.862 				"/>
			</g>
		</g>
	</g>
	<g>
		<g>
			
				<line fill="none" stroke="#3FA9F5" stroke-width="1.2478" stroke-miterlimit="10" x1="281.117" y1="287.907" x2="190.777" y2="320.606"/>
			<g>
				<polygon fill="#3FA9F5" points="192.928,314.4 194.039,314.97 191.227,320.442 196.891,322.848 196.401,323.997 
					189.504,321.066 				"/>
			</g>
		</g>
	</g>
	<g>
		<g>
			
				<line fill="none" stroke="#3FA9F5" stroke-width="1.2478" stroke-miterlimit="10" x1="287.451" y1="257.096" x2="215.815" y2="193.075"/>
			<g>
				<polygon fill="#3FA9F5" points="222.298,192.025 222.324,193.273 216.172,193.393 216.741,199.52 215.498,199.634 
					214.806,192.172 				"/>
			</g>
		</g>
	</g>
	<g>
		<g>
			
				<line fill="none" stroke="#3FA9F5" stroke-width="1.2478" stroke-miterlimit="10" x1="329.535" y1="254.445" x2="390.593" y2="180.267"/>
			<g>
				<polygon fill="#3FA9F5" points="391.906,186.703 390.659,186.779 390.29,180.638 384.191,181.455 384.026,180.217 
					391.454,179.223 				"/>
			</g>
		</g>
	</g>
	<g>
		<g>
			
				<line fill="none" stroke="#4D4D4D" stroke-width="1.2478" stroke-miterlimit="10" x1="422.945" y1="140.467" x2="484.004" y2="66.289"/>
			<g>
				<polygon fill="#4D4D4D" points="485.316,72.725 484.07,72.801 483.701,66.66 477.602,67.477 477.437,66.239 484.865,65.245 				
					"/>
			</g>
		</g>
	</g>
	<g>
		<g>
			
				<line fill="none" stroke="#C1272D" stroke-width="1.248" stroke-miterlimit="10" x1="770.725" y1="258.551" x2="771.475" y2="257.89"/>
			
				<line fill="none" stroke="#C1272D" stroke-width="1.248" stroke-miterlimit="10" stroke-dasharray="2.0121,2.0121" x1="772.986" y1="256.561" x2="834.219" y2="203.227"/>
			
				<line fill="none" stroke="#C1272D" stroke-width="1.248" stroke-miterlimit="10" x1="834.974" y1="202.562" x2="835.725" y2="201.902"/>
			<g>
				<polygon fill="#C1272D" points="835.991,208.465 834.748,208.341 835.366,202.218 829.214,202.05 829.249,200.801 
					836.742,201.009 				"/>
			</g>
		</g>
	</g>
	<g>
		<g>
			
				<line fill="none" stroke="#C1272D" stroke-width="1.248" stroke-miterlimit="10" x1="883.678" y1="201.495" x2="882.927" y2="200.835"/>
			
				<line fill="none" stroke="#C1272D" stroke-width="1.248" stroke-miterlimit="10" stroke-dasharray="2.0121,2.0121" x1="946.478" y1="256.094" x2="885.19" y2="202.823"/>
			
				<line fill="none" stroke="#C1272D" stroke-width="1.248" stroke-miterlimit="10" x1="947.986" y1="257.417" x2="947.234" y2="256.758"/>
			<g>
				<polygon fill="#C1272D" points="949.003,258.309 941.511,258.525 941.474,257.276 947.626,257.101 947.002,250.979 
					948.245,250.854 				"/>
			</g>
		</g>
	</g>
	<g>
		<g>
			
				<line fill="none" stroke="#C1272D" stroke-width="1.248" stroke-miterlimit="10" x1="770.688" y1="297.126" x2="771.443" y2="297.782"/>
			
				<line fill="none" stroke="#C1272D" stroke-width="1.248" stroke-miterlimit="10" stroke-dasharray="2.0121,2.0121" x1="772.962" y1="299.101" x2="834.002" y2="352.655"/>
			
				<line fill="none" stroke="#C1272D" stroke-width="1.248" stroke-miterlimit="10" x1="834.762" y1="353.315" x2="835.517" y2="353.971"/>
			<g>
				<polygon fill="#C1272D" points="829.048,355.112 829.005,353.864 835.155,353.658 834.5,347.538 835.742,347.406 
					836.538,354.86 				"/>
			</g>
		</g>
	</g>
	<g>
		<g>
			
				<line fill="none" stroke="#C1272D" stroke-width="1.248" stroke-miterlimit="10" x1="883.798" y1="354.31" x2="883.04" y2="354.962"/>
			
				<line fill="none" stroke="#C1272D" stroke-width="1.248" stroke-miterlimit="10" stroke-dasharray="2.0121,2.0121" x1="946.606" y1="299.721" x2="885.323" y2="352.998"/>
			
				<line fill="none" stroke="#C1272D" stroke-width="1.248" stroke-miterlimit="10" x1="948.127" y1="298.412" x2="947.369" y2="299.065"/>
			<g>
				<polygon fill="#C1272D" points="949.152,297.528 948.322,304.978 947.08,304.84 947.763,298.723 941.614,298.49 
					941.663,297.242 				"/>
			</g>
		</g>
	</g>
	<g>
		<g>
			
				<line fill="none" stroke="#4D4D4D" stroke-width="1.2478" stroke-miterlimit="10" x1="214.798" y1="407.772" x2="155.71" y2="485.39"/>
			<g>
				<polygon fill="#4D4D4D" points="154.153,479.009 155.396,478.885 155.999,485.008 162.062,483.96 162.274,485.191 
					154.889,486.466 				"/>
			</g>
		</g>
	</g>
	<g>
		<g>
			
				<line fill="none" stroke="#4D4D4D" stroke-width="1.2478" stroke-miterlimit="10" x1="310.888" y1="437.864" x2="310.152" y2="529.958"/>
			<g>
				<polygon fill="#4D4D4D" points="305.082,525.783 306.003,524.939 310.155,529.479 314.38,525.006 315.287,525.864 
					310.14,531.311 				"/>
			</g>
		</g>
	</g>
	<g>
		<text transform="matrix(1 0 0 1 20.4698 136.4198)" fill="#666666" font-family="'SegoeUI-Semilight'" font-size="18.6603">Вход/регистрация</text>
	</g>
	<text transform="matrix(1 0 0 1 185.254 259.7784)" fill="#666666" font-family="'SegoeUI-Semilight'" font-size="18.6603">Страница</text>
	<text transform="matrix(1 0 0 1 185.254 282.1714)" fill="#666666" font-family="'SegoeUI-Semilight'" font-size="18.6603">города</text>
	<text transform="matrix(1 0 0 1 570.7431 338.7157)" fill="#666666" font-family="'SegoeUI-Semilight'" font-size="18.6603">Выдача</text>
	<text transform="matrix(1 0 0 1 551.7221 361.1086)" fill="#666666" font-family="'SegoeUI-Semilight'" font-size="18.6603">результатов</text>
	<text transform="matrix(1 0 0 1 429.3225 332.3418)" fill="#666666" font-family="'SegoeUI-Semilight'" font-size="18.6603">Поиск</text>
	<text transform="matrix(1 0 0 1 945.2391 337.3788)" fill="#666666" font-family="'SegoeUI-Semilight'" font-size="18.6603">Выгода</text>
	
		<use xlink:href="#New_Symbol_1_2_"  width="43.845" height="43.845" x="-21.922" y="-21.922" transform="matrix(1.1532 0.4766 0.4766 -1.1532 410.832 154.077)" overflow="visible"/>
	
		<use xlink:href="#New_Symbol_1_2_"  width="43.845" height="43.845" x="-21.922" y="-21.922" transform="matrix(1.1827 -0.398 -0.398 -1.1827 859.1924 181.7721)" overflow="visible"/>
	
		<use xlink:href="#New_Symbol_1_2_"  width="43.845" height="43.845" x="-21.922" y="-21.922" transform="matrix(1.1827 -0.398 -0.398 -1.1827 859.2388 277.2179)" overflow="visible"/>
	
		<use xlink:href="#New_Symbol_1_2_"  width="43.845" height="43.845" x="-21.922" y="-21.922" transform="matrix(1.1827 -0.398 -0.398 -1.1827 859.2388 374.3848)" overflow="visible"/>
	<text transform="matrix(1 0 0 1 22.4616 415.5303)" fill="#666666" font-family="'SegoeUI-Semilight'" font-size="18.6603">Все застройщики</text>
	<text transform="matrix(1 0 0 1 32.7685 559.2134)" fill="#666666" font-family="'SegoeUI-Semilight'" font-size="18.6603">Страница </text>
	<text transform="matrix(1 0 0 1 20.9285 581.6064)" fill="#666666" font-family="'SegoeUI-Semilight'" font-size="18.6603">застройщика</text>
	<text transform="matrix(1 0 0 1 451.4705 165.5697)" fill="#666666" font-family="'SegoeUI-Semilight'" font-size="18.6603">Личный</text>
	<text transform="matrix(1 0 0 1 451.6345 187.9627)" fill="#666666" font-family="'SegoeUI-Semilight'" font-size="18.6603">кабинет</text>
	
		<use xlink:href="#New_Symbol_1_2_"  width="43.845" height="43.845" x="-21.922" y="-21.922" transform="matrix(1.1532 0.4766 0.4766 -1.1532 503.6636 43.4343)" overflow="visible"/>
	<text transform="matrix(1 0 0 1 375.686 33.1342)" fill="#666666" font-family="'SegoeUI-Semilight'" font-size="18.6603">Таблица</text>
	<text transform="matrix(1 0 0 1 375.686 55.5272)" fill="#666666" font-family="'SegoeUI-Semilight'" font-size="18.6603">сравнения</text>
	
		<use xlink:href="#New_Symbol_1_2_"  width="43.845" height="43.845" x="-21.922" y="-21.922" transform="matrix(1.1532 0.4766 0.4766 -1.1532 195.3343 166.8499)" overflow="visible"/>
	<text transform="matrix(1 0 0 1 342.6866 605.5542)" fill="#666666" font-family="'SegoeUI-Semilight'" font-size="18.6603">Страница </text>
	<text transform="matrix(1 0 0 1 372.2406 627.9472)" fill="#666666" font-family="'SegoeUI-Semilight'" font-size="18.6603">ЖК</text>
	<text transform="matrix(1 0 0 1 338.2378 479.7845)" fill="#666666" font-family="'SegoeUI-Semilight'" font-size="18.6603">Все жилые</text>
	<text transform="matrix(1 0 0 1 338.2378 502.1775)" fill="#666666" font-family="'SegoeUI-Semilight'" font-size="18.6603">комплексы</text>
	<text transform="matrix(1 0 0 1 60.7949 338.7155)" fill="#666666" font-family="'SegoeUI-Semilight'" font-size="18.6603">Акции</text>
	<text transform="matrix(1 0 0 1 453.9046 405.9022)" fill="#666666" font-family="'SegoeUI-Semilight'" font-size="18.6603">Карта</text>
	<text transform="matrix(1 0 0 1 709.9555 337.3793)" fill="#4D4D4D" font-family="'SegoeUI-Semilight'" font-size="18.6603">Квартира</text>
	<text transform="matrix(1 0 0 1 850.1856 283.0918)" fill="#666666" font-family="'SegoeUI-Semilight'" font-size="18.6603">ID</text>
	<text transform="matrix(1 0 0 1 834.9745 421.0387)" fill="#666666" font-family="'SegoeUI-Semilight'" font-size="18.6603">Бронь</text>
	<text transform="matrix(1 0 0 1 819.1698 147.6875)" fill="#666666" font-family="'SegoeUI-Semilight'" font-size="18.6603">Документы</text>
	
		<use xlink:href="#New_Symbol_1_2_"  width="43.845" height="43.845" x="-21.922" y="-21.922" transform="matrix(1.2478 0 0 -1.2478 160.6421 333.0448)" overflow="visible"/>
	
		<use xlink:href="#New_Symbol_1_2_"  width="43.845" height="43.845" x="-21.922" y="-21.922" transform="matrix(1.2478 0 0 -1.2478 412.215 400.4287)" overflow="visible"/>
	
		<use xlink:href="#New_Symbol_1_2_"  width="43.845" height="43.845" x="-21.922" y="-21.922" transform="matrix(1.2478 0 0 -1.2478 134.5701 513.3741)" overflow="visible"/>
	
		<use xlink:href="#New_Symbol_1_2_"  width="43.845" height="43.845" x="-21.922" y="-21.922" transform="matrix(1.2478 0 0 -1.2478 310.1425 567.6375)" overflow="visible"/>
	
		<use xlink:href="#New_Symbol"  width="71.126" height="71.125" id="XMLID_9_" x="-35.563" y="-35.563" transform="matrix(0.897 0 0 -0.897 310.1411 277.7843)" overflow="visible"/>
	<g>
		<g>
			<path fill="none" stroke="#4D4D4D" stroke-width="1.2478" stroke-miterlimit="10" d="M390.36,416.197
				c-4.7,2.77-14.861,8.262-24.901,11.852c-9.385,3.356-19.307,5.798-25.893,7.102"/>
			<g>
				<polygon fill="#4D4D4D" points="342.575,429.294 343.594,430.016 340.032,435.033 345.296,438.219 344.649,439.287 
					338.238,435.405 				"/>
			</g>
		</g>
	</g>
	
		<use xlink:href="#New_Symbol_1_2_"  width="43.845" height="43.845" x="-21.922" y="-21.922" transform="matrix(1.2478 0 0 -1.2478 309.8065 437.8642)" overflow="visible"/>
	
		<use xlink:href="#New_Symbol_1_2_"  width="43.845" height="43.845" x="-21.922" y="-21.922" transform="matrix(1.1532 0.4766 0.4766 -1.1532 214.9596 406.4494)" overflow="visible"/>
	<g>
		<g>
			<path fill="none" stroke="#4D4D4D" stroke-width="1.2478" stroke-miterlimit="10" d="M271.31,567.702
				c-41.467-5.453-80.198-19.594-114.304-40.536"/>
			<g>
				<polygon fill="#4D4D4D" points="268.006,561.994 267.026,562.768 270.841,567.594 265.748,571.047 266.449,572.081 
					272.652,567.874 				"/>
			</g>
		</g>
	</g>
	<circle fill="#FFFFFF" stroke="#666666" stroke-width="2.4957" stroke-miterlimit="10" cx="974.974" cy="277.218" r="26.907"/>
</g>
</svg>
