<?xml version="1.0" encoding="utf-8"?>
<!-- Generator: Adobe Illustrator 17.0.1, SVG Export Plug-In . SVG Version: 6.00 Build 0)  -->
<!DOCTYPE svg PUBLIC "-//W3C//DTD SVG 1.1//EN" "http://www.w3.org/Graphics/SVG/1.1/DTD/svg11.dtd">
<svg version="1.1" xmlns="http://www.w3.org/2000/svg" xmlns:xlink="http://www.w3.org/1999/xlink" x="0px" y="0px" width="50px"
	 height="50px" viewBox="0 0 68 68" enable-background="new 0 0 68 68" xml:space="preserve">
<g id="HP">
</g>
<g id="base_x5F_layer">
	<rect fill="#2FADE2" width="68" height="68"/>
	<g>
		<path fill="#F2F2F2" d="M36.96,24.364c-3.431,0-6.204,2.774-6.204,6.204c0,0.73,0.146,1.46,0.365,2.19l-7.664,7.664v3.65h3.65
			v-2.19h2.19v-2.19h2.19l3.285-3.285c0.657,0.219,1.387,0.365,2.19,0.365c3.431,0,6.204-2.774,6.204-6.204
			S40.391,24.364,36.96,24.364z M38.785,30.933c-1.241,0-2.19-0.949-2.19-2.19c0-1.241,0.949-2.19,2.19-2.19
			c1.241,0,2.19,0.949,2.19,2.19C40.975,29.984,40.026,30.933,38.785,30.933z"/>
	</g>
	<g id="sale_1_">
	</g>
	<g id="sale">
	</g>
</g>
<g id="help">
</g>
</svg>
