<?xml version="1.0" encoding="utf-8"?>
<!-- Generator: Adobe Illustrator 17.0.1, SVG Export Plug-In . SVG Version: 6.00 Build 0)  -->
<!DOCTYPE svg PUBLIC "-//W3C//DTD SVG 1.1//EN" "http://www.w3.org/Graphics/SVG/1.1/DTD/svg11.dtd">
<svg version="1.1" xmlns="http://www.w3.org/2000/svg" xmlns:xlink="http://www.w3.org/1999/xlink" x="0px" y="0px"
	 width="915px" height="38px" viewBox="0 0 762.807 31.912" enable-background="new 0 0 762.807 31.912"
	 xml:space="preserve">
<symbol  id="balance_10_" viewBox="-155.129 -155.129 310.259 310.259">
	<g>
		<path fill="#FFFFFF" stroke="#4D4D4D" stroke-width="4" stroke-miterlimit="10" d="M153.13,0
			c0-84.571-68.558-153.13-153.13-153.13S-153.129-84.571-153.129,0S-84.571,153.13,0,153.13S153.13,84.571,153.13,0z"/>
	</g>
	<path fill="#808080" d="M92.123-42L59.022,61.948l7.962,0.785l-0.68,6.898L9.586,64.037C7.144,72.932,0,89.38,0,89.38
		s-8.308-19.126-10.067-27.281l-56.917-5.614l0.68-6.898l7.399,0.73L-92.122-54h-4.294c4.579-32,28.442-38.238,38.447-38.238
		C-47.385-92.237-24.1-86-19.521-54h-4.294L-57.09,50.495l47.73,4.708c1.679-3.484,5.234-5.895,9.361-5.895
		c4.847,0,8.908,3.322,10.059,7.81l46.789,4.615L23.816-42h-4.294c4.579-32,28.442-38.238,38.447-38.238
		C68.553-80.237,91.837-74,96.417-42H92.123z M-27.336-54h-61.265l30.632,98.141L-27.336-54z M0,56.528
		c-1.755,0-3.177,1.422-3.177,3.177c0,1.755,1.422,3.177,3.177,3.177c1.755,0,3.177-1.422,3.177-3.177
		C3.177,57.951,1.755,56.528,0,56.528z M27.337-42l30.632,98.141L88.602-42H27.337z"/>
</symbol>
<g id="HP">
</g>
<g id="base_x5F_layer">
	<g id="balance">
	</g>
	<g id="balance_3_">
	</g>
	<g id="balance_2_">
	</g>
	<g id="balance_1_">
	</g>
	<g>
		<text transform="matrix(1 0 0 1 39.5843 13.2553)"><tspan x="0" y="0" fill="#808080" font-family="'SegoeUI-Semilight'" font-size="10.1519">Свободная</tspan><tspan x="0" y="14" fill="#808080" font-family="'SegoeUI-Semilight'" font-size="10.1519">квартира</tspan></text>
		<text transform="matrix(1 0 0 1 152.251 13.2553)"><tspan x="0" y="0" fill="#808080" font-family="'SegoeUI-Semilight'" font-size="10.1519">Забронированная</tspan><tspan x="0" y="14" fill="#808080" font-family="'SegoeUI-Semilight'" font-size="10.1519">квартира</tspan></text>
		<text transform="matrix(1 0 0 1 295.7509 13.2553)"><tspan x="0" y="0" fill="#808080" font-family="'SegoeUI-Semilight'" font-size="10.1519">Добавить в </tspan><tspan x="0" y="14" fill="#808080" font-family="'SegoeUI-Semilight'" font-size="10.1519">сравнение</tspan></text>
		<text transform="matrix(1 0 0 1 403.0843 13.2553)"><tspan x="0" y="0" fill="#808080" font-family="'SegoeUI-Semilight'" font-size="10.1519">Добавлено в</tspan><tspan x="0" y="14" fill="#808080" font-family="'SegoeUI-Semilight'" font-size="10.1519">сравнение</tspan></text>
		<text transform="matrix(1 0 0 1 529.0843 13.2553)"><tspan x="0" y="0" fill="#808080" font-family="'SegoeUI-Semilight'" font-size="10.1519">Уведомить,если</tspan><tspan x="0" y="14" fill="#808080" font-family="'SegoeUI-Semilight'" font-size="10.1519">бронь снимется</tspan></text>
		<text transform="matrix(1 0 0 1 670.5843 13.2553)"><tspan x="0" y="0" fill="#808080" font-family="'SegoeUI-Semilight'" font-size="10.1519">Уведомление будет</tspan><tspan x="0" y="14" fill="#808080" font-family="'SegoeUI-Semilight'" font-size="10.1519">отправлено</tspan></text>
		
			<use xlink:href="#balance_10_"  width="310.259" height="310.259" id="XMLID_13_" x="-155.129" y="-155.129" transform="matrix(0.1013 0 0 -0.1013 271.2558 15.956)" overflow="visible"/>
		<g>
			<g>
				<circle fill="#FFFFFF" cx="15.404" cy="16.491" r="15.139"/>
				<path fill="#4D4D4D" d="M15.404,31.895C6.91,31.895,0,24.985,0,16.491S6.91,1.087,15.404,1.087s15.404,6.91,15.404,15.404
					S23.898,31.895,15.404,31.895z M15.404,1.617C7.203,1.617,0.53,8.289,0.53,16.491s6.672,14.874,14.874,14.874
					c8.201,0,14.874-6.672,14.874-14.874S23.605,1.617,15.404,1.617z"/>
			</g>
			<g>
				<path fill="#4D4D4D" d="M15.295,20.075v-6.269c-0.114,0.098-0.242,0.192-0.384,0.283s-0.287,0.177-0.435,0.257
					c-0.149,0.08-0.297,0.151-0.445,0.215c-0.149,0.064-0.286,0.117-0.413,0.159v-0.552c0.385-0.124,0.752-0.294,1.103-0.511
					c0.35-0.217,0.69-0.467,1.019-0.751h0.181v7.169H15.295z"/>
			</g>
		</g>
		<g>
			<circle fill="#C64747" cx="126.524" cy="16.48" r="15.403"/>
			<text transform="matrix(1 0 0 1 118.4716 19.8308)" fill="#F2F2F2" font-family="'SegoeUI-Semilight'" font-size="10.1895">225</text>
		</g>
		<g>
			<g>
				<circle fill="#FFFFFF" stroke="#4D4D4D" stroke-width="0.3496" stroke-miterlimit="10" cx="504.825" cy="16.095" r="13.384"/>
			</g>
			<g>
				<g>
					<path fill="#7F7F7F" d="M502.159,21.074c0.105,0.255,0.278,0.428,0.522,0.529c0.25,0.104,0.493,0.099,0.738-0.007
						c0.245-0.106,0.42-0.275,0.521-0.518l-1.782-0.739C502.057,20.583,502.057,20.828,502.159,21.074z"/>
					<path fill="#7F7F7F" d="M508.655,22.075c-0.161-0.785-0.201-1.572-0.126-2.352c0.075-0.778,0.301-1.855,0.673-3.231
						c0.217-0.801,0.172-1.572-0.001-2.13c-0.086-0.277-0.204-0.545-0.361-0.803c-0.308-0.507-0.604-0.808-0.971-1.103
						c0.055-0.297,0.008-0.58-0.142-0.855c-0.148-0.271-0.363-0.47-0.653-0.591c-0.284-0.118-0.578-0.131-0.873-0.043
						c-0.295,0.088-0.528,0.257-0.7,0.506c-0.468-0.052-0.891-0.051-1.473,0.09c-0.288,0.07-0.562,0.175-0.823,0.312
						c-0.513,0.27-1.089,0.787-1.502,1.506c-0.71,1.236-1.318,2.153-1.817,2.757c-0.498,0.602-1.08,1.131-1.748,1.574
						c-0.064,0.042-0.112,0.09-0.139,0.153c-0.022,0.052-0.03,0.104-0.022,0.168c0.017,0.137,0.087,0.233,0.215,0.286l9.995,4.146
						c0.128,0.053,0.245,0.033,0.354-0.05c0.045-0.043,0.078-0.09,0.1-0.142C508.668,22.209,508.67,22.145,508.655,22.075z
						 M499.04,17.917c0.596-0.453,1.133-1,1.607-1.626c0.475-0.627,1.026-1.487,1.661-2.563c0.552-0.935,1.262-1.372,1.981-1.512
						c0.51-0.099,0.91-0.096,1.348-0.019c0.158,0.028,0.305-0.064,0.366-0.209l0.005-0.012c0.128-0.308,0.492-0.449,0.8-0.321
						c0.319,0.132,0.465,0.486,0.338,0.793l-0.005,0.012c-0.06,0.145-0.01,0.315,0.122,0.411c0.359,0.263,0.655,0.533,0.933,0.965
						c0.139,0.217,0.251,0.439,0.326,0.673c0.154,0.474,0.182,1.117,0.003,1.797c-0.318,1.208-0.532,2.201-0.638,2.98
						c-0.106,0.779-0.111,1.546-0.013,2.294L499.04,17.917z"/>
				</g>
			</g>
		</g>
		<g>
			<g>
				<circle fill="#FFFFFF" stroke="#4D4D4D" stroke-width="0.3496" stroke-miterlimit="10" cx="647.024" cy="15.846" r="13.384"/>
			</g>
			<g>
				<path fill="#BA3636" d="M644.434,20.242c0.105,0.255,0.278,0.428,0.522,0.529c0.25,0.104,0.493,0.099,0.738-0.007
					c0.245-0.106,0.42-0.275,0.521-0.518l-1.782-0.739C644.331,19.751,644.332,19.996,644.434,20.242z"/>
				<path fill="#BA3636" d="M650.93,21.243c-0.161-0.785-0.201-1.572-0.126-2.352c0.075-0.778,0.301-1.855,0.673-3.231
					c0.217-0.801,0.172-1.572-0.001-2.13c-0.086-0.277-0.204-0.545-0.361-0.803c-0.308-0.507-0.604-0.808-0.971-1.103
					c0.055-0.297,0.008-0.58-0.142-0.855c-0.148-0.271-0.363-0.47-0.653-0.591c-0.284-0.118-0.578-0.131-0.873-0.043
					c-0.295,0.088-0.529,0.257-0.7,0.506c-0.468-0.051-0.891-0.051-1.473,0.09c-0.288,0.07-0.562,0.175-0.823,0.312
					c-0.513,0.27-1.089,0.787-1.502,1.506c-0.71,1.236-1.318,2.153-1.817,2.757c-0.498,0.602-1.08,1.131-1.748,1.574
					c-0.064,0.042-0.112,0.09-0.138,0.153c-0.022,0.052-0.03,0.104-0.022,0.168c0.017,0.137,0.087,0.233,0.215,0.286l9.995,4.146
					c0.128,0.053,0.245,0.033,0.354-0.05c0.045-0.043,0.078-0.09,0.1-0.142C650.943,21.377,650.945,21.313,650.93,21.243z"/>
			</g>
		</g>
		<g id="base_x5F_layer_2_">
			<g id="balance_8_">
				<circle fill="#FFFFFF" stroke="#4D4D4D" stroke-width="0.4889" stroke-miterlimit="10" cx="381.292" cy="15.956" r="15.712"/>
				<polyline fill="none" stroke="#2FADE2" stroke-width="2" stroke-linecap="round" stroke-miterlimit="10" points="
					373.262,14.882 380.387,23.523 389.321,9.619 				"/>
			</g>
		</g>
	</g>
</g>
</svg>
