<?xml version="1.0" encoding="utf-8"?>
<!-- Generator: Adobe Illustrator 17.0.1, SVG Export Plug-In . SVG Version: 6.00 Build 0)  -->
<!DOCTYPE svg PUBLIC "-//W3C//DTD SVG 1.1//EN" "http://www.w3.org/Graphics/SVG/1.1/DTD/svg11.dtd">
<svg version="1.1" id="Layer_1" xmlns="http://www.w3.org/2000/svg" xmlns:xlink="http://www.w3.org/1999/xlink" x="0px" y="0px"
	 width="60px" height="60px" viewBox="0 0 45.32 45.32" enable-background="new 0 0 45.32 45.32" xml:space="preserve">
<g>
	<circle fill="#333333" stroke="#333333" stroke-width="0.8963" stroke-miterlimit="10" cx="22.66" cy="22.66" r="22.212"/>
	<g id="Padlock_5_">
		<g>
			<path fill="#FFFFFF" d="M28.428,20.55v-4.176c0-3.07-2.498-5.568-5.568-5.568s-5.568,2.498-5.568,5.568v4.176
				c-1.151,0-2.088,0.937-2.088,2.088v8.351c0,1.151,0.937,2.088,2.088,2.088h11.135c1.151,0,2.088-0.937,2.088-2.088v-8.351
				C30.515,21.487,29.579,20.55,28.428,20.55z M18.684,16.375c0-2.303,1.873-4.176,4.176-4.176s4.176,1.873,4.176,4.176v4.176
				h-8.351V16.375z M29.123,30.989c0,0.384-0.312,0.696-0.696,0.696H17.292c-0.383,0-0.696-0.312-0.696-0.696v-8.351
				c0-0.384,0.312-0.696,0.696-0.696h11.135c0.383,0,0.696,0.312,0.696,0.696V30.989z M22.164,26.621v1.585
				c0,0.385,0.312,0.696,0.696,0.696c0.384,0,0.696-0.311,0.696-0.696v-1.585c0.414-0.241,0.696-0.686,0.696-1.199
				c0-0.768-0.624-1.392-1.392-1.392c-0.768,0-1.392,0.624-1.392,1.392C21.468,25.936,21.749,26.38,22.164,26.621z"/>
		</g>
	</g>
</g>
<g id="balance_2_" opacity="0.6">
</g>
<g id="balance_1_" opacity="0.6">
</g>
<g id="balance">
</g>
<g id="form">
</g>
<g id="New_Symbol">
</g>
</svg>
