<?xml version="1.0" encoding="utf-8"?>
<!-- Generator: Adobe Illustrator 17.0.1, SVG Export Plug-In . SVG Version: 6.00 Build 0)  -->
<!DOCTYPE svg PUBLIC "-//W3C//DTD SVG 1.1//EN" "http://www.w3.org/Graphics/SVG/1.1/DTD/svg11.dtd">
<svg version="1.1" xmlns="http://www.w3.org/2000/svg" xmlns:xlink="http://www.w3.org/1999/xlink" x="0px" y="0px"
	 width="349.78px" height="91.574px" viewBox="0 0 349.78 91.574" enable-background="new 0 0 349.78 91.574" xml:space="preserve">
<symbol  id="New_Symbol_1" viewBox="-24 -24 48 48">
	<polygon fill="#E6E6E6" points="16.468,24 4.558,24 -3.383,24 -24,24 -24,16 -4,16 -4,2.099 -0.162,4.368 2,3.067 2,4 3,4 3,2.603 
		4,2.099 4,16 15,16 15,-24 24,-24 24,15.711 24,24 	"/>
	<polygon fill="#FFFFFF" points="4,-15 4,-5 -4,-5 -4,-15 -16,-15 -16,16 -24,16 -24,-15.483 -24,-24 -15.293,-24 -3.383,-24 
		4.558,-24 24,-24 24,-15 	"/>
	<polygon display="none" fill="none" points="-24,24 24,24 24,-24 -24,-24 	"/>
</symbol>
<g id="HP">
</g>
<g id="base_x5F_layer">
	<g>
		<defs>
			<rect id="SVGID_7_" x="328.551" y="535.058" width="2560.259" height="497.726"/>
		</defs>
		<clipPath id="SVGID_2_">
			<use xlink:href="#SVGID_7_"  overflow="visible"/>
		</clipPath>
		<g clip-path="url(#SVGID_2_)">
			
				<image overflow="visible" width="4928" height="3264" xlink:href="387A3E4F.jpg"  transform="matrix(0.5194 0 0 0.5187 328.5506 -263.7762)">
			</image>
		</g>
	</g>
	<g>
		<g>
			
				<use xlink:href="#New_Symbol_1"  width="48" height="48" id="XMLID_2_" x="-24" y="-24" transform="matrix(1.305 0 0 -1.305 31.3188 31.3188)" overflow="visible"/>
			<g>
				<path fill="#FFFFFF" d="M103.755,18.782H89.623v9.831h12.987v7.317H89.623v15.557h-9.021V11.437h23.153V18.782z"/>
				<path fill="#FFFFFF" d="M119.368,51.488h-9.021V11.437h9.021V51.488z"/>
				<path fill="#FFFFFF" d="M164.501,51.488h-9.105L138.89,26.323c-0.968-1.471-1.639-2.579-2.011-3.324h-0.112
					c0.149,1.415,0.224,3.575,0.224,6.48v22.008h-8.519V11.437h9.72l15.892,24.382c0.726,1.099,1.397,2.188,2.011,3.268h0.112
					c-0.149-0.931-0.223-2.765-0.223-5.502V11.437h8.518V51.488z"/>
				<path fill="#FFFFFF" d="M173.662,51.488V11.437h14.188c14.225,0,21.338,6.507,21.338,19.523c0,6.238-1.941,11.218-5.823,14.942
					c-3.882,3.724-9.054,5.586-15.515,5.586H173.662z M182.683,18.782V44.17h4.469c3.91,0,6.978-1.173,9.203-3.519
					c2.225-2.346,3.338-5.539,3.338-9.58c0-3.817-1.103-6.819-3.31-9.007c-2.206-2.188-5.302-3.282-9.287-3.282H182.683z"/>
				<path fill="#E6E6E6" d="M232.761,52.186c-5.735,0-10.408-1.867-14.021-5.6c-3.612-3.733-5.418-8.597-5.418-14.593
					c0-6.33,1.834-11.451,5.502-15.361c3.668-3.91,8.528-5.865,14.579-5.865c5.716,0,10.338,1.871,13.867,5.614
					c3.528,3.742,5.292,8.677,5.292,14.802c0,6.294-1.829,11.367-5.488,15.222C243.416,50.259,238.644,52.186,232.761,52.186z
					 M233.152,18.531c-3.166,0-5.679,1.187-7.541,3.561c-1.862,2.374-2.793,5.516-2.793,9.426c0,3.966,0.931,7.104,2.793,9.412
					c1.862,2.309,4.301,3.463,7.317,3.463c3.109,0,5.576-1.122,7.401-3.366c1.825-2.243,2.737-5.357,2.737-9.342
					c0-4.152-0.885-7.383-2.653-9.692C238.644,19.686,236.224,18.531,233.152,18.531z"/>
				<path fill="#E6E6E6" d="M304.846,51.488h-8.91V27.524c0-2.588,0.112-5.446,0.335-8.574h-0.223
					c-0.466,2.458-0.885,4.227-1.257,5.307l-9.384,27.231h-7.373l-9.552-26.952c-0.261-0.726-0.68-2.588-1.257-5.586h-0.251
					c0.242,3.948,0.363,7.411,0.363,10.39v22.148h-8.127V11.437h13.211l8.183,23.74c0.652,1.899,1.127,3.808,1.425,5.726h0.168
					c0.503-2.216,1.033-4.143,1.592-5.781l8.183-23.684h12.875V51.488z"/>
				<path fill="#E6E6E6" d="M337.971,51.488h-24.019V11.437h23.098v7.345h-14.076v8.91h13.099v7.317h-13.099v9.161h14.998V51.488z"
					/>
			</g>
		</g>
		<g>
			
				<text transform="matrix(0.9898 0 0 1 80.11 86.6313)" fill="#F2F2F2" font-family="'SegoeUI-Semilight'" font-size="15.6214" letter-spacing="10.103">FIND YOUR HOME</text>
		</g>
	</g>
</g>
</svg>
