<?xml version="1.0" encoding="utf-8"?>
<!-- Generator: Adobe Illustrator 17.0.1, SVG Export Plug-In . SVG Version: 6.00 Build 0)  -->
<!DOCTYPE svg PUBLIC "-//W3C//DTD SVG 1.1//EN" "http://www.w3.org/Graphics/SVG/1.1/DTD/svg11.dtd">
<svg version="1.1" xmlns="http://www.w3.org/2000/svg" xmlns:xlink="http://www.w3.org/1999/xlink" x="0px" y="0px" width="50px"
	 height="50px" viewBox="0 0 68 68" enable-background="new 0 0 68 68" xml:space="preserve">
<g id="HP">
</g>
<g id="base_x5F_layer">
	<rect fill="#2FADE2" width="68" height="68"/>
	<g>
		<g>
			<path fill="#F2F2F2" d="M40.616,44.464c-1.906,1.005-3.85,1.387-6.175,1.387c-5.689,0-10.51-4.16-10.51-10.821
				c0-7.147,4.96-13.321,12.663-13.321c6.036,0,10.095,4.231,10.095,10.024c0,5.203-2.914,8.256-6.175,8.256
				c-1.39,0-2.672-0.937-2.568-3.053h-0.139c-1.214,2.048-2.81,3.053-4.892,3.053c-2.011,0-3.745-1.632-3.745-4.372
				c0-4.302,3.398-8.22,8.22-8.22c1.491,0,2.811,0.311,3.711,0.729l-1.178,6.277c-0.52,2.638-0.105,3.853,1.04,3.886
				c1.771,0.034,3.748-2.325,3.748-6.35c0-5.028-3.02-8.638-8.398-8.638c-5.652,0-10.406,4.477-10.406,11.519
				c0,5.794,3.782,9.366,8.914,9.366c1.978,0,3.816-0.418,5.24-1.214L40.616,44.464z M38.709,29.476
				c-0.347-0.102-0.938-0.24-1.735-0.24c-3.053,0-5.516,2.878-5.516,6.243c0,1.528,0.763,2.638,2.291,2.638
				c2.011,0,3.85-2.568,4.231-4.72L38.709,29.476z"/>
		</g>
	</g>
	<g id="sale_1_">
	</g>
	<g id="sale">
	</g>
</g>
<g id="help">
</g>
</svg>
