<?xml version="1.0" encoding="utf-8"?>
<!-- Generator: Adobe Illustrator 17.0.1, SVG Export Plug-In . SVG Version: 6.00 Build 0)  -->
<!DOCTYPE svg PUBLIC "-//W3C//DTD SVG 1.0//EN" "http://www.w3.org/TR/2001/REC-SVG-20010904/DTD/svg10.dtd">
<svg version="1.0" id="Layer_1" xmlns="http://www.w3.org/2000/svg" xmlns:xlink="http://www.w3.org/1999/xlink" x="0px" y="0px"
	 width="260px" height="48px" viewBox="0 0 260 48" enable-background="new 0 0 260 48" xml:space="preserve">
<g>
	<polygon fill="#29ABE2" points="39.699,0 27.789,0 19.848,0 0,0 0,8 20,8 20,21.848 23.838,19.58 26,20.881 26,20 27,20 27,21.345 
		28,21.848 28,8 39,8 39,48 48,48 48,8.236 48,0 	"/>
	<polygon fill="#2391AF" points="28,39 28,29 20,29 20,39 8,39 8,8 0,8 0,39.43 0,48 7.938,48 19.848,48 27.789,48 48,48 48,39 	"/>
	<rect x="23.257" y="24.27" fill="#666666" width="1.329" height="1.329"/>
</g>
<g>
	<path fill="#2391AF" d="M79.102,14.341h-10.83v7.534h9.952v5.607h-9.952v11.921h-6.913V8.712h17.743V14.341z"/>
	<path fill="#2391AF" d="M91.066,39.403h-6.913V8.712h6.913V39.403z"/>
	<path fill="#2391AF" d="M125.653,39.403h-6.977l-12.649-19.284c-0.742-1.127-1.256-1.976-1.541-2.547H104.4
		c0.114,1.085,0.171,2.74,0.171,4.965v16.865h-6.528V8.712h7.448l12.178,18.684c0.557,0.842,1.07,1.677,1.541,2.504h0.086
		c-0.114-0.713-0.171-2.119-0.171-4.216V8.712h6.528V39.403z"/>
	<path fill="#2391AF" d="M132.673,39.403V8.712h10.873c10.901,0,16.352,4.987,16.352,14.96c0,4.78-1.487,8.597-4.462,11.45
		c-2.975,2.854-6.938,4.28-11.889,4.28H132.673z M139.586,14.341v19.455h3.424c2.996,0,5.347-0.899,7.052-2.697
		c1.705-1.798,2.558-4.245,2.558-7.341c0-2.925-0.845-5.226-2.536-6.902c-1.691-1.676-4.063-2.515-7.116-2.515H139.586z"/>
	<path fill="#29ABE2" d="M177.96,39.938c-4.395,0-7.976-1.43-10.744-4.291c-2.768-2.861-4.152-6.588-4.152-11.183
		c0-4.851,1.405-8.775,4.216-11.771c2.811-2.996,6.535-4.495,11.172-4.495c4.38,0,7.922,1.434,10.626,4.302
		c2.704,2.868,4.056,6.649,4.056,11.343c0,4.823-1.402,8.711-4.205,11.664C186.126,38.462,182.469,39.938,177.96,39.938z
		 M178.26,14.148c-2.426,0-4.352,0.91-5.779,2.729c-1.427,1.819-2.14,4.227-2.14,7.223c0,3.039,0.713,5.444,2.14,7.213
		c1.427,1.769,3.296,2.654,5.607,2.654c2.383,0,4.273-0.86,5.672-2.579c1.398-1.719,2.098-4.106,2.098-7.159
		c0-3.182-0.678-5.657-2.033-7.427C182.469,15.033,180.614,14.148,178.26,14.148z"/>
	<path fill="#29ABE2" d="M233.201,39.403h-6.827V21.04c0-1.983,0.086-4.174,0.257-6.571h-0.171
		c-0.357,1.884-0.678,3.239-0.963,4.066l-7.191,20.868h-5.65l-7.32-20.653c-0.2-0.557-0.521-1.983-0.963-4.281h-0.193
		c0.185,3.025,0.278,5.679,0.278,7.962v16.972h-6.228V8.712h10.123l6.271,18.192c0.499,1.455,0.863,2.918,1.092,4.388h0.128
		c0.385-1.698,0.792-3.175,1.22-4.43l6.271-18.149h9.867V39.403z"/>
	<path fill="#29ABE2" d="M258.584,39.403h-18.406V8.712h17.7v5.629h-10.787v6.827h10.038v5.607h-10.038v7.02h11.493V39.403z"/>
</g>
</svg>
