<?xml version="1.0" encoding="utf-8"?>
<!-- Generator: Adobe Illustrator 17.0.1, SVG Export Plug-In . SVG Version: 6.00 Build 0)  -->
<!DOCTYPE svg PUBLIC "-//W3C//DTD SVG 1.1//EN" "http://www.w3.org/Graphics/SVG/1.1/DTD/svg11.dtd">
<svg version="1.1" id="Слой_1" xmlns="http://www.w3.org/2000/svg" xmlns:xlink="http://www.w3.org/1999/xlink" x="0px" y="0px"
	 width="36.683px" height="36.683px" viewBox="179.654 -150.718 36.683 36.683"
	 enable-background="new 179.654 -150.718 36.683 36.683" xml:space="preserve">
<symbol  id="balance_10_" viewBox="-155.129 -155.13 310.259 310.26">
	<g>
		<path fill="#FFFFFF" stroke="#4D4D4D" stroke-width="4" stroke-miterlimit="10" d="M153.13,0
			c0-84.571-68.558-153.13-153.13-153.13S-153.129-84.571-153.129,0S-84.571,153.13,0,153.13S153.13,84.571,153.13,0z"/>
	</g>
	<path fill="#808080" d="M92.123-42L59.022,61.948l7.962,0.785l-0.68,6.898L9.586,64.037C7.144,72.932,0,89.38,0,89.38
		s-8.308-19.126-10.067-27.281l-56.917-5.614l0.68-6.898l7.399,0.73L-92.122-54h-4.294c4.579-32,28.442-38.238,38.447-38.238
		C-47.385-92.237-24.1-86-19.521-54h-4.294L-57.09,50.495l47.73,4.708c1.679-3.484,5.234-5.895,9.361-5.895
		c4.847,0,8.908,3.322,10.059,7.81l46.789,4.615L23.816-42h-4.294c4.579-32,28.442-38.238,38.447-38.238
		C68.553-80.237,91.837-74,96.417-42H92.123z M-27.336-54h-61.265l30.632,98.141L-27.336-54z M0,56.528
		c-1.755,0-3.177,1.422-3.177,3.177S-1.755,62.882,0,62.882s3.177-1.422,3.177-3.177C3.177,57.951,1.755,56.528,0,56.528z
		 M27.337-42l30.632,98.141L88.602-42H27.337z"/>
</symbol>
<g id="HP">
</g>
<g id="balance">
</g>
<g id="balance_3_">
</g>
<g id="balance_2_">
</g>
<g id="balance_1_">
</g>
<text transform="matrix(1 0 0 1 50.4707 15.7839)" fill="#808080" font-family="'SegoeUI-Semilight'" font-size="12.0886">Свободная</text>
<text transform="matrix(1 0 0 1 50.4707 32.4546)" fill="#808080" font-family="'SegoeUI-Semilight'" font-size="12.0886">квартира</text>
<text transform="matrix(1 0 0 1 184.6313 15.7839)" fill="#808080" font-family="'SegoeUI-Semilight'" font-size="12.0886">Забронированная</text>
<text transform="matrix(1 0 0 1 184.6313 32.4546)" fill="#808080" font-family="'SegoeUI-Semilight'" font-size="12.0886">квартира</text>
<text transform="matrix(1 0 0 1 355.5073 15.7839)" fill="#808080" font-family="'SegoeUI-Semilight'" font-size="12.0886">Добавить в </text>
<text transform="matrix(1 0 0 1 355.5073 32.4546)" fill="#808080" font-family="'SegoeUI-Semilight'" font-size="12.0886">сравнение</text>
<text transform="matrix(1 0 0 1 483.3169 15.7839)" fill="#808080" font-family="'SegoeUI-Semilight'" font-size="12.0886">Добавлено в</text>
<text transform="matrix(1 0 0 1 483.3169 32.4546)" fill="#808080" font-family="'SegoeUI-Semilight'" font-size="12.0886">сравнение</text>
<text transform="matrix(1 0 0 1 633.355 15.7839)" fill="#808080" font-family="'SegoeUI-Semilight'" font-size="12.0886">Уведомить,если</text>
<text transform="matrix(1 0 0 1 633.355 32.4546)" fill="#808080" font-family="'SegoeUI-Semilight'" font-size="12.0886">бронь снимется</text>
<text transform="matrix(1 0 0 1 801.8491 15.7839)" fill="#808080" font-family="'SegoeUI-Semilight'" font-size="12.0886">Уведомление будет</text>
<text transform="matrix(1 0 0 1 801.8491 32.4546)" fill="#808080" font-family="'SegoeUI-Semilight'" font-size="12.0886">отправлено</text>
<use xlink:href="#balance_10_"  width="310.259" height="310.26" id="XMLID_13_" x="-155.129" y="-155.13" transform="matrix(0.1206 0 0 -0.1206 326.339 18.9999)" overflow="visible"/>
<g>
	<g>
		<circle fill="#FFFFFF" cx="21.677" cy="19.637" r="18.027"/>
		<path fill="#4D4D4D" d="M21.677,37.98c-10.114,0-18.343-8.228-18.343-18.343S11.563,1.294,21.677,1.294S40.02,9.523,40.02,19.637
			S31.792,37.98,21.677,37.98z M21.677,1.925c-9.766,0-17.712,7.945-17.712,17.712s7.945,17.712,17.712,17.712
			c9.766,0,17.712-7.945,17.712-17.712S31.443,1.925,21.677,1.925z"/>
	</g>
	<g>
		<path fill="#4D4D4D" d="M21.547,23.905V16.44c-0.136,0.117-0.288,0.229-0.457,0.337s-0.342,0.211-0.518,0.306
			c-0.177,0.095-0.354,0.18-0.53,0.256c-0.177,0.076-0.341,0.139-0.492,0.189v-0.657c0.458-0.148,0.895-0.35,1.313-0.608
			c0.417-0.258,0.822-0.556,1.213-0.894h0.216v8.537H21.547z"/>
	</g>
</g>
<g>
	<circle fill="#C64747" cx="153.996" cy="19.624" r="18.342"/>
	<text transform="matrix(1 0 0 1 144.4077 23.614)" fill="#F2F2F2" font-family="'SegoeUI-Semilight'" font-size="12.1334">225</text>
</g>
<g>
	<circle fill="#C64747" cx="197.996" cy="-132.376" r="18.342"/>
	<text transform="matrix(1 0 0 1 188.4077 -128.386)" fill="#F2F2F2" font-family="'SegoeUI-Semilight'" font-size="12.1334">225</text>
</g>
<g>
	<g>
		<circle fill="#FFFFFF" stroke="#4D4D4D" stroke-width="0.3496" stroke-miterlimit="10" cx="604.467" cy="19.166" r="15.937"/>
	</g>
	<g>
		<g>
			<path fill="#7F7F7F" d="M601.293,25.094c0.125,0.304,0.331,0.51,0.622,0.63c0.298,0.124,0.587,0.118,0.879-0.008
				s0.5-0.327,0.62-0.617l-2.122-0.88C601.171,24.51,601.171,24.801,601.293,25.094z"/>
			<path fill="#7F7F7F" d="M609.028,26.286c-0.192-0.935-0.239-1.872-0.15-2.801c0.089-0.926,0.358-2.209,0.801-3.847
				c0.258-0.954,0.205-1.872-0.001-2.536c-0.102-0.33-0.243-0.649-0.43-0.956c-0.367-0.604-0.719-0.962-1.156-1.313
				c0.065-0.354,0.01-0.691-0.169-1.018c-0.176-0.323-0.432-0.56-0.778-0.704c-0.338-0.141-0.688-0.156-1.04-0.051
				s-0.629,0.306-0.834,0.603c-0.557-0.062-1.061-0.061-1.754,0.107c-0.343,0.083-0.669,0.208-0.98,0.372
				c-0.611,0.322-1.297,0.937-1.789,1.793c-0.845,1.472-1.569,2.564-2.164,3.283c-0.593,0.717-1.286,1.347-2.081,1.874
				c-0.076,0.05-0.133,0.107-0.166,0.182c-0.026,0.062-0.036,0.124-0.026,0.2c0.02,0.163,0.104,0.277,0.256,0.341l11.902,4.937
				c0.152,0.063,0.292,0.039,0.422-0.06c0.054-0.051,0.093-0.107,0.119-0.169C609.043,26.446,609.046,26.37,609.028,26.286z
				 M597.579,21.335c0.71-0.539,1.349-1.191,1.914-1.936c0.566-0.747,1.222-1.771,1.978-3.052c0.657-1.113,1.503-1.634,2.359-1.8
				c0.607-0.118,1.084-0.114,1.605-0.023c0.188,0.033,0.363-0.076,0.436-0.249l0.006-0.014c0.152-0.367,0.586-0.535,0.953-0.382
				c0.38,0.157,0.554,0.579,0.402,0.944l-0.006,0.014c-0.071,0.173-0.012,0.375,0.145,0.489c0.427,0.313,0.78,0.635,1.111,1.149
				c0.166,0.258,0.299,0.523,0.388,0.801c0.183,0.564,0.217,1.33,0.004,2.14c-0.379,1.438-0.633,2.621-0.76,3.549
				s-0.132,1.841-0.016,2.732L597.579,21.335z"/>
		</g>
	</g>
</g>
<g>
	<g>
		<circle fill="#FFFFFF" stroke="#4D4D4D" stroke-width="0.3496" stroke-miterlimit="10" cx="773.794" cy="18.869" r="15.937"/>
	</g>
	<g>
		<path fill="#BA3636" d="M770.71,24.104c0.125,0.304,0.331,0.51,0.622,0.63c0.298,0.124,0.587,0.118,0.879-0.008
			c0.292-0.126,0.5-0.327,0.62-0.617l-2.122-0.88C770.587,23.519,770.589,23.811,770.71,24.104z"/>
		<path fill="#BA3636" d="M778.445,25.296c-0.192-0.935-0.239-1.872-0.15-2.801c0.089-0.926,0.358-2.209,0.801-3.847
			c0.258-0.954,0.205-1.872-0.001-2.536c-0.102-0.33-0.243-0.649-0.43-0.956c-0.367-0.604-0.719-0.962-1.156-1.313
			c0.065-0.354,0.01-0.691-0.169-1.018c-0.176-0.323-0.432-0.56-0.778-0.704c-0.338-0.141-0.688-0.156-1.04-0.051
			c-0.351,0.105-0.63,0.306-0.834,0.603c-0.557-0.061-1.061-0.061-1.754,0.107c-0.343,0.083-0.669,0.208-0.98,0.372
			c-0.611,0.322-1.297,0.937-1.789,1.793c-0.845,1.472-1.569,2.564-2.164,3.283c-0.593,0.717-1.286,1.347-2.081,1.874
			c-0.076,0.05-0.133,0.107-0.164,0.182c-0.026,0.062-0.036,0.124-0.026,0.2c0.02,0.163,0.104,0.277,0.256,0.341l11.902,4.937
			c0.152,0.063,0.292,0.039,0.422-0.06c0.054-0.051,0.093-0.107,0.119-0.169C778.461,25.455,778.463,25.379,778.445,25.296z"/>
	</g>
</g>
<g id="base_x5F_layer_2_">
	<g id="balance_8_">
		<circle fill="#FFFFFF" stroke="#4D4D4D" stroke-width="0.4889" stroke-miterlimit="10" cx="457.367" cy="19" r="18.709"/>
		<polyline fill="none" stroke="#2FADE2" stroke-width="2" stroke-linecap="round" stroke-miterlimit="10" points="447.805,17.721 
			456.29,28.011 466.928,11.454 		"/>
	</g>
</g>
</svg>
