<?xml version="1.0" encoding="utf-8"?>
<!-- Generator: Adobe Illustrator 17.0.1, SVG Export Plug-In . SVG Version: 6.00 Build 0)  -->
<!DOCTYPE svg PUBLIC "-//W3C//DTD SVG 1.1//EN" "http://www.w3.org/Graphics/SVG/1.1/DTD/svg11.dtd">
<svg version="1.1" id="Layer_2" xmlns="http://www.w3.org/2000/svg" xmlns:xlink="http://www.w3.org/1999/xlink" x="0px" y="0px"
	 width="100px" height="400px" viewBox="0 0 100 400" enable-background="new 0 0 100 400" xml:space="preserve">
<symbol  id="New_Symbol_2_1_" viewBox="-229.968 -41.711 459.935 83.423">
	<path fill="#29ABE2" d="M-229.968,41.712v-83.423h459.935v83.423H-229.968z"/>
</symbol>
<g id="New_Symbol_1">
</g>
<g id="New_Symbol">
</g>
<g id="New_Symbol_2">
</g>
<g>
	<g>
		
			<use xlink:href="#New_Symbol_2_1_"  width="459.935" height="83.423" id="XMLID_35_" x="-229.968" y="-41.711" transform="matrix(0.2174 0 0 -0.1918 50 168.0001)" overflow="visible"/>
		<g>
			<rect x="2.167" y="164.529" fill="#FFFFFF" width="7.61" height="8.822"/>
			<rect x="11.951" y="164.529" fill="#FFFFFF" width="7.61" height="8.822"/>
			<rect x="21.735" y="164.529" fill="#FFFFFF" width="7.61" height="8.822"/>
			<rect x="31.519" y="164.529" fill="#FFFFFF" width="7.61" height="8.822"/>
			<rect x="41.303" y="164.529" fill="#FFFFFF" width="7.61" height="8.822"/>
			<rect x="51.087" y="164.529" fill="#FFFFFF" width="7.61" height="8.822"/>
			<rect x="60.871" y="164.529" fill="#FFFFFF" width="7.61" height="8.822"/>
			<rect x="70.655" y="164.529" fill="#FFFFFF" width="7.61" height="8.822"/>
			<rect x="80.439" y="164.529" fill="#FFFFFF" width="7.61" height="8.822"/>
			<rect x="90.223" y="164.529" fill="#FFFFFF" width="7.61" height="8.822"/>
		</g>
	</g>
	<g>
		
			<use xlink:href="#New_Symbol_2_1_"  width="459.935" height="83.423" id="XMLID_34_" x="-229.968" y="-41.711" transform="matrix(0.2174 0 0 -0.1918 50 184.0001)" overflow="visible"/>
		<g>
			<rect x="2.167" y="180.529" fill="#FFFFFF" width="7.61" height="8.822"/>
			<rect x="11.951" y="180.529" fill="#FFFFFF" width="7.61" height="8.822"/>
			<rect x="21.735" y="180.529" fill="#FFFFFF" width="7.61" height="8.822"/>
			<rect x="31.519" y="180.529" fill="#FFFFFF" width="7.61" height="8.822"/>
			<rect x="41.303" y="180.529" fill="#FFFFFF" width="7.61" height="8.822"/>
			<rect x="51.087" y="180.529" fill="#FFFFFF" width="7.61" height="8.822"/>
			<rect x="60.871" y="180.529" fill="#FFFFFF" width="7.61" height="8.822"/>
			<rect x="70.655" y="180.529" fill="#FFFFFF" width="7.61" height="8.822"/>
			<rect x="80.439" y="180.529" fill="#FFFFFF" width="7.61" height="8.822"/>
			<rect x="90.223" y="180.529" fill="#FFFFFF" width="7.61" height="8.822"/>
		</g>
	</g>
	<g>
		
			<use xlink:href="#New_Symbol_2_1_"  width="459.935" height="83.423" id="XMLID_33_" x="-229.968" y="-41.711" transform="matrix(0.2174 0 0 -0.1918 50 200.0001)" overflow="visible"/>
		<g>
			<rect x="2.167" y="196.529" fill="#FFFFFF" width="7.61" height="8.822"/>
			<rect x="11.951" y="196.529" fill="#FFFFFF" width="7.61" height="8.822"/>
			<rect x="21.735" y="196.529" fill="#FFFFFF" width="7.61" height="8.822"/>
			<rect x="31.519" y="196.529" fill="#FFFFFF" width="7.61" height="8.822"/>
			<rect x="41.303" y="196.529" fill="#FFFFFF" width="7.61" height="8.822"/>
			<rect x="51.087" y="196.529" fill="#FFFFFF" width="7.61" height="8.822"/>
			<rect x="60.871" y="196.529" fill="#FFFFFF" width="7.61" height="8.822"/>
			<rect x="70.655" y="196.529" fill="#FFFFFF" width="7.61" height="8.822"/>
			<rect x="80.439" y="196.529" fill="#FFFFFF" width="7.61" height="8.822"/>
			<rect x="90.223" y="196.529" fill="#FFFFFF" width="7.61" height="8.822"/>
		</g>
	</g>
	<g>
		
			<use xlink:href="#New_Symbol_2_1_"  width="459.935" height="83.423" id="XMLID_32_" x="-229.968" y="-41.711" transform="matrix(0.2174 0 0 -0.1918 50 216.0001)" overflow="visible"/>
		<g>
			<rect x="2.167" y="212.529" fill="#FFFFFF" width="7.61" height="8.822"/>
			<rect x="11.951" y="212.529" fill="#FFFFFF" width="7.61" height="8.822"/>
			<rect x="21.735" y="212.529" fill="#FFFFFF" width="7.61" height="8.822"/>
			<rect x="31.519" y="212.529" fill="#FFFFFF" width="7.61" height="8.822"/>
			<rect x="41.303" y="212.529" fill="#FFFFFF" width="7.61" height="8.822"/>
			<rect x="51.087" y="212.529" fill="#FFFFFF" width="7.61" height="8.822"/>
			<rect x="60.871" y="212.529" fill="#FFFFFF" width="7.61" height="8.822"/>
			<rect x="70.655" y="212.529" fill="#FFFFFF" width="7.61" height="8.822"/>
			<rect x="80.439" y="212.529" fill="#FFFFFF" width="7.61" height="8.822"/>
			<rect x="90.223" y="212.529" fill="#FFFFFF" width="7.61" height="8.822"/>
		</g>
	</g>
	<g>
		
			<use xlink:href="#New_Symbol_2_1_"  width="459.935" height="83.423" id="XMLID_31_" x="-229.968" y="-41.711" transform="matrix(0.2174 0 0 -0.1918 50 232.0001)" overflow="visible"/>
		<g>
			<rect x="2.167" y="228.529" fill="#FFFFFF" width="7.61" height="8.822"/>
			<rect x="11.951" y="228.529" fill="#FFFFFF" width="7.61" height="8.822"/>
			<rect x="21.735" y="228.529" fill="#FFFFFF" width="7.61" height="8.822"/>
			<rect x="31.519" y="228.529" fill="#FFFFFF" width="7.61" height="8.822"/>
			<rect x="41.303" y="228.529" fill="#FFFFFF" width="7.61" height="8.822"/>
			<rect x="51.087" y="228.529" fill="#FFFFFF" width="7.61" height="8.822"/>
			<rect x="60.871" y="228.529" fill="#FFFFFF" width="7.61" height="8.822"/>
			<rect x="70.655" y="228.529" fill="#FFFFFF" width="7.61" height="8.822"/>
			<rect x="80.439" y="228.529" fill="#FFFFFF" width="7.61" height="8.822"/>
			<rect x="90.223" y="228.529" fill="#FFFFFF" width="7.61" height="8.822"/>
		</g>
	</g>
	<g>
		
			<use xlink:href="#New_Symbol_2_1_"  width="459.935" height="83.423" id="XMLID_30_" x="-229.968" y="-41.711" transform="matrix(0.2174 0 0 -0.1918 50 248.0001)" overflow="visible"/>
		<g>
			<rect x="2.167" y="244.529" fill="#FFFFFF" width="7.61" height="8.822"/>
			<rect x="11.951" y="244.529" fill="#FFFFFF" width="7.61" height="8.822"/>
			<rect x="21.735" y="244.529" fill="#FFFFFF" width="7.61" height="8.822"/>
			<rect x="31.519" y="244.529" fill="#FFFFFF" width="7.61" height="8.822"/>
			<rect x="41.303" y="244.529" fill="#FFFFFF" width="7.61" height="8.822"/>
			<rect x="51.087" y="244.529" fill="#FFFFFF" width="7.61" height="8.822"/>
			<rect x="60.871" y="244.529" fill="#FFFFFF" width="7.61" height="8.822"/>
			<rect x="70.655" y="244.529" fill="#FFFFFF" width="7.61" height="8.822"/>
			<rect x="80.439" y="244.529" fill="#FFFFFF" width="7.61" height="8.822"/>
			<rect x="90.223" y="244.529" fill="#FFFFFF" width="7.61" height="8.822"/>
		</g>
	</g>
	<g>
		
			<use xlink:href="#New_Symbol_2_1_"  width="459.935" height="83.423" id="XMLID_29_" x="-229.968" y="-41.711" transform="matrix(0.2174 0 0 -0.1918 50 264.0001)" overflow="visible"/>
		<g>
			<rect x="2.167" y="260.529" fill="#FFFFFF" width="7.61" height="8.822"/>
			<rect x="11.951" y="260.529" fill="#FFFFFF" width="7.61" height="8.822"/>
			<rect x="21.735" y="260.529" fill="#FFFFFF" width="7.61" height="8.822"/>
			<rect x="31.519" y="260.529" fill="#FFFFFF" width="7.61" height="8.822"/>
			<rect x="41.303" y="260.529" fill="#FFFFFF" width="7.61" height="8.822"/>
			<rect x="51.087" y="260.529" fill="#FFFFFF" width="7.61" height="8.822"/>
			<rect x="60.871" y="260.529" fill="#FFFFFF" width="7.61" height="8.822"/>
			<rect x="70.655" y="260.529" fill="#FFFFFF" width="7.61" height="8.822"/>
			<rect x="80.439" y="260.529" fill="#FFFFFF" width="7.61" height="8.822"/>
			<rect x="90.223" y="260.529" fill="#FFFFFF" width="7.61" height="8.822"/>
		</g>
	</g>
	<g>
		
			<use xlink:href="#New_Symbol_2_1_"  width="459.935" height="83.423" id="XMLID_28_" x="-229.968" y="-41.711" transform="matrix(0.2174 0 0 -0.1918 50 280.0001)" overflow="visible"/>
		<g>
			<rect x="2.167" y="276.529" fill="#FFFFFF" width="7.61" height="8.822"/>
			<rect x="11.951" y="276.529" fill="#FFFFFF" width="7.61" height="8.822"/>
			<rect x="21.735" y="276.529" fill="#FFFFFF" width="7.61" height="8.822"/>
			<rect x="31.519" y="276.529" fill="#FFFFFF" width="7.61" height="8.822"/>
			<rect x="41.303" y="276.529" fill="#FFFFFF" width="7.61" height="8.822"/>
			<rect x="51.087" y="276.529" fill="#FFFFFF" width="7.61" height="8.822"/>
			<rect x="60.871" y="276.529" fill="#FFFFFF" width="7.61" height="8.822"/>
			<rect x="70.655" y="276.529" fill="#FFFFFF" width="7.61" height="8.822"/>
			<rect x="80.439" y="276.529" fill="#FFFFFF" width="7.61" height="8.822"/>
			<rect x="90.223" y="276.529" fill="#FFFFFF" width="7.61" height="8.822"/>
		</g>
	</g>
	<g>
		
			<use xlink:href="#New_Symbol_2_1_"  width="459.935" height="83.423" id="XMLID_27_" x="-229.968" y="-41.711" transform="matrix(0.2174 0 0 -0.1918 50 296.0001)" overflow="visible"/>
		<g>
			<rect x="2.167" y="292.529" fill="#FFFFFF" width="7.61" height="8.822"/>
			<rect x="11.951" y="292.529" fill="#FFFFFF" width="7.61" height="8.822"/>
			<rect x="21.735" y="292.529" fill="#FFFFFF" width="7.61" height="8.822"/>
			<rect x="31.519" y="292.529" fill="#FFFFFF" width="7.61" height="8.822"/>
			<rect x="41.303" y="292.529" fill="#FFFFFF" width="7.61" height="8.822"/>
			<rect x="51.087" y="292.529" fill="#FFFFFF" width="7.61" height="8.822"/>
			<rect x="60.871" y="292.529" fill="#FFFFFF" width="7.61" height="8.822"/>
			<rect x="70.655" y="292.529" fill="#FFFFFF" width="7.61" height="8.822"/>
			<rect x="80.439" y="292.529" fill="#FFFFFF" width="7.61" height="8.822"/>
			<rect x="90.223" y="292.529" fill="#FFFFFF" width="7.61" height="8.822"/>
		</g>
	</g>
	<g>
		
			<use xlink:href="#New_Symbol_2_1_"  width="459.935" height="83.423" id="XMLID_26_" x="-229.968" y="-41.711" transform="matrix(0.2174 0 0 -0.1918 50 312.0001)" overflow="visible"/>
		<g>
			<rect x="2.167" y="308.529" fill="#FFFFFF" width="7.61" height="8.822"/>
			<rect x="11.951" y="308.529" fill="#FFFFFF" width="7.61" height="8.822"/>
			<rect x="21.735" y="308.529" fill="#FFFFFF" width="7.61" height="8.822"/>
			<rect x="31.519" y="308.529" fill="#FFFFFF" width="7.61" height="8.822"/>
			<rect x="41.303" y="308.529" fill="#FFFFFF" width="7.61" height="8.822"/>
			<rect x="51.087" y="308.529" fill="#FFFFFF" width="7.61" height="8.822"/>
			<rect x="60.871" y="308.529" fill="#FFFFFF" width="7.61" height="8.822"/>
			<rect x="70.655" y="308.529" fill="#FFFFFF" width="7.61" height="8.822"/>
			<rect x="80.439" y="308.529" fill="#FFFFFF" width="7.61" height="8.822"/>
			<rect x="90.223" y="308.529" fill="#FFFFFF" width="7.61" height="8.822"/>
		</g>
	</g>
	<g>
		<g>
			
				<use xlink:href="#New_Symbol_2_1_"  width="459.935" height="83.423" id="XMLID_45_" x="-229.968" y="-41.711" transform="matrix(0.2174 0 0 -0.1918 50 8.0001)" overflow="visible"/>
			<g>
				<rect x="2.167" y="4.529" fill="#FFFFFF" width="7.61" height="8.822"/>
				<rect x="11.951" y="4.529" fill="#FFFFFF" width="7.61" height="8.822"/>
				<rect x="21.735" y="4.529" fill="#FFFFFF" width="7.61" height="8.822"/>
				<rect x="31.519" y="4.529" fill="#FFFFFF" width="7.61" height="8.822"/>
				<rect x="41.303" y="4.529" fill="#FFFFFF" width="7.61" height="8.822"/>
				<rect x="51.087" y="4.529" fill="#FFFFFF" width="7.61" height="8.822"/>
				<rect x="60.871" y="4.529" fill="#FFFFFF" width="7.61" height="8.822"/>
				<rect x="70.655" y="4.529" fill="#FFFFFF" width="7.61" height="8.822"/>
				<rect x="80.439" y="4.529" fill="#FFFFFF" width="7.61" height="8.822"/>
				<rect x="90.223" y="4.529" fill="#FFFFFF" width="7.61" height="8.822"/>
			</g>
		</g>
		<g>
			
				<use xlink:href="#New_Symbol_2_1_"  width="459.935" height="83.423" id="XMLID_44_" x="-229.968" y="-41.711" transform="matrix(0.2174 0 0 -0.1918 50 24.0001)" overflow="visible"/>
			<g>
				<rect x="2.167" y="20.529" fill="#FFFFFF" width="7.61" height="8.822"/>
				<rect x="11.951" y="20.529" fill="#FFFFFF" width="7.61" height="8.822"/>
				<rect x="21.735" y="20.529" fill="#FFFFFF" width="7.61" height="8.822"/>
				<rect x="31.519" y="20.529" fill="#FFFFFF" width="7.61" height="8.822"/>
				<rect x="41.303" y="20.529" fill="#FFFFFF" width="7.61" height="8.822"/>
				<rect x="51.087" y="20.529" fill="#FFFFFF" width="7.61" height="8.822"/>
				<rect x="60.871" y="20.529" fill="#FFFFFF" width="7.61" height="8.822"/>
				<rect x="70.655" y="20.529" fill="#FFFFFF" width="7.61" height="8.822"/>
				<rect x="80.439" y="20.529" fill="#FFFFFF" width="7.61" height="8.822"/>
				<rect x="90.223" y="20.529" fill="#FFFFFF" width="7.61" height="8.822"/>
			</g>
		</g>
		<g>
			
				<use xlink:href="#New_Symbol_2_1_"  width="459.935" height="83.423" id="XMLID_43_" x="-229.968" y="-41.711" transform="matrix(0.2174 0 0 -0.1918 50 40.0001)" overflow="visible"/>
			<g>
				<rect x="2.167" y="36.529" fill="#FFFFFF" width="7.61" height="8.822"/>
				<rect x="11.951" y="36.529" fill="#FFFFFF" width="7.61" height="8.822"/>
				<rect x="21.735" y="36.529" fill="#FFFFFF" width="7.61" height="8.822"/>
				<rect x="31.519" y="36.529" fill="#FFFFFF" width="7.61" height="8.822"/>
				<rect x="41.303" y="36.529" fill="#FFFFFF" width="7.61" height="8.822"/>
				<rect x="51.087" y="36.529" fill="#FFFFFF" width="7.61" height="8.822"/>
				<rect x="60.871" y="36.529" fill="#FFFFFF" width="7.61" height="8.822"/>
				<rect x="70.655" y="36.529" fill="#FFFFFF" width="7.61" height="8.822"/>
				<rect x="80.439" y="36.529" fill="#FFFFFF" width="7.61" height="8.822"/>
				<rect x="90.223" y="36.529" fill="#FFFFFF" width="7.61" height="8.822"/>
			</g>
		</g>
		<g>
			
				<use xlink:href="#New_Symbol_2_1_"  width="459.935" height="83.423" id="XMLID_42_" x="-229.968" y="-41.711" transform="matrix(0.2174 0 0 -0.1918 50 56.0001)" overflow="visible"/>
			<g>
				<rect x="2.167" y="52.529" fill="#FFFFFF" width="7.61" height="8.822"/>
				<rect x="11.951" y="52.529" fill="#FFFFFF" width="7.61" height="8.822"/>
				<rect x="21.735" y="52.529" fill="#FFFFFF" width="7.61" height="8.822"/>
				<rect x="31.519" y="52.529" fill="#FFFFFF" width="7.61" height="8.822"/>
				<rect x="41.303" y="52.529" fill="#FFFFFF" width="7.61" height="8.822"/>
				<rect x="51.087" y="52.529" fill="#FFFFFF" width="7.61" height="8.822"/>
				<rect x="60.871" y="52.529" fill="#FFFFFF" width="7.61" height="8.822"/>
				<rect x="70.655" y="52.529" fill="#FFFFFF" width="7.61" height="8.822"/>
				<rect x="80.439" y="52.529" fill="#FFFFFF" width="7.61" height="8.822"/>
				<rect x="90.223" y="52.529" fill="#FFFFFF" width="7.61" height="8.822"/>
			</g>
		</g>
		<g>
			
				<use xlink:href="#New_Symbol_2_1_"  width="459.935" height="83.423" id="XMLID_41_" x="-229.968" y="-41.711" transform="matrix(0.2174 0 0 -0.1918 50 72.0001)" overflow="visible"/>
			<g>
				<rect x="2.167" y="68.529" fill="#FFFFFF" width="7.61" height="8.822"/>
				<rect x="11.951" y="68.529" fill="#FFFFFF" width="7.61" height="8.822"/>
				<rect x="21.735" y="68.529" fill="#FFFFFF" width="7.61" height="8.822"/>
				<rect x="31.519" y="68.529" fill="#FFFFFF" width="7.61" height="8.822"/>
				<rect x="41.303" y="68.529" fill="#FFFFFF" width="7.61" height="8.822"/>
				<rect x="51.087" y="68.529" fill="#FFFFFF" width="7.61" height="8.822"/>
				<rect x="60.871" y="68.529" fill="#FFFFFF" width="7.61" height="8.822"/>
				<rect x="70.655" y="68.529" fill="#FFFFFF" width="7.61" height="8.822"/>
				<rect x="80.439" y="68.529" fill="#FFFFFF" width="7.61" height="8.822"/>
				<rect x="90.223" y="68.529" fill="#FFFFFF" width="7.61" height="8.822"/>
			</g>
		</g>
		<g>
			
				<use xlink:href="#New_Symbol_2_1_"  width="459.935" height="83.423" id="XMLID_40_" x="-229.968" y="-41.711" transform="matrix(0.2174 0 0 -0.1918 50 88.0001)" overflow="visible"/>
			<g>
				<rect x="2.167" y="84.529" fill="#FFFFFF" width="7.61" height="8.822"/>
				<rect x="11.951" y="84.529" fill="#FFFFFF" width="7.61" height="8.822"/>
				<rect x="21.735" y="84.529" fill="#FFFFFF" width="7.61" height="8.822"/>
				<rect x="31.519" y="84.529" fill="#FFFFFF" width="7.61" height="8.822"/>
				<rect x="41.303" y="84.529" fill="#FFFFFF" width="7.61" height="8.822"/>
				<rect x="51.087" y="84.529" fill="#FFFFFF" width="7.61" height="8.822"/>
				<rect x="60.871" y="84.529" fill="#FFFFFF" width="7.61" height="8.822"/>
				<rect x="70.655" y="84.529" fill="#FFFFFF" width="7.61" height="8.822"/>
				<rect x="80.439" y="84.529" fill="#FFFFFF" width="7.61" height="8.822"/>
				<rect x="90.223" y="84.529" fill="#FFFFFF" width="7.61" height="8.822"/>
			</g>
		</g>
		<g>
			
				<use xlink:href="#New_Symbol_2_1_"  width="459.935" height="83.423" id="XMLID_39_" x="-229.968" y="-41.711" transform="matrix(0.2174 0 0 -0.1918 50 104.0001)" overflow="visible"/>
			<g>
				<rect x="2.167" y="100.529" fill="#FFFFFF" width="7.61" height="8.822"/>
				<rect x="11.951" y="100.529" fill="#FFFFFF" width="7.61" height="8.822"/>
				<rect x="21.735" y="100.529" fill="#FFFFFF" width="7.61" height="8.822"/>
				<rect x="31.519" y="100.529" fill="#FFFFFF" width="7.61" height="8.822"/>
				<rect x="41.303" y="100.529" fill="#FFFFFF" width="7.61" height="8.822"/>
				<rect x="51.087" y="100.529" fill="#FFFFFF" width="7.61" height="8.822"/>
				<rect x="60.871" y="100.529" fill="#FFFFFF" width="7.61" height="8.822"/>
				<rect x="70.655" y="100.529" fill="#FFFFFF" width="7.61" height="8.822"/>
				<rect x="80.439" y="100.529" fill="#FFFFFF" width="7.61" height="8.822"/>
				<rect x="90.223" y="100.529" fill="#FFFFFF" width="7.61" height="8.822"/>
			</g>
		</g>
		<g>
			
				<use xlink:href="#New_Symbol_2_1_"  width="459.935" height="83.423" id="XMLID_38_" x="-229.968" y="-41.711" transform="matrix(0.2174 0 0 -0.1918 50 120.0001)" overflow="visible"/>
			<g>
				<rect x="2.167" y="116.529" fill="#FFFFFF" width="7.61" height="8.822"/>
				<rect x="11.951" y="116.529" fill="#FFFFFF" width="7.61" height="8.822"/>
				<rect x="21.735" y="116.529" fill="#FFFFFF" width="7.61" height="8.822"/>
				<rect x="31.519" y="116.529" fill="#FFFFFF" width="7.61" height="8.822"/>
				<rect x="41.303" y="116.529" fill="#FFFFFF" width="7.61" height="8.822"/>
				<rect x="51.087" y="116.529" fill="#FFFFFF" width="7.61" height="8.822"/>
				<rect x="60.871" y="116.529" fill="#FFFFFF" width="7.61" height="8.822"/>
				<rect x="70.655" y="116.529" fill="#FFFFFF" width="7.61" height="8.822"/>
				<rect x="80.439" y="116.529" fill="#FFFFFF" width="7.61" height="8.822"/>
				<rect x="90.223" y="116.529" fill="#FFFFFF" width="7.61" height="8.822"/>
			</g>
		</g>
		<g>
			
				<use xlink:href="#New_Symbol_2_1_"  width="459.935" height="83.423" id="XMLID_37_" x="-229.968" y="-41.711" transform="matrix(0.2174 0 0 -0.1918 50 136.0001)" overflow="visible"/>
			<g>
				<rect x="2.167" y="132.529" fill="#FFFFFF" width="7.61" height="8.822"/>
				<rect x="11.951" y="132.529" fill="#FFFFFF" width="7.61" height="8.822"/>
				<rect x="21.735" y="132.529" fill="#FFFFFF" width="7.61" height="8.822"/>
				<rect x="31.519" y="132.529" fill="#FFFFFF" width="7.61" height="8.822"/>
				<rect x="41.303" y="132.529" fill="#FFFFFF" width="7.61" height="8.822"/>
				<rect x="51.087" y="132.529" fill="#FFFFFF" width="7.61" height="8.822"/>
				<rect x="60.871" y="132.529" fill="#FFFFFF" width="7.61" height="8.822"/>
				<rect x="70.655" y="132.529" fill="#FFFFFF" width="7.61" height="8.822"/>
				<rect x="80.439" y="132.529" fill="#FFFFFF" width="7.61" height="8.822"/>
				<rect x="90.223" y="132.529" fill="#FFFFFF" width="7.61" height="8.822"/>
			</g>
		</g>
		<g>
			
				<use xlink:href="#New_Symbol_2_1_"  width="459.935" height="83.423" id="XMLID_36_" x="-229.968" y="-41.711" transform="matrix(0.2174 0 0 -0.1918 50 152.0001)" overflow="visible"/>
			<g>
				<rect x="2.167" y="148.529" fill="#FFFFFF" width="7.61" height="8.822"/>
				<rect x="11.951" y="148.529" fill="#FFFFFF" width="7.61" height="8.822"/>
				<rect x="21.735" y="148.529" fill="#FFFFFF" width="7.61" height="8.822"/>
				<rect x="31.519" y="148.529" fill="#FFFFFF" width="7.61" height="8.822"/>
				<rect x="41.303" y="148.529" fill="#FFFFFF" width="7.61" height="8.822"/>
				<rect x="51.087" y="148.529" fill="#FFFFFF" width="7.61" height="8.822"/>
				<rect x="60.871" y="148.529" fill="#FFFFFF" width="7.61" height="8.822"/>
				<rect x="70.655" y="148.529" fill="#FFFFFF" width="7.61" height="8.822"/>
				<rect x="80.439" y="148.529" fill="#FFFFFF" width="7.61" height="8.822"/>
				<rect x="90.223" y="148.529" fill="#FFFFFF" width="7.61" height="8.822"/>
			</g>
		</g>
	</g>
	<g>
		
			<use xlink:href="#New_Symbol_2_1_"  width="459.935" height="83.423" id="XMLID_25_" x="-229.968" y="-41.711" transform="matrix(0.2174 0 0 -0.1918 50 328.0001)" overflow="visible"/>
		<g>
			<rect x="2.167" y="324.529" fill="#FFFFFF" width="7.61" height="8.822"/>
			<rect x="11.951" y="324.529" fill="#FFFFFF" width="7.61" height="8.822"/>
			<rect x="21.735" y="324.529" fill="#FFFFFF" width="7.61" height="8.822"/>
			<rect x="31.519" y="324.529" fill="#FFFFFF" width="7.61" height="8.822"/>
			<rect x="41.303" y="324.529" fill="#FFFFFF" width="7.61" height="8.822"/>
			<rect x="51.087" y="324.529" fill="#FFFFFF" width="7.61" height="8.822"/>
			<rect x="60.871" y="324.529" fill="#FFFFFF" width="7.61" height="8.822"/>
			<rect x="70.655" y="324.529" fill="#FFFFFF" width="7.61" height="8.822"/>
			<rect x="80.439" y="324.529" fill="#FFFFFF" width="7.61" height="8.822"/>
			<rect x="90.223" y="324.529" fill="#FFFFFF" width="7.61" height="8.822"/>
		</g>
	</g>
	<g>
		
			<use xlink:href="#New_Symbol_2_1_"  width="459.935" height="83.423" id="XMLID_24_" x="-229.968" y="-41.711" transform="matrix(0.2174 0 0 -0.1918 50 344.0001)" overflow="visible"/>
		<g>
			<rect x="2.167" y="340.529" fill="#FFFFFF" width="7.61" height="8.822"/>
			<rect x="11.951" y="340.529" fill="#FFFFFF" width="7.61" height="8.822"/>
			<rect x="21.735" y="340.529" fill="#FFFFFF" width="7.61" height="8.822"/>
			<rect x="31.519" y="340.529" fill="#FFFFFF" width="7.61" height="8.822"/>
			<rect x="41.303" y="340.529" fill="#FFFFFF" width="7.61" height="8.822"/>
			<rect x="51.087" y="340.529" fill="#FFFFFF" width="7.61" height="8.822"/>
			<rect x="60.871" y="340.529" fill="#FFFFFF" width="7.61" height="8.822"/>
			<rect x="70.655" y="340.529" fill="#FFFFFF" width="7.61" height="8.822"/>
			<rect x="80.439" y="340.529" fill="#FFFFFF" width="7.61" height="8.822"/>
			<rect x="90.223" y="340.529" fill="#FFFFFF" width="7.61" height="8.822"/>
		</g>
	</g>
	<g>
		
			<use xlink:href="#New_Symbol_2_1_"  width="459.935" height="83.423" id="XMLID_23_" x="-229.968" y="-41.711" transform="matrix(0.2174 0 0 -0.1918 50 360.0001)" overflow="visible"/>
		<g>
			<rect x="2.167" y="356.529" fill="#FFFFFF" width="7.61" height="8.822"/>
			<rect x="11.951" y="356.529" fill="#FFFFFF" width="7.61" height="8.822"/>
			<rect x="21.735" y="356.529" fill="#FFFFFF" width="7.61" height="8.822"/>
			<rect x="31.519" y="356.529" fill="#FFFFFF" width="7.61" height="8.822"/>
			<rect x="41.303" y="356.529" fill="#FFFFFF" width="7.61" height="8.822"/>
			<rect x="51.087" y="356.529" fill="#FFFFFF" width="7.61" height="8.822"/>
			<rect x="60.871" y="356.529" fill="#FFFFFF" width="7.61" height="8.822"/>
			<rect x="70.655" y="356.529" fill="#FFFFFF" width="7.61" height="8.822"/>
			<rect x="80.439" y="356.529" fill="#FFFFFF" width="7.61" height="8.822"/>
			<rect x="90.223" y="356.529" fill="#FFFFFF" width="7.61" height="8.822"/>
		</g>
	</g>
	<g>
		
			<use xlink:href="#New_Symbol_2_1_"  width="459.935" height="83.423" id="XMLID_22_" x="-229.968" y="-41.711" transform="matrix(0.2174 0 0 -0.1918 50 376.0001)" overflow="visible"/>
		<g>
			<rect x="2.167" y="372.529" fill="#FFFFFF" width="7.61" height="8.822"/>
			<rect x="11.951" y="372.529" fill="#FFFFFF" width="7.61" height="8.822"/>
			<rect x="21.735" y="372.529" fill="#FFFFFF" width="7.61" height="8.822"/>
			<rect x="31.519" y="372.529" fill="#FFFFFF" width="7.61" height="8.822"/>
			<rect x="41.303" y="372.529" fill="#FFFFFF" width="7.61" height="8.822"/>
			<rect x="51.087" y="372.529" fill="#FFFFFF" width="7.61" height="8.822"/>
			<rect x="60.871" y="372.529" fill="#FFFFFF" width="7.61" height="8.822"/>
			<rect x="70.655" y="372.529" fill="#FFFFFF" width="7.61" height="8.822"/>
			<rect x="80.439" y="372.529" fill="#FFFFFF" width="7.61" height="8.822"/>
			<rect x="90.223" y="372.529" fill="#FFFFFF" width="7.61" height="8.822"/>
		</g>
	</g>
	<g>
		
			<use xlink:href="#New_Symbol_2_1_"  width="459.935" height="83.423" id="XMLID_5_" x="-229.968" y="-41.711" transform="matrix(0.2174 0 0 -0.1918 50 392.0001)" overflow="visible"/>
		<g>
			<rect x="2.167" y="388.529" fill="#FFFFFF" width="7.61" height="8.822"/>
			<rect x="11.951" y="388.529" fill="#FFFFFF" width="7.61" height="8.822"/>
			<rect x="21.735" y="388.529" fill="#FFFFFF" width="7.61" height="8.822"/>
			<rect x="31.519" y="388.529" fill="#FFFFFF" width="7.61" height="8.822"/>
			<rect x="41.303" y="388.529" fill="#FFFFFF" width="7.61" height="8.822"/>
			<rect x="51.087" y="388.529" fill="#FFFFFF" width="7.61" height="8.822"/>
			<rect x="60.871" y="388.529" fill="#FFFFFF" width="7.61" height="8.822"/>
			<rect x="70.655" y="388.529" fill="#FFFFFF" width="7.61" height="8.822"/>
			<rect x="80.439" y="388.529" fill="#FFFFFF" width="7.61" height="8.822"/>
			<rect x="90.223" y="388.529" fill="#FFFFFF" width="7.61" height="8.822"/>
		</g>
	</g>
</g>
<g id="balance">
</g>
</svg>
