<?xml version="1.0" encoding="utf-8"?>
<!-- Generator: Adobe Illustrator 17.0.1, SVG Export Plug-In . SVG Version: 6.00 Build 0)  -->
<!DOCTYPE svg PUBLIC "-//W3C//DTD SVG 1.0//EN" "http://www.w3.org/TR/2001/REC-SVG-20010904/DTD/svg10.dtd">
<svg version="1.0" id="Layer_1" xmlns="http://www.w3.org/2000/svg" xmlns:xlink="http://www.w3.org/1999/xlink" x="0px" y="0px"
	 width="62px" height="27.279px" viewBox="0 0 62 27.279" enable-background="new 0 0 62 27.279" xml:space="preserve">
<g>
	<path fill="none" d="M39.146,18.493c0-4.555-3.647-8.248-8.146-8.248s-8.146,3.692-8.146,8.248c0,2.665,1.254,5.028,3.191,6.536
		h9.91C37.892,23.521,39.146,21.158,39.146,18.493z"/>
	<polygon fill="#F7AE1C" points="47.117,9.306 42.821,9.564 44.746,12.899 	"/>
	<polygon fill="#F7AE1C" points="17.254,24.324 16.789,25.029 17.661,25.029 	"/>
	<path fill="#F7AE1C" d="M22.854,18.493c0-4.556,3.647-8.248,8.146-8.248s8.146,3.693,8.146,8.248c0,2.665-1.254,5.028-3.191,6.536
		h3.864c1.309-1.8,2.09-4.008,2.09-6.404c0-6.025-4.884-10.91-10.91-10.91S20.09,12.6,20.09,18.625c0,2.396,0.781,4.604,2.09,6.404
		h3.864C24.108,23.521,22.854,21.158,22.854,18.493z"/>
	<polygon fill="#F7AE1C" points="44.746,24.324 44.339,25.029 45.211,25.029 	"/>
	<polygon fill="#F7AE1C" points="40.306,2.494 36.712,4.866 40.047,6.791 	"/>
	<polygon fill="#F7AE1C" points="31,0 29.075,3.85 32.925,3.85 	"/>
	<polygon fill="#F7AE1C" points="25.288,4.866 21.694,2.494 21.953,6.791 	"/>
	<polygon fill="#F7AE1C" points="45.761,20.536 49.611,18.611 45.761,16.686 	"/>
	<polygon fill="#F7AE1C" points="19.179,9.564 14.883,9.306 17.254,12.899 	"/>
	<polygon fill="#F7AE1C" points="16.239,16.686 12.389,18.611 16.239,20.536 	"/>
	<polygon fill="#F7AE1C" points="62,25.029 45.211,25.029 44.339,25.029 39.819,25.029 35.955,25.029 26.045,25.029 22.181,25.029 
		17.661,25.029 16.789,25.029 0,25.029 0,27.279 15.304,27.279 18.96,27.279 24.375,27.279 37.625,27.279 43.04,27.279 
		46.696,27.279 62,27.279 	"/>
</g>
</svg>
