<?xml version="1.0" encoding="utf-8"?>
<!-- Generator: Adobe Illustrator 17.0.1, SVG Export Plug-In . SVG Version: 6.00 Build 0)  -->
<!DOCTYPE svg PUBLIC "-//W3C//DTD SVG 1.0//EN" "http://www.w3.org/TR/2001/REC-SVG-20010904/DTD/svg10.dtd">
<svg version="1.0" id="Layer_1" xmlns="http://www.w3.org/2000/svg" xmlns:xlink="http://www.w3.org/1999/xlink" x="0px" y="0px"
	 width="37.223px" height="37.223px" viewBox="0 0 37.223 37.223" enable-background="new 0 0 37.223 37.223" xml:space="preserve">
<g id="sunny">
	<g>
		<path fill="#F7AE1C" d="M18.611,0l-1.925,3.85h3.85L18.611,0z M2.494,27.917l4.297-0.258l-1.925-3.335L2.494,27.917z
			 M12.899,4.866L9.306,2.494l0.258,4.297L12.899,4.866z M34.729,9.306l-4.297,0.258l1.925,3.335L34.729,9.306z M3.85,16.686
			L0,18.611l3.85,1.925V16.686z M33.373,20.537l3.85-1.925l-3.85-1.925V20.537z M27.917,2.494l-3.593,2.372l3.335,1.925
			L27.917,2.494z M4.866,12.899l1.925-3.335L2.494,9.306L4.866,12.899z M24.324,32.357l3.593,2.372l-0.258-4.297L24.324,32.357z
			 M30.432,27.659l4.297,0.258l-2.372-3.593L30.432,27.659z M18.611,7.716c-6.025,0-10.91,4.884-10.91,10.91
			s4.884,10.91,10.91,10.91s10.91-4.884,10.91-10.91S24.637,7.716,18.611,7.716z M18.611,26.741c-4.499,0-8.146-3.693-8.146-8.248
			c0-4.556,3.647-8.248,8.146-8.248s8.146,3.693,8.146,8.248S23.111,26.741,18.611,26.741z M18.611,37.223l1.925-3.85h-3.85
			L18.611,37.223z M9.306,34.729l3.593-2.372l-3.335-1.925L9.306,34.729z"/>
	</g>
</g>
</svg>
