<?xml version="1.0" encoding="utf-8"?>
<!-- Generator: Adobe Illustrator 17.0.1, SVG Export Plug-In . SVG Version: 6.00 Build 0)  -->
<!DOCTYPE svg PUBLIC "-//W3C//DTD SVG 1.0//EN" "http://www.w3.org/TR/2001/REC-SVG-20010904/DTD/svg10.dtd">
<svg version="1.0" id="Layer_1" xmlns="http://www.w3.org/2000/svg" xmlns:xlink="http://www.w3.org/1999/xlink" x="0px" y="0px"
	 width="62px" height="17.035px" viewBox="0 0 62 17.035" enable-background="new 0 0 62 17.035" xml:space="preserve">
<g>
	<polygon fill="#F7AE1C" points="47.117,9.306 42.821,9.564 44.746,12.899 	"/>
	<polygon fill="#F7AE1C" points="17.254,14.08 16.789,14.785 17.661,14.785 	"/>
	<polygon fill="#F7AE1C" points="44.746,14.08 44.339,14.785 45.211,14.785 	"/>
	<polygon fill="#F7AE1C" points="40.306,2.494 36.712,4.866 40.047,6.791 	"/>
	<polygon fill="#F7AE1C" points="31,0 29.075,3.85 32.925,3.85 	"/>
	<polygon fill="#F7AE1C" points="25.288,4.866 21.694,2.494 21.953,6.791 	"/>
	<polygon fill="#F7AE1C" points="19.179,9.564 14.883,9.306 17.254,12.899 	"/>
	<g>
		<path fill="none" d="M31,10.244c-3.181,0-5.928,1.849-7.27,4.54h2.314h9.91h2.314C36.928,12.094,34.18,10.244,31,10.244z"/>
		<path fill="#F7AE1C" d="M23.73,14.785c1.341-2.691,4.089-4.54,7.27-4.54c3.18,0,5.928,1.85,7.269,4.54h1.55h1.381
			C39.646,10.657,35.671,7.716,31,7.716s-8.646,2.942-10.201,7.069h1.381H23.73z"/>
		<polygon fill="#F7AE1C" points="45.211,14.785 44.338,14.785 41.201,14.785 39.819,14.785 38.269,14.785 35.955,14.785 
			26.045,14.785 23.73,14.785 22.181,14.785 20.799,14.785 17.662,14.785 16.789,14.785 0,14.785 0,17.035 15.304,17.035 
			18.96,17.035 20.219,17.035 22.989,17.035 24.375,17.035 37.625,17.035 39.011,17.035 41.781,17.035 43.04,17.035 46.696,17.035 
			62,17.035 62,14.785 		"/>
	</g>
</g>
</svg>
