<?xml version="1.0" encoding="utf-8"?>
<!-- Generator: Adobe Illustrator 17.0.1, SVG Export Plug-In . SVG Version: 6.00 Build 0)  -->
<!DOCTYPE svg PUBLIC "-//W3C//DTD SVG 1.1//EN" "http://www.w3.org/Graphics/SVG/1.1/DTD/svg11.dtd">
<svg version="1.1" id="Слой_1" xmlns="http://www.w3.org/2000/svg" xmlns:xlink="http://www.w3.org/1999/xlink" x="0px" y="0px"
	 width="37.425px" height="37.425px" viewBox="326.098 -140.945 37.425 37.425"
	 enable-background="new 326.098 -140.945 37.425 37.425" xml:space="preserve">
<symbol  id="balance_10_" viewBox="-155.129 -155.13 310.259 310.26">
	<g>
		<path fill="#FFFFFF" stroke="#4D4D4D" stroke-width="4" stroke-miterlimit="10" d="M153.13,0
			c0-84.571-68.558-153.13-153.13-153.13S-153.129-84.571-153.129,0S-84.571,153.13,0,153.13S153.13,84.571,153.13,0z"/>
	</g>
	<path fill="#808080" d="M92.123-42L59.022,61.948l7.962,0.785l-0.68,6.898L9.586,64.037C7.144,72.932,0,89.38,0,89.38
		s-8.308-19.126-10.067-27.281l-56.917-5.614l0.68-6.898l7.399,0.73L-92.122-54h-4.294c4.579-32,28.442-38.238,38.447-38.238
		C-47.385-92.237-24.1-86-19.521-54h-4.294L-57.09,50.495l47.73,4.708c1.679-3.484,5.234-5.895,9.361-5.895
		c4.847,0,8.908,3.322,10.059,7.81l46.789,4.615L23.816-42h-4.294c4.579-32,28.442-38.238,38.447-38.238
		C68.553-80.237,91.837-74,96.417-42H92.123z M-27.336-54h-61.265l30.632,98.141L-27.336-54z M0,56.528
		c-1.755,0-3.177,1.422-3.177,3.177S-1.755,62.882,0,62.882s3.177-1.422,3.177-3.177C3.177,57.951,1.755,56.528,0,56.528z
		 M27.337-42l30.632,98.141L88.602-42H27.337z"/>
</symbol>
<use xlink:href="#balance_10_"  width="310.259" height="310.26" id="XMLID_1_" x="-155.129" y="-155.13" transform="matrix(0.1206 0 0 -0.1206 344.8102 -122.2329)" overflow="visible"/>
</svg>
